G04 #@! TF.FileFunction,Copper,L2,Bot,Signal*
%FSLAX46Y46*%
G04 Gerber Fmt 4.6, Leading zero omitted, Abs format (unit mm)*
G04 Created by KiCad (PCBNEW 4.0.1-3.201512221401+6198~38~ubuntu15.10.1-stable) date lun 04 ene 2016 19:36:38 ART*
%MOMM*%
G01*
G04 APERTURE LIST*
%ADD10C,0.100000*%
%ADD11R,1.300000X1.300000*%
%ADD12C,1.300000*%
%ADD13C,1.998980*%
%ADD14O,1.600000X1.600000*%
%ADD15R,2.032000X1.727200*%
%ADD16O,2.032000X1.727200*%
%ADD17R,1.727200X1.727200*%
%ADD18O,1.727200X1.727200*%
%ADD19R,2.032000X2.032000*%
%ADD20O,2.032000X2.032000*%
%ADD21C,5.000000*%
%ADD22C,0.600000*%
%ADD23C,0.250000*%
%ADD24C,0.254000*%
G04 APERTURE END LIST*
D10*
D11*
X215900000Y-109220000D03*
D12*
X218400000Y-109220000D03*
D11*
X200660000Y-88900000D03*
D12*
X203160000Y-88900000D03*
D11*
X215900000Y-101600000D03*
D12*
X218400000Y-101600000D03*
D13*
X201930000Y-103505000D03*
X201930000Y-93345000D03*
X217805000Y-95885000D03*
X217805000Y-85725000D03*
X222250000Y-111125000D03*
X222250000Y-100965000D03*
D11*
X226695000Y-127000000D03*
D12*
X229195000Y-127000000D03*
D14*
X205740000Y-88900000D03*
X205740000Y-91440000D03*
X205740000Y-93980000D03*
X205740000Y-96520000D03*
X205740000Y-99060000D03*
X205740000Y-101600000D03*
X205740000Y-104140000D03*
X205740000Y-106680000D03*
X205740000Y-109220000D03*
X205740000Y-111760000D03*
X205740000Y-114300000D03*
X205740000Y-116840000D03*
X205740000Y-119380000D03*
X205740000Y-121920000D03*
X213360000Y-121920000D03*
X213360000Y-119380000D03*
X213360000Y-116840000D03*
X213360000Y-114300000D03*
X213360000Y-111760000D03*
X213360000Y-109220000D03*
X213360000Y-106680000D03*
X213360000Y-104140000D03*
X213360000Y-101600000D03*
X213360000Y-99060000D03*
X213360000Y-96520000D03*
X213360000Y-93980000D03*
X213360000Y-91440000D03*
X213360000Y-88900000D03*
D15*
X189865000Y-112395000D03*
D16*
X189865000Y-114935000D03*
X189865000Y-117475000D03*
X189865000Y-120015000D03*
X189865000Y-122555000D03*
X189865000Y-125095000D03*
D15*
X191135000Y-88265000D03*
D16*
X191135000Y-90805000D03*
X191135000Y-93345000D03*
X191135000Y-95885000D03*
X191135000Y-98425000D03*
X191135000Y-100965000D03*
X191135000Y-103505000D03*
X191135000Y-106045000D03*
D15*
X227965000Y-88265000D03*
D16*
X227965000Y-90805000D03*
X227965000Y-93345000D03*
X227965000Y-95885000D03*
X227965000Y-98425000D03*
X227965000Y-100965000D03*
X227965000Y-103505000D03*
X227965000Y-106045000D03*
D17*
X226695000Y-121920000D03*
D18*
X229235000Y-121920000D03*
X226695000Y-119380000D03*
X229235000Y-119380000D03*
X226695000Y-116840000D03*
X229235000Y-116840000D03*
X226695000Y-114300000D03*
X229235000Y-114300000D03*
D19*
X196850000Y-127000000D03*
D20*
X199390000Y-127000000D03*
D21*
X187960000Y-83820000D03*
X231140000Y-83820000D03*
D11*
X199390000Y-123825000D03*
D12*
X196890000Y-123825000D03*
D22*
X201930000Y-105410000D03*
X204470000Y-105410000D03*
X224155000Y-91440000D03*
X222885000Y-95885000D03*
X203489800Y-99620200D03*
D23*
X204470000Y-105410000D02*
X201930000Y-105410000D01*
X224155000Y-94615000D02*
X224155000Y-91440000D01*
X222885000Y-95885000D02*
X224155000Y-94615000D01*
X199985000Y-92075000D02*
X203160000Y-88900000D01*
X190500400Y-92075000D02*
X199985000Y-92075000D01*
X188424700Y-94150700D02*
X190500400Y-92075000D01*
X188424700Y-123035300D02*
X188424700Y-94150700D01*
X189245500Y-123856100D02*
X188424700Y-123035300D01*
X189865000Y-123856100D02*
X189245500Y-123856100D01*
X189865000Y-125095000D02*
X189865000Y-123856100D01*
X222250000Y-108975300D02*
X222250000Y-111125000D01*
X215900000Y-102625300D02*
X222250000Y-108975300D01*
X215900000Y-101600000D02*
X215900000Y-102625300D01*
X205374700Y-92615300D02*
X205740000Y-92615300D01*
X203489800Y-94500200D02*
X205374700Y-92615300D01*
X203489800Y-99620200D02*
X203489800Y-94500200D01*
X205740000Y-91440000D02*
X205740000Y-92615300D01*
X200539000Y-105194300D02*
X204564700Y-109220000D01*
X200539000Y-103368500D02*
X200539000Y-105194300D01*
X191754400Y-94583900D02*
X200539000Y-103368500D01*
X191135000Y-94583900D02*
X191754400Y-94583900D01*
X191135000Y-93345000D02*
X191135000Y-94583900D01*
X205740000Y-109220000D02*
X204564700Y-109220000D01*
X205215200Y-110584700D02*
X205740000Y-110584700D01*
X191754400Y-97123900D02*
X205215200Y-110584700D01*
X191135000Y-97123900D02*
X191754400Y-97123900D01*
X191135000Y-95885000D02*
X191135000Y-97123900D01*
X205740000Y-111760000D02*
X205740000Y-110584700D01*
X205215200Y-113124700D02*
X205740000Y-113124700D01*
X191754400Y-99663900D02*
X205215200Y-113124700D01*
X191135000Y-99663900D02*
X191754400Y-99663900D01*
X191135000Y-98425000D02*
X191135000Y-99663900D01*
X205740000Y-114300000D02*
X205740000Y-113124700D01*
X205215200Y-115664700D02*
X205740000Y-115664700D01*
X191754400Y-102203900D02*
X205215200Y-115664700D01*
X191135000Y-102203900D02*
X191754400Y-102203900D01*
X191135000Y-100965000D02*
X191135000Y-102203900D01*
X205740000Y-116840000D02*
X205740000Y-115664700D01*
X205215200Y-118204700D02*
X205740000Y-118204700D01*
X191754400Y-104743900D02*
X205215200Y-118204700D01*
X191135000Y-104743900D02*
X191754400Y-104743900D01*
X191135000Y-103505000D02*
X191135000Y-104743900D01*
X205740000Y-119380000D02*
X205740000Y-118204700D01*
X204595800Y-120744700D02*
X205740000Y-120744700D01*
X191135000Y-107283900D02*
X204595800Y-120744700D01*
X205740000Y-121920000D02*
X205740000Y-120744700D01*
X191135000Y-106045000D02*
X191135000Y-107283900D01*
X219615300Y-116840000D02*
X214535300Y-111760000D01*
X226695000Y-116840000D02*
X219615300Y-116840000D01*
X213360000Y-111760000D02*
X214535300Y-111760000D01*
X214019100Y-90075300D02*
X213360000Y-90075300D01*
X225306200Y-101362400D02*
X214019100Y-90075300D01*
X225306200Y-102766800D02*
X225306200Y-101362400D01*
X227345500Y-104806100D02*
X225306200Y-102766800D01*
X227965000Y-104806100D02*
X227345500Y-104806100D01*
X227965000Y-106045000D02*
X227965000Y-104806100D01*
X213360000Y-88900000D02*
X213360000Y-90075300D01*
D24*
G36*
X228483826Y-82041847D02*
X228005546Y-83193674D01*
X228004457Y-84440854D01*
X228480727Y-85593515D01*
X229361847Y-86476174D01*
X230513674Y-86954454D01*
X231760854Y-86955543D01*
X232913515Y-86479273D01*
X233249000Y-86144373D01*
X233249000Y-129109000D01*
X185851000Y-129109000D01*
X185851000Y-127285750D01*
X195199000Y-127285750D01*
X195199000Y-128142309D01*
X195295673Y-128375698D01*
X195474301Y-128554327D01*
X195707690Y-128651000D01*
X196564250Y-128651000D01*
X196723000Y-128492250D01*
X196723000Y-127127000D01*
X195357750Y-127127000D01*
X195199000Y-127285750D01*
X185851000Y-127285750D01*
X185851000Y-94150700D01*
X187664700Y-94150700D01*
X187664700Y-123035300D01*
X187722552Y-123326139D01*
X187887299Y-123572701D01*
X188512175Y-124197577D01*
X188295729Y-124521511D01*
X188181655Y-125095000D01*
X188295729Y-125668489D01*
X188620585Y-126154670D01*
X189106766Y-126479526D01*
X189680255Y-126593600D01*
X190049745Y-126593600D01*
X190623234Y-126479526D01*
X191109415Y-126154670D01*
X191307850Y-125857691D01*
X195199000Y-125857691D01*
X195199000Y-126714250D01*
X195357750Y-126873000D01*
X196723000Y-126873000D01*
X196723000Y-125507750D01*
X196977000Y-125507750D01*
X196977000Y-126873000D01*
X196997000Y-126873000D01*
X196997000Y-127127000D01*
X196977000Y-127127000D01*
X196977000Y-128492250D01*
X197135750Y-128651000D01*
X197992310Y-128651000D01*
X198225699Y-128554327D01*
X198404327Y-128375698D01*
X198421999Y-128333034D01*
X198758190Y-128557670D01*
X199390000Y-128683345D01*
X200021810Y-128557670D01*
X200557433Y-128199778D01*
X200915325Y-127664155D01*
X201041000Y-127032345D01*
X201041000Y-126967655D01*
X200918141Y-126350000D01*
X225397560Y-126350000D01*
X225397560Y-127650000D01*
X225441838Y-127885317D01*
X225580910Y-128101441D01*
X225793110Y-128246431D01*
X226045000Y-128297440D01*
X227345000Y-128297440D01*
X227580317Y-128253162D01*
X227796441Y-128114090D01*
X227941431Y-127901890D01*
X227942012Y-127899016D01*
X228475590Y-127899016D01*
X228531271Y-128129611D01*
X229014078Y-128297622D01*
X229524428Y-128268083D01*
X229858729Y-128129611D01*
X229914410Y-127899016D01*
X229195000Y-127179605D01*
X228475590Y-127899016D01*
X227942012Y-127899016D01*
X227992440Y-127650000D01*
X227992440Y-127487615D01*
X228065389Y-127663729D01*
X228295984Y-127719410D01*
X229015395Y-127000000D01*
X229374605Y-127000000D01*
X230094016Y-127719410D01*
X230324611Y-127663729D01*
X230492622Y-127180922D01*
X230463083Y-126670572D01*
X230324611Y-126336271D01*
X230094016Y-126280590D01*
X229374605Y-127000000D01*
X229015395Y-127000000D01*
X228295984Y-126280590D01*
X228065389Y-126336271D01*
X227992440Y-126545902D01*
X227992440Y-126350000D01*
X227948162Y-126114683D01*
X227939347Y-126100984D01*
X228475590Y-126100984D01*
X229195000Y-126820395D01*
X229914410Y-126100984D01*
X229858729Y-125870389D01*
X229375922Y-125702378D01*
X228865572Y-125731917D01*
X228531271Y-125870389D01*
X228475590Y-126100984D01*
X227939347Y-126100984D01*
X227809090Y-125898559D01*
X227596890Y-125753569D01*
X227345000Y-125702560D01*
X226045000Y-125702560D01*
X225809683Y-125746838D01*
X225593559Y-125885910D01*
X225448569Y-126098110D01*
X225397560Y-126350000D01*
X200918141Y-126350000D01*
X200915325Y-126335845D01*
X200557433Y-125800222D01*
X200021810Y-125442330D01*
X199390000Y-125316655D01*
X198758190Y-125442330D01*
X198421999Y-125666966D01*
X198404327Y-125624302D01*
X198225699Y-125445673D01*
X197992310Y-125349000D01*
X197135750Y-125349000D01*
X196977000Y-125507750D01*
X196723000Y-125507750D01*
X196564250Y-125349000D01*
X195707690Y-125349000D01*
X195474301Y-125445673D01*
X195295673Y-125624302D01*
X195199000Y-125857691D01*
X191307850Y-125857691D01*
X191434271Y-125668489D01*
X191548345Y-125095000D01*
X191474552Y-124724016D01*
X196170590Y-124724016D01*
X196226271Y-124954611D01*
X196709078Y-125122622D01*
X197219428Y-125093083D01*
X197553729Y-124954611D01*
X197609410Y-124724016D01*
X196890000Y-124004605D01*
X196170590Y-124724016D01*
X191474552Y-124724016D01*
X191434271Y-124521511D01*
X191109415Y-124035330D01*
X190794634Y-123825000D01*
X191065402Y-123644078D01*
X195592378Y-123644078D01*
X195621917Y-124154428D01*
X195760389Y-124488729D01*
X195990984Y-124544410D01*
X196710395Y-123825000D01*
X197069605Y-123825000D01*
X197789016Y-124544410D01*
X198019611Y-124488729D01*
X198092560Y-124279098D01*
X198092560Y-124475000D01*
X198136838Y-124710317D01*
X198275910Y-124926441D01*
X198488110Y-125071431D01*
X198740000Y-125122440D01*
X200040000Y-125122440D01*
X200275317Y-125078162D01*
X200491441Y-124939090D01*
X200636431Y-124726890D01*
X200687440Y-124475000D01*
X200687440Y-123175000D01*
X200643162Y-122939683D01*
X200504090Y-122723559D01*
X200291890Y-122578569D01*
X200040000Y-122527560D01*
X198740000Y-122527560D01*
X198504683Y-122571838D01*
X198288559Y-122710910D01*
X198143569Y-122923110D01*
X198092560Y-123175000D01*
X198092560Y-123337385D01*
X198019611Y-123161271D01*
X197789016Y-123105590D01*
X197069605Y-123825000D01*
X196710395Y-123825000D01*
X195990984Y-123105590D01*
X195760389Y-123161271D01*
X195592378Y-123644078D01*
X191065402Y-123644078D01*
X191109415Y-123614670D01*
X191434271Y-123128489D01*
X191474551Y-122925984D01*
X196170590Y-122925984D01*
X196890000Y-123645395D01*
X197609410Y-122925984D01*
X197553729Y-122695389D01*
X197070922Y-122527378D01*
X196560572Y-122556917D01*
X196226271Y-122695389D01*
X196170590Y-122925984D01*
X191474551Y-122925984D01*
X191548345Y-122555000D01*
X191434271Y-121981511D01*
X191109415Y-121495330D01*
X190794634Y-121285000D01*
X191109415Y-121074670D01*
X191434271Y-120588489D01*
X191548345Y-120015000D01*
X191434271Y-119441511D01*
X191109415Y-118955330D01*
X190794634Y-118745000D01*
X191109415Y-118534670D01*
X191434271Y-118048489D01*
X191548345Y-117475000D01*
X191434271Y-116901511D01*
X191109415Y-116415330D01*
X190794634Y-116205000D01*
X191109415Y-115994670D01*
X191434271Y-115508489D01*
X191548345Y-114935000D01*
X191434271Y-114361511D01*
X191109415Y-113875330D01*
X191087220Y-113860500D01*
X191240698Y-113796927D01*
X191419327Y-113618299D01*
X191516000Y-113384910D01*
X191516000Y-112680750D01*
X191357250Y-112522000D01*
X189992000Y-112522000D01*
X189992000Y-112542000D01*
X189738000Y-112542000D01*
X189738000Y-112522000D01*
X189718000Y-112522000D01*
X189718000Y-112268000D01*
X189738000Y-112268000D01*
X189738000Y-111055150D01*
X189992000Y-111055150D01*
X189992000Y-112268000D01*
X191357250Y-112268000D01*
X191516000Y-112109250D01*
X191516000Y-111405090D01*
X191419327Y-111171701D01*
X191240698Y-110993073D01*
X191007309Y-110896400D01*
X190150750Y-110896400D01*
X189992000Y-111055150D01*
X189738000Y-111055150D01*
X189579250Y-110896400D01*
X189184700Y-110896400D01*
X189184700Y-94465502D01*
X189632213Y-94017989D01*
X189890585Y-94404670D01*
X190205366Y-94615000D01*
X189890585Y-94825330D01*
X189565729Y-95311511D01*
X189451655Y-95885000D01*
X189565729Y-96458489D01*
X189890585Y-96944670D01*
X190205366Y-97155000D01*
X189890585Y-97365330D01*
X189565729Y-97851511D01*
X189451655Y-98425000D01*
X189565729Y-98998489D01*
X189890585Y-99484670D01*
X190205366Y-99695000D01*
X189890585Y-99905330D01*
X189565729Y-100391511D01*
X189451655Y-100965000D01*
X189565729Y-101538489D01*
X189890585Y-102024670D01*
X190205366Y-102235000D01*
X189890585Y-102445330D01*
X189565729Y-102931511D01*
X189451655Y-103505000D01*
X189565729Y-104078489D01*
X189890585Y-104564670D01*
X190205366Y-104775000D01*
X189890585Y-104985330D01*
X189565729Y-105471511D01*
X189451655Y-106045000D01*
X189565729Y-106618489D01*
X189890585Y-107104670D01*
X190376766Y-107429526D01*
X190405088Y-107435160D01*
X190432852Y-107574739D01*
X190597599Y-107821301D01*
X204058399Y-121282101D01*
X204304961Y-121446848D01*
X204368489Y-121459485D01*
X204276887Y-121920000D01*
X204386120Y-122469151D01*
X204697189Y-122934698D01*
X205162736Y-123245767D01*
X205711887Y-123355000D01*
X205768113Y-123355000D01*
X206317264Y-123245767D01*
X206782811Y-122934698D01*
X207093880Y-122469151D01*
X207203113Y-121920000D01*
X207093880Y-121370849D01*
X206782811Y-120905302D01*
X206493493Y-120711985D01*
X206471726Y-120602559D01*
X206782811Y-120394698D01*
X207093880Y-119929151D01*
X207203113Y-119380000D01*
X207093880Y-118830849D01*
X206782811Y-118365302D01*
X206493493Y-118171985D01*
X206471726Y-118062559D01*
X206782811Y-117854698D01*
X207093880Y-117389151D01*
X207203113Y-116840000D01*
X207093880Y-116290849D01*
X206782811Y-115825302D01*
X206493493Y-115631985D01*
X206471726Y-115522559D01*
X206782811Y-115314698D01*
X207093880Y-114849151D01*
X207203113Y-114300000D01*
X207093880Y-113750849D01*
X206782811Y-113285302D01*
X206493493Y-113091985D01*
X206471726Y-112982559D01*
X206782811Y-112774698D01*
X207093880Y-112309151D01*
X207203113Y-111760000D01*
X207093880Y-111210849D01*
X206782811Y-110745302D01*
X206493493Y-110551985D01*
X206471726Y-110442559D01*
X206782811Y-110234698D01*
X207093880Y-109769151D01*
X207203113Y-109220000D01*
X207093880Y-108670849D01*
X206782811Y-108205302D01*
X206378297Y-107935014D01*
X206595134Y-107832389D01*
X206971041Y-107417423D01*
X207131904Y-107029039D01*
X207009915Y-106807000D01*
X205867000Y-106807000D01*
X205867000Y-106827000D01*
X205613000Y-106827000D01*
X205613000Y-106807000D01*
X204470085Y-106807000D01*
X204348096Y-107029039D01*
X204508959Y-107417423D01*
X204884866Y-107832389D01*
X205101703Y-107935014D01*
X204697189Y-108205302D01*
X204668196Y-108248694D01*
X203099502Y-106680000D01*
X211896887Y-106680000D01*
X212006120Y-107229151D01*
X212317189Y-107694698D01*
X212699275Y-107950000D01*
X212317189Y-108205302D01*
X212006120Y-108670849D01*
X211896887Y-109220000D01*
X212006120Y-109769151D01*
X212317189Y-110234698D01*
X212699275Y-110490000D01*
X212317189Y-110745302D01*
X212006120Y-111210849D01*
X211896887Y-111760000D01*
X212006120Y-112309151D01*
X212317189Y-112774698D01*
X212699275Y-113030000D01*
X212317189Y-113285302D01*
X212006120Y-113750849D01*
X211896887Y-114300000D01*
X212006120Y-114849151D01*
X212317189Y-115314698D01*
X212699275Y-115570000D01*
X212317189Y-115825302D01*
X212006120Y-116290849D01*
X211896887Y-116840000D01*
X212006120Y-117389151D01*
X212317189Y-117854698D01*
X212699275Y-118110000D01*
X212317189Y-118365302D01*
X212006120Y-118830849D01*
X211896887Y-119380000D01*
X212006120Y-119929151D01*
X212317189Y-120394698D01*
X212699275Y-120650000D01*
X212317189Y-120905302D01*
X212006120Y-121370849D01*
X211896887Y-121920000D01*
X212006120Y-122469151D01*
X212317189Y-122934698D01*
X212782736Y-123245767D01*
X213331887Y-123355000D01*
X213388113Y-123355000D01*
X213937264Y-123245767D01*
X214402811Y-122934698D01*
X214713880Y-122469151D01*
X214766273Y-122205750D01*
X225196400Y-122205750D01*
X225196400Y-122909909D01*
X225293073Y-123143298D01*
X225471701Y-123321927D01*
X225705090Y-123418600D01*
X226409250Y-123418600D01*
X226568000Y-123259850D01*
X226568000Y-122047000D01*
X225355150Y-122047000D01*
X225196400Y-122205750D01*
X214766273Y-122205750D01*
X214823113Y-121920000D01*
X214713880Y-121370849D01*
X214402811Y-120905302D01*
X214020725Y-120650000D01*
X214402811Y-120394698D01*
X214713880Y-119929151D01*
X214823113Y-119380000D01*
X214713880Y-118830849D01*
X214402811Y-118365302D01*
X214020725Y-118110000D01*
X214402811Y-117854698D01*
X214713880Y-117389151D01*
X214823113Y-116840000D01*
X214713880Y-116290849D01*
X214402811Y-115825302D01*
X214020725Y-115570000D01*
X214402811Y-115314698D01*
X214713880Y-114849151D01*
X214823113Y-114300000D01*
X214713880Y-113750849D01*
X214402811Y-113285302D01*
X214020725Y-113030000D01*
X214402811Y-112774698D01*
X214431804Y-112731306D01*
X219077899Y-117377401D01*
X219324461Y-117542148D01*
X219615300Y-117600000D01*
X225415480Y-117600000D01*
X225635330Y-117929029D01*
X225906172Y-118110000D01*
X225635330Y-118290971D01*
X225310474Y-118777152D01*
X225196400Y-119350641D01*
X225196400Y-119409359D01*
X225310474Y-119982848D01*
X225625526Y-120454356D01*
X225471701Y-120518073D01*
X225293073Y-120696702D01*
X225196400Y-120930091D01*
X225196400Y-121634250D01*
X225355150Y-121793000D01*
X226568000Y-121793000D01*
X226568000Y-121773000D01*
X226822000Y-121773000D01*
X226822000Y-121793000D01*
X226842000Y-121793000D01*
X226842000Y-122047000D01*
X226822000Y-122047000D01*
X226822000Y-123259850D01*
X226980750Y-123418600D01*
X227684910Y-123418600D01*
X227918299Y-123321927D01*
X228096927Y-123143298D01*
X228161263Y-122987977D01*
X228175330Y-123009029D01*
X228661511Y-123333885D01*
X229235000Y-123447959D01*
X229808489Y-123333885D01*
X230294670Y-123009029D01*
X230619526Y-122522848D01*
X230733600Y-121949359D01*
X230733600Y-121890641D01*
X230619526Y-121317152D01*
X230294670Y-120830971D01*
X230023828Y-120650000D01*
X230294670Y-120469029D01*
X230619526Y-119982848D01*
X230733600Y-119409359D01*
X230733600Y-119350641D01*
X230619526Y-118777152D01*
X230294670Y-118290971D01*
X230023828Y-118110000D01*
X230294670Y-117929029D01*
X230619526Y-117442848D01*
X230733600Y-116869359D01*
X230733600Y-116810641D01*
X230619526Y-116237152D01*
X230294670Y-115750971D01*
X230023828Y-115570000D01*
X230294670Y-115389029D01*
X230619526Y-114902848D01*
X230733600Y-114329359D01*
X230733600Y-114270641D01*
X230619526Y-113697152D01*
X230294670Y-113210971D01*
X229808489Y-112886115D01*
X229235000Y-112772041D01*
X228661511Y-112886115D01*
X228175330Y-113210971D01*
X227965000Y-113525752D01*
X227754670Y-113210971D01*
X227268489Y-112886115D01*
X226695000Y-112772041D01*
X226121511Y-112886115D01*
X225635330Y-113210971D01*
X225310474Y-113697152D01*
X225196400Y-114270641D01*
X225196400Y-114329359D01*
X225310474Y-114902848D01*
X225635330Y-115389029D01*
X225906172Y-115570000D01*
X225635330Y-115750971D01*
X225415480Y-116080000D01*
X219930102Y-116080000D01*
X215072701Y-111222599D01*
X214826139Y-111057852D01*
X214578773Y-111008647D01*
X214402811Y-110745302D01*
X214020725Y-110490000D01*
X214402811Y-110234698D01*
X214615000Y-109917135D01*
X214615000Y-109996310D01*
X214711673Y-110229699D01*
X214890302Y-110408327D01*
X215123691Y-110505000D01*
X215614250Y-110505000D01*
X215773000Y-110346250D01*
X215773000Y-109347000D01*
X215753000Y-109347000D01*
X215753000Y-109093000D01*
X215773000Y-109093000D01*
X215773000Y-108093750D01*
X216027000Y-108093750D01*
X216027000Y-109093000D01*
X216047000Y-109093000D01*
X216047000Y-109347000D01*
X216027000Y-109347000D01*
X216027000Y-110346250D01*
X216185750Y-110505000D01*
X216676309Y-110505000D01*
X216909698Y-110408327D01*
X217088327Y-110229699D01*
X217185000Y-109996310D01*
X217185000Y-109644433D01*
X217309995Y-109946943D01*
X217671155Y-110308735D01*
X218143276Y-110504777D01*
X218654481Y-110505223D01*
X219126943Y-110310005D01*
X219488735Y-109948845D01*
X219684777Y-109476724D01*
X219685223Y-108965519D01*
X219490005Y-108493057D01*
X219128845Y-108131265D01*
X218656724Y-107935223D01*
X218145519Y-107934777D01*
X217673057Y-108129995D01*
X217311265Y-108491155D01*
X217185000Y-108795235D01*
X217185000Y-108443690D01*
X217088327Y-108210301D01*
X216909698Y-108031673D01*
X216676309Y-107935000D01*
X216185750Y-107935000D01*
X216027000Y-108093750D01*
X215773000Y-108093750D01*
X215614250Y-107935000D01*
X215123691Y-107935000D01*
X214890302Y-108031673D01*
X214711673Y-108210301D01*
X214615000Y-108443690D01*
X214615000Y-108522865D01*
X214402811Y-108205302D01*
X214020725Y-107950000D01*
X214402811Y-107694698D01*
X214713880Y-107229151D01*
X214823113Y-106680000D01*
X214713880Y-106130849D01*
X214402811Y-105665302D01*
X213998297Y-105395014D01*
X214215134Y-105292389D01*
X214591041Y-104877423D01*
X214751904Y-104489039D01*
X214629915Y-104267000D01*
X213487000Y-104267000D01*
X213487000Y-104287000D01*
X213233000Y-104287000D01*
X213233000Y-104267000D01*
X212090085Y-104267000D01*
X211968096Y-104489039D01*
X212128959Y-104877423D01*
X212504866Y-105292389D01*
X212721703Y-105395014D01*
X212317189Y-105665302D01*
X212006120Y-106130849D01*
X211896887Y-106680000D01*
X203099502Y-106680000D01*
X202589502Y-106170000D01*
X203907537Y-106170000D01*
X203939673Y-106202192D01*
X204283201Y-106344838D01*
X204355755Y-106344901D01*
X204470085Y-106553000D01*
X205613000Y-106553000D01*
X205613000Y-106533000D01*
X205867000Y-106533000D01*
X205867000Y-106553000D01*
X207009915Y-106553000D01*
X207131904Y-106330961D01*
X206971041Y-105942577D01*
X206595134Y-105527611D01*
X206378297Y-105424986D01*
X206782811Y-105154698D01*
X207093880Y-104689151D01*
X207203113Y-104140000D01*
X207093880Y-103590849D01*
X206782811Y-103125302D01*
X206400725Y-102870000D01*
X206782811Y-102614698D01*
X207093880Y-102149151D01*
X207203113Y-101600000D01*
X207093880Y-101050849D01*
X206782811Y-100585302D01*
X206400725Y-100330000D01*
X206782811Y-100074698D01*
X207093880Y-99609151D01*
X207203113Y-99060000D01*
X207093880Y-98510849D01*
X206782811Y-98045302D01*
X206400725Y-97790000D01*
X206782811Y-97534698D01*
X207093880Y-97069151D01*
X207203113Y-96520000D01*
X207093880Y-95970849D01*
X206782811Y-95505302D01*
X206400725Y-95250000D01*
X206782811Y-94994698D01*
X207093880Y-94529151D01*
X207203113Y-93980000D01*
X207093880Y-93430849D01*
X206782811Y-92965302D01*
X206471726Y-92757441D01*
X206493493Y-92648015D01*
X206782811Y-92454698D01*
X207093880Y-91989151D01*
X207203113Y-91440000D01*
X207093880Y-90890849D01*
X206782811Y-90425302D01*
X206400725Y-90170000D01*
X206782811Y-89914698D01*
X207093880Y-89449151D01*
X207203113Y-88900000D01*
X211896887Y-88900000D01*
X212006120Y-89449151D01*
X212317189Y-89914698D01*
X212606507Y-90108015D01*
X212628274Y-90217441D01*
X212317189Y-90425302D01*
X212006120Y-90890849D01*
X211896887Y-91440000D01*
X212006120Y-91989151D01*
X212317189Y-92454698D01*
X212699275Y-92710000D01*
X212317189Y-92965302D01*
X212006120Y-93430849D01*
X211896887Y-93980000D01*
X212006120Y-94529151D01*
X212317189Y-94994698D01*
X212699275Y-95250000D01*
X212317189Y-95505302D01*
X212006120Y-95970849D01*
X211896887Y-96520000D01*
X212006120Y-97069151D01*
X212317189Y-97534698D01*
X212699275Y-97790000D01*
X212317189Y-98045302D01*
X212006120Y-98510849D01*
X211896887Y-99060000D01*
X212006120Y-99609151D01*
X212317189Y-100074698D01*
X212699275Y-100330000D01*
X212317189Y-100585302D01*
X212006120Y-101050849D01*
X211896887Y-101600000D01*
X212006120Y-102149151D01*
X212317189Y-102614698D01*
X212721703Y-102884986D01*
X212504866Y-102987611D01*
X212128959Y-103402577D01*
X211968096Y-103790961D01*
X212090085Y-104013000D01*
X213233000Y-104013000D01*
X213233000Y-103993000D01*
X213487000Y-103993000D01*
X213487000Y-104013000D01*
X214629915Y-104013000D01*
X214751904Y-103790961D01*
X214591041Y-103402577D01*
X214215134Y-102987611D01*
X213998297Y-102884986D01*
X214402811Y-102614698D01*
X214612214Y-102301305D01*
X214646838Y-102485317D01*
X214785910Y-102701441D01*
X214998110Y-102846431D01*
X215191788Y-102885652D01*
X215197852Y-102916139D01*
X215362599Y-103162701D01*
X221490000Y-109290102D01*
X221490000Y-109670504D01*
X221325345Y-109738538D01*
X220865154Y-110197927D01*
X220615794Y-110798453D01*
X220615226Y-111448694D01*
X220863538Y-112049655D01*
X221322927Y-112509846D01*
X221923453Y-112759206D01*
X222573694Y-112759774D01*
X223174655Y-112511462D01*
X223634846Y-112052073D01*
X223884206Y-111451547D01*
X223884774Y-110801306D01*
X223636462Y-110200345D01*
X223177073Y-109740154D01*
X223010000Y-109670779D01*
X223010000Y-108975300D01*
X222952148Y-108684461D01*
X222787401Y-108437899D01*
X217026669Y-102677167D01*
X217146431Y-102501890D01*
X217147012Y-102499016D01*
X217680590Y-102499016D01*
X217736271Y-102729611D01*
X218219078Y-102897622D01*
X218729428Y-102868083D01*
X219063729Y-102729611D01*
X219119410Y-102499016D01*
X218400000Y-101779605D01*
X217680590Y-102499016D01*
X217147012Y-102499016D01*
X217197440Y-102250000D01*
X217197440Y-102087615D01*
X217270389Y-102263729D01*
X217500984Y-102319410D01*
X218220395Y-101600000D01*
X218579605Y-101600000D01*
X219299016Y-102319410D01*
X219529611Y-102263729D01*
X219580614Y-102117163D01*
X221277443Y-102117163D01*
X221376042Y-102383965D01*
X221985582Y-102610401D01*
X222635377Y-102586341D01*
X223123958Y-102383965D01*
X223222557Y-102117163D01*
X222250000Y-101144605D01*
X221277443Y-102117163D01*
X219580614Y-102117163D01*
X219697622Y-101780922D01*
X219668083Y-101270572D01*
X219529611Y-100936271D01*
X219299016Y-100880590D01*
X218579605Y-101600000D01*
X218220395Y-101600000D01*
X217500984Y-100880590D01*
X217270389Y-100936271D01*
X217197440Y-101145902D01*
X217197440Y-100950000D01*
X217153162Y-100714683D01*
X217144347Y-100700984D01*
X217680590Y-100700984D01*
X218400000Y-101420395D01*
X219119410Y-100700984D01*
X219119313Y-100700582D01*
X220604599Y-100700582D01*
X220628659Y-101350377D01*
X220831035Y-101838958D01*
X221097837Y-101937557D01*
X222070395Y-100965000D01*
X221097837Y-99992443D01*
X220831035Y-100091042D01*
X220604599Y-100700582D01*
X219119313Y-100700582D01*
X219063729Y-100470389D01*
X218580922Y-100302378D01*
X218070572Y-100331917D01*
X217736271Y-100470389D01*
X217680590Y-100700984D01*
X217144347Y-100700984D01*
X217014090Y-100498559D01*
X216801890Y-100353569D01*
X216550000Y-100302560D01*
X215250000Y-100302560D01*
X215014683Y-100346838D01*
X214798559Y-100485910D01*
X214653569Y-100698110D01*
X214612778Y-100899540D01*
X214402811Y-100585302D01*
X214020725Y-100330000D01*
X214402811Y-100074698D01*
X214713880Y-99609151D01*
X214823113Y-99060000D01*
X214713880Y-98510849D01*
X214402811Y-98045302D01*
X214020725Y-97790000D01*
X214402811Y-97534698D01*
X214713880Y-97069151D01*
X214823113Y-96520000D01*
X214713880Y-95970849D01*
X214402811Y-95505302D01*
X214020725Y-95250000D01*
X214402811Y-94994698D01*
X214713880Y-94529151D01*
X214823113Y-93980000D01*
X214713880Y-93430849D01*
X214402811Y-92965302D01*
X214020725Y-92710000D01*
X214402811Y-92454698D01*
X214713880Y-91989151D01*
X214737816Y-91868818D01*
X217225090Y-94356092D01*
X216880345Y-94498538D01*
X216420154Y-94957927D01*
X216170794Y-95558453D01*
X216170226Y-96208694D01*
X216418538Y-96809655D01*
X216877927Y-97269846D01*
X217478453Y-97519206D01*
X218128694Y-97519774D01*
X218729655Y-97271462D01*
X219189846Y-96812073D01*
X219333973Y-96464975D01*
X222200230Y-99331232D01*
X221864623Y-99343659D01*
X221376042Y-99546035D01*
X221277443Y-99812837D01*
X222250000Y-100785395D01*
X222264142Y-100771252D01*
X222443748Y-100950858D01*
X222429605Y-100965000D01*
X223402163Y-101937557D01*
X223668965Y-101838958D01*
X223895401Y-101229418D01*
X223887595Y-101018597D01*
X224546200Y-101677202D01*
X224546200Y-102766800D01*
X224604052Y-103057639D01*
X224768799Y-103304201D01*
X226612175Y-105147577D01*
X226395729Y-105471511D01*
X226281655Y-106045000D01*
X226395729Y-106618489D01*
X226720585Y-107104670D01*
X227206766Y-107429526D01*
X227780255Y-107543600D01*
X228149745Y-107543600D01*
X228723234Y-107429526D01*
X229209415Y-107104670D01*
X229534271Y-106618489D01*
X229648345Y-106045000D01*
X229534271Y-105471511D01*
X229209415Y-104985330D01*
X228894634Y-104775000D01*
X229209415Y-104564670D01*
X229534271Y-104078489D01*
X229648345Y-103505000D01*
X229534271Y-102931511D01*
X229209415Y-102445330D01*
X228894634Y-102235000D01*
X229209415Y-102024670D01*
X229534271Y-101538489D01*
X229648345Y-100965000D01*
X229534271Y-100391511D01*
X229209415Y-99905330D01*
X228894634Y-99695000D01*
X229209415Y-99484670D01*
X229534271Y-98998489D01*
X229648345Y-98425000D01*
X229534271Y-97851511D01*
X229209415Y-97365330D01*
X228894634Y-97155000D01*
X229209415Y-96944670D01*
X229534271Y-96458489D01*
X229648345Y-95885000D01*
X229534271Y-95311511D01*
X229209415Y-94825330D01*
X228899931Y-94618539D01*
X229315732Y-94247036D01*
X229569709Y-93719791D01*
X229572358Y-93704026D01*
X229451217Y-93472000D01*
X228092000Y-93472000D01*
X228092000Y-93492000D01*
X227838000Y-93492000D01*
X227838000Y-93472000D01*
X226478783Y-93472000D01*
X226357642Y-93704026D01*
X226360291Y-93719791D01*
X226614268Y-94247036D01*
X227030069Y-94618539D01*
X226720585Y-94825330D01*
X226395729Y-95311511D01*
X226281655Y-95885000D01*
X226395729Y-96458489D01*
X226720585Y-96944670D01*
X227035366Y-97155000D01*
X226720585Y-97365330D01*
X226395729Y-97851511D01*
X226281655Y-98425000D01*
X226395729Y-98998489D01*
X226720585Y-99484670D01*
X227035366Y-99695000D01*
X226720585Y-99905330D01*
X226395729Y-100391511D01*
X226281655Y-100965000D01*
X226395729Y-101538489D01*
X226720585Y-102024670D01*
X227035366Y-102235000D01*
X226720585Y-102445330D01*
X226455804Y-102841602D01*
X226066200Y-102451998D01*
X226066200Y-101362400D01*
X226008348Y-101071561D01*
X225843601Y-100824999D01*
X221088769Y-96070167D01*
X221949838Y-96070167D01*
X222091883Y-96413943D01*
X222354673Y-96677192D01*
X222698201Y-96819838D01*
X223070167Y-96820162D01*
X223413943Y-96678117D01*
X223677192Y-96415327D01*
X223819838Y-96071799D01*
X223819879Y-96024923D01*
X224692401Y-95152401D01*
X224857148Y-94905840D01*
X224915000Y-94615000D01*
X224915000Y-92002463D01*
X224947192Y-91970327D01*
X225089838Y-91626799D01*
X225090162Y-91254833D01*
X224948117Y-90911057D01*
X224842245Y-90805000D01*
X226281655Y-90805000D01*
X226395729Y-91378489D01*
X226720585Y-91864670D01*
X227030069Y-92071461D01*
X226614268Y-92442964D01*
X226360291Y-92970209D01*
X226357642Y-92985974D01*
X226478783Y-93218000D01*
X227838000Y-93218000D01*
X227838000Y-93198000D01*
X228092000Y-93198000D01*
X228092000Y-93218000D01*
X229451217Y-93218000D01*
X229572358Y-92985974D01*
X229569709Y-92970209D01*
X229315732Y-92442964D01*
X228899931Y-92071461D01*
X229209415Y-91864670D01*
X229534271Y-91378489D01*
X229648345Y-90805000D01*
X229534271Y-90231511D01*
X229209415Y-89745330D01*
X229195087Y-89735757D01*
X229216317Y-89731762D01*
X229432441Y-89592690D01*
X229577431Y-89380490D01*
X229628440Y-89128600D01*
X229628440Y-87401400D01*
X229584162Y-87166083D01*
X229445090Y-86949959D01*
X229232890Y-86804969D01*
X228981000Y-86753960D01*
X226949000Y-86753960D01*
X226713683Y-86798238D01*
X226497559Y-86937310D01*
X226352569Y-87149510D01*
X226301560Y-87401400D01*
X226301560Y-89128600D01*
X226345838Y-89363917D01*
X226484910Y-89580041D01*
X226697110Y-89725031D01*
X226738439Y-89733400D01*
X226720585Y-89745330D01*
X226395729Y-90231511D01*
X226281655Y-90805000D01*
X224842245Y-90805000D01*
X224685327Y-90647808D01*
X224341799Y-90505162D01*
X223969833Y-90504838D01*
X223626057Y-90646883D01*
X223362808Y-90909673D01*
X223220162Y-91253201D01*
X223219838Y-91625167D01*
X223361883Y-91968943D01*
X223395000Y-92002118D01*
X223395000Y-94300198D01*
X222745320Y-94949878D01*
X222699833Y-94949838D01*
X222356057Y-95091883D01*
X222092808Y-95354673D01*
X221950162Y-95698201D01*
X221949838Y-96070167D01*
X221088769Y-96070167D01*
X214615295Y-89596693D01*
X214713880Y-89449151D01*
X214823113Y-88900000D01*
X214713880Y-88350849D01*
X214402811Y-87885302D01*
X213937264Y-87574233D01*
X213388113Y-87465000D01*
X213331887Y-87465000D01*
X212782736Y-87574233D01*
X212317189Y-87885302D01*
X212006120Y-88350849D01*
X211896887Y-88900000D01*
X207203113Y-88900000D01*
X207093880Y-88350849D01*
X206782811Y-87885302D01*
X206317264Y-87574233D01*
X205768113Y-87465000D01*
X205711887Y-87465000D01*
X205162736Y-87574233D01*
X204697189Y-87885302D01*
X204386120Y-88350849D01*
X204365760Y-88453205D01*
X204250005Y-88173057D01*
X203888845Y-87811265D01*
X203416724Y-87615223D01*
X202905519Y-87614777D01*
X202433057Y-87809995D01*
X202071265Y-88171155D01*
X201957440Y-88445276D01*
X201957440Y-88250000D01*
X201913162Y-88014683D01*
X201774090Y-87798559D01*
X201561890Y-87653569D01*
X201310000Y-87602560D01*
X200010000Y-87602560D01*
X199774683Y-87646838D01*
X199558559Y-87785910D01*
X199413569Y-87998110D01*
X199362560Y-88250000D01*
X199362560Y-89550000D01*
X199406838Y-89785317D01*
X199545910Y-90001441D01*
X199758110Y-90146431D01*
X200010000Y-90197440D01*
X200787758Y-90197440D01*
X199670198Y-91315000D01*
X192716900Y-91315000D01*
X192818345Y-90805000D01*
X192704271Y-90231511D01*
X192379415Y-89745330D01*
X192365087Y-89735757D01*
X192386317Y-89731762D01*
X192602441Y-89592690D01*
X192747431Y-89380490D01*
X192798440Y-89128600D01*
X192798440Y-87401400D01*
X192754162Y-87166083D01*
X192615090Y-86949959D01*
X192402890Y-86804969D01*
X192151000Y-86753960D01*
X190119000Y-86753960D01*
X189883683Y-86798238D01*
X189667559Y-86937310D01*
X189522569Y-87149510D01*
X189471560Y-87401400D01*
X189471560Y-89128600D01*
X189515838Y-89363917D01*
X189654910Y-89580041D01*
X189867110Y-89725031D01*
X189908439Y-89733400D01*
X189890585Y-89745330D01*
X189565729Y-90231511D01*
X189451655Y-90805000D01*
X189565729Y-91378489D01*
X189788584Y-91712014D01*
X187887299Y-93613299D01*
X187722552Y-93859861D01*
X187664700Y-94150700D01*
X185851000Y-94150700D01*
X185851000Y-86144749D01*
X186181847Y-86476174D01*
X187333674Y-86954454D01*
X188580854Y-86955543D01*
X189733515Y-86479273D01*
X190164846Y-86048694D01*
X216170226Y-86048694D01*
X216418538Y-86649655D01*
X216877927Y-87109846D01*
X217478453Y-87359206D01*
X218128694Y-87359774D01*
X218729655Y-87111462D01*
X219189846Y-86652073D01*
X219439206Y-86051547D01*
X219439774Y-85401306D01*
X219191462Y-84800345D01*
X218732073Y-84340154D01*
X218131547Y-84090794D01*
X217481306Y-84090226D01*
X216880345Y-84338538D01*
X216420154Y-84797927D01*
X216170794Y-85398453D01*
X216170226Y-86048694D01*
X190164846Y-86048694D01*
X190616174Y-85598153D01*
X191094454Y-84446326D01*
X191095543Y-83199146D01*
X190619273Y-82046485D01*
X190284373Y-81711000D01*
X228815251Y-81711000D01*
X228483826Y-82041847D01*
X228483826Y-82041847D01*
G37*
X228483826Y-82041847D02*
X228005546Y-83193674D01*
X228004457Y-84440854D01*
X228480727Y-85593515D01*
X229361847Y-86476174D01*
X230513674Y-86954454D01*
X231760854Y-86955543D01*
X232913515Y-86479273D01*
X233249000Y-86144373D01*
X233249000Y-129109000D01*
X185851000Y-129109000D01*
X185851000Y-127285750D01*
X195199000Y-127285750D01*
X195199000Y-128142309D01*
X195295673Y-128375698D01*
X195474301Y-128554327D01*
X195707690Y-128651000D01*
X196564250Y-128651000D01*
X196723000Y-128492250D01*
X196723000Y-127127000D01*
X195357750Y-127127000D01*
X195199000Y-127285750D01*
X185851000Y-127285750D01*
X185851000Y-94150700D01*
X187664700Y-94150700D01*
X187664700Y-123035300D01*
X187722552Y-123326139D01*
X187887299Y-123572701D01*
X188512175Y-124197577D01*
X188295729Y-124521511D01*
X188181655Y-125095000D01*
X188295729Y-125668489D01*
X188620585Y-126154670D01*
X189106766Y-126479526D01*
X189680255Y-126593600D01*
X190049745Y-126593600D01*
X190623234Y-126479526D01*
X191109415Y-126154670D01*
X191307850Y-125857691D01*
X195199000Y-125857691D01*
X195199000Y-126714250D01*
X195357750Y-126873000D01*
X196723000Y-126873000D01*
X196723000Y-125507750D01*
X196977000Y-125507750D01*
X196977000Y-126873000D01*
X196997000Y-126873000D01*
X196997000Y-127127000D01*
X196977000Y-127127000D01*
X196977000Y-128492250D01*
X197135750Y-128651000D01*
X197992310Y-128651000D01*
X198225699Y-128554327D01*
X198404327Y-128375698D01*
X198421999Y-128333034D01*
X198758190Y-128557670D01*
X199390000Y-128683345D01*
X200021810Y-128557670D01*
X200557433Y-128199778D01*
X200915325Y-127664155D01*
X201041000Y-127032345D01*
X201041000Y-126967655D01*
X200918141Y-126350000D01*
X225397560Y-126350000D01*
X225397560Y-127650000D01*
X225441838Y-127885317D01*
X225580910Y-128101441D01*
X225793110Y-128246431D01*
X226045000Y-128297440D01*
X227345000Y-128297440D01*
X227580317Y-128253162D01*
X227796441Y-128114090D01*
X227941431Y-127901890D01*
X227942012Y-127899016D01*
X228475590Y-127899016D01*
X228531271Y-128129611D01*
X229014078Y-128297622D01*
X229524428Y-128268083D01*
X229858729Y-128129611D01*
X229914410Y-127899016D01*
X229195000Y-127179605D01*
X228475590Y-127899016D01*
X227942012Y-127899016D01*
X227992440Y-127650000D01*
X227992440Y-127487615D01*
X228065389Y-127663729D01*
X228295984Y-127719410D01*
X229015395Y-127000000D01*
X229374605Y-127000000D01*
X230094016Y-127719410D01*
X230324611Y-127663729D01*
X230492622Y-127180922D01*
X230463083Y-126670572D01*
X230324611Y-126336271D01*
X230094016Y-126280590D01*
X229374605Y-127000000D01*
X229015395Y-127000000D01*
X228295984Y-126280590D01*
X228065389Y-126336271D01*
X227992440Y-126545902D01*
X227992440Y-126350000D01*
X227948162Y-126114683D01*
X227939347Y-126100984D01*
X228475590Y-126100984D01*
X229195000Y-126820395D01*
X229914410Y-126100984D01*
X229858729Y-125870389D01*
X229375922Y-125702378D01*
X228865572Y-125731917D01*
X228531271Y-125870389D01*
X228475590Y-126100984D01*
X227939347Y-126100984D01*
X227809090Y-125898559D01*
X227596890Y-125753569D01*
X227345000Y-125702560D01*
X226045000Y-125702560D01*
X225809683Y-125746838D01*
X225593559Y-125885910D01*
X225448569Y-126098110D01*
X225397560Y-126350000D01*
X200918141Y-126350000D01*
X200915325Y-126335845D01*
X200557433Y-125800222D01*
X200021810Y-125442330D01*
X199390000Y-125316655D01*
X198758190Y-125442330D01*
X198421999Y-125666966D01*
X198404327Y-125624302D01*
X198225699Y-125445673D01*
X197992310Y-125349000D01*
X197135750Y-125349000D01*
X196977000Y-125507750D01*
X196723000Y-125507750D01*
X196564250Y-125349000D01*
X195707690Y-125349000D01*
X195474301Y-125445673D01*
X195295673Y-125624302D01*
X195199000Y-125857691D01*
X191307850Y-125857691D01*
X191434271Y-125668489D01*
X191548345Y-125095000D01*
X191474552Y-124724016D01*
X196170590Y-124724016D01*
X196226271Y-124954611D01*
X196709078Y-125122622D01*
X197219428Y-125093083D01*
X197553729Y-124954611D01*
X197609410Y-124724016D01*
X196890000Y-124004605D01*
X196170590Y-124724016D01*
X191474552Y-124724016D01*
X191434271Y-124521511D01*
X191109415Y-124035330D01*
X190794634Y-123825000D01*
X191065402Y-123644078D01*
X195592378Y-123644078D01*
X195621917Y-124154428D01*
X195760389Y-124488729D01*
X195990984Y-124544410D01*
X196710395Y-123825000D01*
X197069605Y-123825000D01*
X197789016Y-124544410D01*
X198019611Y-124488729D01*
X198092560Y-124279098D01*
X198092560Y-124475000D01*
X198136838Y-124710317D01*
X198275910Y-124926441D01*
X198488110Y-125071431D01*
X198740000Y-125122440D01*
X200040000Y-125122440D01*
X200275317Y-125078162D01*
X200491441Y-124939090D01*
X200636431Y-124726890D01*
X200687440Y-124475000D01*
X200687440Y-123175000D01*
X200643162Y-122939683D01*
X200504090Y-122723559D01*
X200291890Y-122578569D01*
X200040000Y-122527560D01*
X198740000Y-122527560D01*
X198504683Y-122571838D01*
X198288559Y-122710910D01*
X198143569Y-122923110D01*
X198092560Y-123175000D01*
X198092560Y-123337385D01*
X198019611Y-123161271D01*
X197789016Y-123105590D01*
X197069605Y-123825000D01*
X196710395Y-123825000D01*
X195990984Y-123105590D01*
X195760389Y-123161271D01*
X195592378Y-123644078D01*
X191065402Y-123644078D01*
X191109415Y-123614670D01*
X191434271Y-123128489D01*
X191474551Y-122925984D01*
X196170590Y-122925984D01*
X196890000Y-123645395D01*
X197609410Y-122925984D01*
X197553729Y-122695389D01*
X197070922Y-122527378D01*
X196560572Y-122556917D01*
X196226271Y-122695389D01*
X196170590Y-122925984D01*
X191474551Y-122925984D01*
X191548345Y-122555000D01*
X191434271Y-121981511D01*
X191109415Y-121495330D01*
X190794634Y-121285000D01*
X191109415Y-121074670D01*
X191434271Y-120588489D01*
X191548345Y-120015000D01*
X191434271Y-119441511D01*
X191109415Y-118955330D01*
X190794634Y-118745000D01*
X191109415Y-118534670D01*
X191434271Y-118048489D01*
X191548345Y-117475000D01*
X191434271Y-116901511D01*
X191109415Y-116415330D01*
X190794634Y-116205000D01*
X191109415Y-115994670D01*
X191434271Y-115508489D01*
X191548345Y-114935000D01*
X191434271Y-114361511D01*
X191109415Y-113875330D01*
X191087220Y-113860500D01*
X191240698Y-113796927D01*
X191419327Y-113618299D01*
X191516000Y-113384910D01*
X191516000Y-112680750D01*
X191357250Y-112522000D01*
X189992000Y-112522000D01*
X189992000Y-112542000D01*
X189738000Y-112542000D01*
X189738000Y-112522000D01*
X189718000Y-112522000D01*
X189718000Y-112268000D01*
X189738000Y-112268000D01*
X189738000Y-111055150D01*
X189992000Y-111055150D01*
X189992000Y-112268000D01*
X191357250Y-112268000D01*
X191516000Y-112109250D01*
X191516000Y-111405090D01*
X191419327Y-111171701D01*
X191240698Y-110993073D01*
X191007309Y-110896400D01*
X190150750Y-110896400D01*
X189992000Y-111055150D01*
X189738000Y-111055150D01*
X189579250Y-110896400D01*
X189184700Y-110896400D01*
X189184700Y-94465502D01*
X189632213Y-94017989D01*
X189890585Y-94404670D01*
X190205366Y-94615000D01*
X189890585Y-94825330D01*
X189565729Y-95311511D01*
X189451655Y-95885000D01*
X189565729Y-96458489D01*
X189890585Y-96944670D01*
X190205366Y-97155000D01*
X189890585Y-97365330D01*
X189565729Y-97851511D01*
X189451655Y-98425000D01*
X189565729Y-98998489D01*
X189890585Y-99484670D01*
X190205366Y-99695000D01*
X189890585Y-99905330D01*
X189565729Y-100391511D01*
X189451655Y-100965000D01*
X189565729Y-101538489D01*
X189890585Y-102024670D01*
X190205366Y-102235000D01*
X189890585Y-102445330D01*
X189565729Y-102931511D01*
X189451655Y-103505000D01*
X189565729Y-104078489D01*
X189890585Y-104564670D01*
X190205366Y-104775000D01*
X189890585Y-104985330D01*
X189565729Y-105471511D01*
X189451655Y-106045000D01*
X189565729Y-106618489D01*
X189890585Y-107104670D01*
X190376766Y-107429526D01*
X190405088Y-107435160D01*
X190432852Y-107574739D01*
X190597599Y-107821301D01*
X204058399Y-121282101D01*
X204304961Y-121446848D01*
X204368489Y-121459485D01*
X204276887Y-121920000D01*
X204386120Y-122469151D01*
X204697189Y-122934698D01*
X205162736Y-123245767D01*
X205711887Y-123355000D01*
X205768113Y-123355000D01*
X206317264Y-123245767D01*
X206782811Y-122934698D01*
X207093880Y-122469151D01*
X207203113Y-121920000D01*
X207093880Y-121370849D01*
X206782811Y-120905302D01*
X206493493Y-120711985D01*
X206471726Y-120602559D01*
X206782811Y-120394698D01*
X207093880Y-119929151D01*
X207203113Y-119380000D01*
X207093880Y-118830849D01*
X206782811Y-118365302D01*
X206493493Y-118171985D01*
X206471726Y-118062559D01*
X206782811Y-117854698D01*
X207093880Y-117389151D01*
X207203113Y-116840000D01*
X207093880Y-116290849D01*
X206782811Y-115825302D01*
X206493493Y-115631985D01*
X206471726Y-115522559D01*
X206782811Y-115314698D01*
X207093880Y-114849151D01*
X207203113Y-114300000D01*
X207093880Y-113750849D01*
X206782811Y-113285302D01*
X206493493Y-113091985D01*
X206471726Y-112982559D01*
X206782811Y-112774698D01*
X207093880Y-112309151D01*
X207203113Y-111760000D01*
X207093880Y-111210849D01*
X206782811Y-110745302D01*
X206493493Y-110551985D01*
X206471726Y-110442559D01*
X206782811Y-110234698D01*
X207093880Y-109769151D01*
X207203113Y-109220000D01*
X207093880Y-108670849D01*
X206782811Y-108205302D01*
X206378297Y-107935014D01*
X206595134Y-107832389D01*
X206971041Y-107417423D01*
X207131904Y-107029039D01*
X207009915Y-106807000D01*
X205867000Y-106807000D01*
X205867000Y-106827000D01*
X205613000Y-106827000D01*
X205613000Y-106807000D01*
X204470085Y-106807000D01*
X204348096Y-107029039D01*
X204508959Y-107417423D01*
X204884866Y-107832389D01*
X205101703Y-107935014D01*
X204697189Y-108205302D01*
X204668196Y-108248694D01*
X203099502Y-106680000D01*
X211896887Y-106680000D01*
X212006120Y-107229151D01*
X212317189Y-107694698D01*
X212699275Y-107950000D01*
X212317189Y-108205302D01*
X212006120Y-108670849D01*
X211896887Y-109220000D01*
X212006120Y-109769151D01*
X212317189Y-110234698D01*
X212699275Y-110490000D01*
X212317189Y-110745302D01*
X212006120Y-111210849D01*
X211896887Y-111760000D01*
X212006120Y-112309151D01*
X212317189Y-112774698D01*
X212699275Y-113030000D01*
X212317189Y-113285302D01*
X212006120Y-113750849D01*
X211896887Y-114300000D01*
X212006120Y-114849151D01*
X212317189Y-115314698D01*
X212699275Y-115570000D01*
X212317189Y-115825302D01*
X212006120Y-116290849D01*
X211896887Y-116840000D01*
X212006120Y-117389151D01*
X212317189Y-117854698D01*
X212699275Y-118110000D01*
X212317189Y-118365302D01*
X212006120Y-118830849D01*
X211896887Y-119380000D01*
X212006120Y-119929151D01*
X212317189Y-120394698D01*
X212699275Y-120650000D01*
X212317189Y-120905302D01*
X212006120Y-121370849D01*
X211896887Y-121920000D01*
X212006120Y-122469151D01*
X212317189Y-122934698D01*
X212782736Y-123245767D01*
X213331887Y-123355000D01*
X213388113Y-123355000D01*
X213937264Y-123245767D01*
X214402811Y-122934698D01*
X214713880Y-122469151D01*
X214766273Y-122205750D01*
X225196400Y-122205750D01*
X225196400Y-122909909D01*
X225293073Y-123143298D01*
X225471701Y-123321927D01*
X225705090Y-123418600D01*
X226409250Y-123418600D01*
X226568000Y-123259850D01*
X226568000Y-122047000D01*
X225355150Y-122047000D01*
X225196400Y-122205750D01*
X214766273Y-122205750D01*
X214823113Y-121920000D01*
X214713880Y-121370849D01*
X214402811Y-120905302D01*
X214020725Y-120650000D01*
X214402811Y-120394698D01*
X214713880Y-119929151D01*
X214823113Y-119380000D01*
X214713880Y-118830849D01*
X214402811Y-118365302D01*
X214020725Y-118110000D01*
X214402811Y-117854698D01*
X214713880Y-117389151D01*
X214823113Y-116840000D01*
X214713880Y-116290849D01*
X214402811Y-115825302D01*
X214020725Y-115570000D01*
X214402811Y-115314698D01*
X214713880Y-114849151D01*
X214823113Y-114300000D01*
X214713880Y-113750849D01*
X214402811Y-113285302D01*
X214020725Y-113030000D01*
X214402811Y-112774698D01*
X214431804Y-112731306D01*
X219077899Y-117377401D01*
X219324461Y-117542148D01*
X219615300Y-117600000D01*
X225415480Y-117600000D01*
X225635330Y-117929029D01*
X225906172Y-118110000D01*
X225635330Y-118290971D01*
X225310474Y-118777152D01*
X225196400Y-119350641D01*
X225196400Y-119409359D01*
X225310474Y-119982848D01*
X225625526Y-120454356D01*
X225471701Y-120518073D01*
X225293073Y-120696702D01*
X225196400Y-120930091D01*
X225196400Y-121634250D01*
X225355150Y-121793000D01*
X226568000Y-121793000D01*
X226568000Y-121773000D01*
X226822000Y-121773000D01*
X226822000Y-121793000D01*
X226842000Y-121793000D01*
X226842000Y-122047000D01*
X226822000Y-122047000D01*
X226822000Y-123259850D01*
X226980750Y-123418600D01*
X227684910Y-123418600D01*
X227918299Y-123321927D01*
X228096927Y-123143298D01*
X228161263Y-122987977D01*
X228175330Y-123009029D01*
X228661511Y-123333885D01*
X229235000Y-123447959D01*
X229808489Y-123333885D01*
X230294670Y-123009029D01*
X230619526Y-122522848D01*
X230733600Y-121949359D01*
X230733600Y-121890641D01*
X230619526Y-121317152D01*
X230294670Y-120830971D01*
X230023828Y-120650000D01*
X230294670Y-120469029D01*
X230619526Y-119982848D01*
X230733600Y-119409359D01*
X230733600Y-119350641D01*
X230619526Y-118777152D01*
X230294670Y-118290971D01*
X230023828Y-118110000D01*
X230294670Y-117929029D01*
X230619526Y-117442848D01*
X230733600Y-116869359D01*
X230733600Y-116810641D01*
X230619526Y-116237152D01*
X230294670Y-115750971D01*
X230023828Y-115570000D01*
X230294670Y-115389029D01*
X230619526Y-114902848D01*
X230733600Y-114329359D01*
X230733600Y-114270641D01*
X230619526Y-113697152D01*
X230294670Y-113210971D01*
X229808489Y-112886115D01*
X229235000Y-112772041D01*
X228661511Y-112886115D01*
X228175330Y-113210971D01*
X227965000Y-113525752D01*
X227754670Y-113210971D01*
X227268489Y-112886115D01*
X226695000Y-112772041D01*
X226121511Y-112886115D01*
X225635330Y-113210971D01*
X225310474Y-113697152D01*
X225196400Y-114270641D01*
X225196400Y-114329359D01*
X225310474Y-114902848D01*
X225635330Y-115389029D01*
X225906172Y-115570000D01*
X225635330Y-115750971D01*
X225415480Y-116080000D01*
X219930102Y-116080000D01*
X215072701Y-111222599D01*
X214826139Y-111057852D01*
X214578773Y-111008647D01*
X214402811Y-110745302D01*
X214020725Y-110490000D01*
X214402811Y-110234698D01*
X214615000Y-109917135D01*
X214615000Y-109996310D01*
X214711673Y-110229699D01*
X214890302Y-110408327D01*
X215123691Y-110505000D01*
X215614250Y-110505000D01*
X215773000Y-110346250D01*
X215773000Y-109347000D01*
X215753000Y-109347000D01*
X215753000Y-109093000D01*
X215773000Y-109093000D01*
X215773000Y-108093750D01*
X216027000Y-108093750D01*
X216027000Y-109093000D01*
X216047000Y-109093000D01*
X216047000Y-109347000D01*
X216027000Y-109347000D01*
X216027000Y-110346250D01*
X216185750Y-110505000D01*
X216676309Y-110505000D01*
X216909698Y-110408327D01*
X217088327Y-110229699D01*
X217185000Y-109996310D01*
X217185000Y-109644433D01*
X217309995Y-109946943D01*
X217671155Y-110308735D01*
X218143276Y-110504777D01*
X218654481Y-110505223D01*
X219126943Y-110310005D01*
X219488735Y-109948845D01*
X219684777Y-109476724D01*
X219685223Y-108965519D01*
X219490005Y-108493057D01*
X219128845Y-108131265D01*
X218656724Y-107935223D01*
X218145519Y-107934777D01*
X217673057Y-108129995D01*
X217311265Y-108491155D01*
X217185000Y-108795235D01*
X217185000Y-108443690D01*
X217088327Y-108210301D01*
X216909698Y-108031673D01*
X216676309Y-107935000D01*
X216185750Y-107935000D01*
X216027000Y-108093750D01*
X215773000Y-108093750D01*
X215614250Y-107935000D01*
X215123691Y-107935000D01*
X214890302Y-108031673D01*
X214711673Y-108210301D01*
X214615000Y-108443690D01*
X214615000Y-108522865D01*
X214402811Y-108205302D01*
X214020725Y-107950000D01*
X214402811Y-107694698D01*
X214713880Y-107229151D01*
X214823113Y-106680000D01*
X214713880Y-106130849D01*
X214402811Y-105665302D01*
X213998297Y-105395014D01*
X214215134Y-105292389D01*
X214591041Y-104877423D01*
X214751904Y-104489039D01*
X214629915Y-104267000D01*
X213487000Y-104267000D01*
X213487000Y-104287000D01*
X213233000Y-104287000D01*
X213233000Y-104267000D01*
X212090085Y-104267000D01*
X211968096Y-104489039D01*
X212128959Y-104877423D01*
X212504866Y-105292389D01*
X212721703Y-105395014D01*
X212317189Y-105665302D01*
X212006120Y-106130849D01*
X211896887Y-106680000D01*
X203099502Y-106680000D01*
X202589502Y-106170000D01*
X203907537Y-106170000D01*
X203939673Y-106202192D01*
X204283201Y-106344838D01*
X204355755Y-106344901D01*
X204470085Y-106553000D01*
X205613000Y-106553000D01*
X205613000Y-106533000D01*
X205867000Y-106533000D01*
X205867000Y-106553000D01*
X207009915Y-106553000D01*
X207131904Y-106330961D01*
X206971041Y-105942577D01*
X206595134Y-105527611D01*
X206378297Y-105424986D01*
X206782811Y-105154698D01*
X207093880Y-104689151D01*
X207203113Y-104140000D01*
X207093880Y-103590849D01*
X206782811Y-103125302D01*
X206400725Y-102870000D01*
X206782811Y-102614698D01*
X207093880Y-102149151D01*
X207203113Y-101600000D01*
X207093880Y-101050849D01*
X206782811Y-100585302D01*
X206400725Y-100330000D01*
X206782811Y-100074698D01*
X207093880Y-99609151D01*
X207203113Y-99060000D01*
X207093880Y-98510849D01*
X206782811Y-98045302D01*
X206400725Y-97790000D01*
X206782811Y-97534698D01*
X207093880Y-97069151D01*
X207203113Y-96520000D01*
X207093880Y-95970849D01*
X206782811Y-95505302D01*
X206400725Y-95250000D01*
X206782811Y-94994698D01*
X207093880Y-94529151D01*
X207203113Y-93980000D01*
X207093880Y-93430849D01*
X206782811Y-92965302D01*
X206471726Y-92757441D01*
X206493493Y-92648015D01*
X206782811Y-92454698D01*
X207093880Y-91989151D01*
X207203113Y-91440000D01*
X207093880Y-90890849D01*
X206782811Y-90425302D01*
X206400725Y-90170000D01*
X206782811Y-89914698D01*
X207093880Y-89449151D01*
X207203113Y-88900000D01*
X211896887Y-88900000D01*
X212006120Y-89449151D01*
X212317189Y-89914698D01*
X212606507Y-90108015D01*
X212628274Y-90217441D01*
X212317189Y-90425302D01*
X212006120Y-90890849D01*
X211896887Y-91440000D01*
X212006120Y-91989151D01*
X212317189Y-92454698D01*
X212699275Y-92710000D01*
X212317189Y-92965302D01*
X212006120Y-93430849D01*
X211896887Y-93980000D01*
X212006120Y-94529151D01*
X212317189Y-94994698D01*
X212699275Y-95250000D01*
X212317189Y-95505302D01*
X212006120Y-95970849D01*
X211896887Y-96520000D01*
X212006120Y-97069151D01*
X212317189Y-97534698D01*
X212699275Y-97790000D01*
X212317189Y-98045302D01*
X212006120Y-98510849D01*
X211896887Y-99060000D01*
X212006120Y-99609151D01*
X212317189Y-100074698D01*
X212699275Y-100330000D01*
X212317189Y-100585302D01*
X212006120Y-101050849D01*
X211896887Y-101600000D01*
X212006120Y-102149151D01*
X212317189Y-102614698D01*
X212721703Y-102884986D01*
X212504866Y-102987611D01*
X212128959Y-103402577D01*
X211968096Y-103790961D01*
X212090085Y-104013000D01*
X213233000Y-104013000D01*
X213233000Y-103993000D01*
X213487000Y-103993000D01*
X213487000Y-104013000D01*
X214629915Y-104013000D01*
X214751904Y-103790961D01*
X214591041Y-103402577D01*
X214215134Y-102987611D01*
X213998297Y-102884986D01*
X214402811Y-102614698D01*
X214612214Y-102301305D01*
X214646838Y-102485317D01*
X214785910Y-102701441D01*
X214998110Y-102846431D01*
X215191788Y-102885652D01*
X215197852Y-102916139D01*
X215362599Y-103162701D01*
X221490000Y-109290102D01*
X221490000Y-109670504D01*
X221325345Y-109738538D01*
X220865154Y-110197927D01*
X220615794Y-110798453D01*
X220615226Y-111448694D01*
X220863538Y-112049655D01*
X221322927Y-112509846D01*
X221923453Y-112759206D01*
X222573694Y-112759774D01*
X223174655Y-112511462D01*
X223634846Y-112052073D01*
X223884206Y-111451547D01*
X223884774Y-110801306D01*
X223636462Y-110200345D01*
X223177073Y-109740154D01*
X223010000Y-109670779D01*
X223010000Y-108975300D01*
X222952148Y-108684461D01*
X222787401Y-108437899D01*
X217026669Y-102677167D01*
X217146431Y-102501890D01*
X217147012Y-102499016D01*
X217680590Y-102499016D01*
X217736271Y-102729611D01*
X218219078Y-102897622D01*
X218729428Y-102868083D01*
X219063729Y-102729611D01*
X219119410Y-102499016D01*
X218400000Y-101779605D01*
X217680590Y-102499016D01*
X217147012Y-102499016D01*
X217197440Y-102250000D01*
X217197440Y-102087615D01*
X217270389Y-102263729D01*
X217500984Y-102319410D01*
X218220395Y-101600000D01*
X218579605Y-101600000D01*
X219299016Y-102319410D01*
X219529611Y-102263729D01*
X219580614Y-102117163D01*
X221277443Y-102117163D01*
X221376042Y-102383965D01*
X221985582Y-102610401D01*
X222635377Y-102586341D01*
X223123958Y-102383965D01*
X223222557Y-102117163D01*
X222250000Y-101144605D01*
X221277443Y-102117163D01*
X219580614Y-102117163D01*
X219697622Y-101780922D01*
X219668083Y-101270572D01*
X219529611Y-100936271D01*
X219299016Y-100880590D01*
X218579605Y-101600000D01*
X218220395Y-101600000D01*
X217500984Y-100880590D01*
X217270389Y-100936271D01*
X217197440Y-101145902D01*
X217197440Y-100950000D01*
X217153162Y-100714683D01*
X217144347Y-100700984D01*
X217680590Y-100700984D01*
X218400000Y-101420395D01*
X219119410Y-100700984D01*
X219119313Y-100700582D01*
X220604599Y-100700582D01*
X220628659Y-101350377D01*
X220831035Y-101838958D01*
X221097837Y-101937557D01*
X222070395Y-100965000D01*
X221097837Y-99992443D01*
X220831035Y-100091042D01*
X220604599Y-100700582D01*
X219119313Y-100700582D01*
X219063729Y-100470389D01*
X218580922Y-100302378D01*
X218070572Y-100331917D01*
X217736271Y-100470389D01*
X217680590Y-100700984D01*
X217144347Y-100700984D01*
X217014090Y-100498559D01*
X216801890Y-100353569D01*
X216550000Y-100302560D01*
X215250000Y-100302560D01*
X215014683Y-100346838D01*
X214798559Y-100485910D01*
X214653569Y-100698110D01*
X214612778Y-100899540D01*
X214402811Y-100585302D01*
X214020725Y-100330000D01*
X214402811Y-100074698D01*
X214713880Y-99609151D01*
X214823113Y-99060000D01*
X214713880Y-98510849D01*
X214402811Y-98045302D01*
X214020725Y-97790000D01*
X214402811Y-97534698D01*
X214713880Y-97069151D01*
X214823113Y-96520000D01*
X214713880Y-95970849D01*
X214402811Y-95505302D01*
X214020725Y-95250000D01*
X214402811Y-94994698D01*
X214713880Y-94529151D01*
X214823113Y-93980000D01*
X214713880Y-93430849D01*
X214402811Y-92965302D01*
X214020725Y-92710000D01*
X214402811Y-92454698D01*
X214713880Y-91989151D01*
X214737816Y-91868818D01*
X217225090Y-94356092D01*
X216880345Y-94498538D01*
X216420154Y-94957927D01*
X216170794Y-95558453D01*
X216170226Y-96208694D01*
X216418538Y-96809655D01*
X216877927Y-97269846D01*
X217478453Y-97519206D01*
X218128694Y-97519774D01*
X218729655Y-97271462D01*
X219189846Y-96812073D01*
X219333973Y-96464975D01*
X222200230Y-99331232D01*
X221864623Y-99343659D01*
X221376042Y-99546035D01*
X221277443Y-99812837D01*
X222250000Y-100785395D01*
X222264142Y-100771252D01*
X222443748Y-100950858D01*
X222429605Y-100965000D01*
X223402163Y-101937557D01*
X223668965Y-101838958D01*
X223895401Y-101229418D01*
X223887595Y-101018597D01*
X224546200Y-101677202D01*
X224546200Y-102766800D01*
X224604052Y-103057639D01*
X224768799Y-103304201D01*
X226612175Y-105147577D01*
X226395729Y-105471511D01*
X226281655Y-106045000D01*
X226395729Y-106618489D01*
X226720585Y-107104670D01*
X227206766Y-107429526D01*
X227780255Y-107543600D01*
X228149745Y-107543600D01*
X228723234Y-107429526D01*
X229209415Y-107104670D01*
X229534271Y-106618489D01*
X229648345Y-106045000D01*
X229534271Y-105471511D01*
X229209415Y-104985330D01*
X228894634Y-104775000D01*
X229209415Y-104564670D01*
X229534271Y-104078489D01*
X229648345Y-103505000D01*
X229534271Y-102931511D01*
X229209415Y-102445330D01*
X228894634Y-102235000D01*
X229209415Y-102024670D01*
X229534271Y-101538489D01*
X229648345Y-100965000D01*
X229534271Y-100391511D01*
X229209415Y-99905330D01*
X228894634Y-99695000D01*
X229209415Y-99484670D01*
X229534271Y-98998489D01*
X229648345Y-98425000D01*
X229534271Y-97851511D01*
X229209415Y-97365330D01*
X228894634Y-97155000D01*
X229209415Y-96944670D01*
X229534271Y-96458489D01*
X229648345Y-95885000D01*
X229534271Y-95311511D01*
X229209415Y-94825330D01*
X228899931Y-94618539D01*
X229315732Y-94247036D01*
X229569709Y-93719791D01*
X229572358Y-93704026D01*
X229451217Y-93472000D01*
X228092000Y-93472000D01*
X228092000Y-93492000D01*
X227838000Y-93492000D01*
X227838000Y-93472000D01*
X226478783Y-93472000D01*
X226357642Y-93704026D01*
X226360291Y-93719791D01*
X226614268Y-94247036D01*
X227030069Y-94618539D01*
X226720585Y-94825330D01*
X226395729Y-95311511D01*
X226281655Y-95885000D01*
X226395729Y-96458489D01*
X226720585Y-96944670D01*
X227035366Y-97155000D01*
X226720585Y-97365330D01*
X226395729Y-97851511D01*
X226281655Y-98425000D01*
X226395729Y-98998489D01*
X226720585Y-99484670D01*
X227035366Y-99695000D01*
X226720585Y-99905330D01*
X226395729Y-100391511D01*
X226281655Y-100965000D01*
X226395729Y-101538489D01*
X226720585Y-102024670D01*
X227035366Y-102235000D01*
X226720585Y-102445330D01*
X226455804Y-102841602D01*
X226066200Y-102451998D01*
X226066200Y-101362400D01*
X226008348Y-101071561D01*
X225843601Y-100824999D01*
X221088769Y-96070167D01*
X221949838Y-96070167D01*
X222091883Y-96413943D01*
X222354673Y-96677192D01*
X222698201Y-96819838D01*
X223070167Y-96820162D01*
X223413943Y-96678117D01*
X223677192Y-96415327D01*
X223819838Y-96071799D01*
X223819879Y-96024923D01*
X224692401Y-95152401D01*
X224857148Y-94905840D01*
X224915000Y-94615000D01*
X224915000Y-92002463D01*
X224947192Y-91970327D01*
X225089838Y-91626799D01*
X225090162Y-91254833D01*
X224948117Y-90911057D01*
X224842245Y-90805000D01*
X226281655Y-90805000D01*
X226395729Y-91378489D01*
X226720585Y-91864670D01*
X227030069Y-92071461D01*
X226614268Y-92442964D01*
X226360291Y-92970209D01*
X226357642Y-92985974D01*
X226478783Y-93218000D01*
X227838000Y-93218000D01*
X227838000Y-93198000D01*
X228092000Y-93198000D01*
X228092000Y-93218000D01*
X229451217Y-93218000D01*
X229572358Y-92985974D01*
X229569709Y-92970209D01*
X229315732Y-92442964D01*
X228899931Y-92071461D01*
X229209415Y-91864670D01*
X229534271Y-91378489D01*
X229648345Y-90805000D01*
X229534271Y-90231511D01*
X229209415Y-89745330D01*
X229195087Y-89735757D01*
X229216317Y-89731762D01*
X229432441Y-89592690D01*
X229577431Y-89380490D01*
X229628440Y-89128600D01*
X229628440Y-87401400D01*
X229584162Y-87166083D01*
X229445090Y-86949959D01*
X229232890Y-86804969D01*
X228981000Y-86753960D01*
X226949000Y-86753960D01*
X226713683Y-86798238D01*
X226497559Y-86937310D01*
X226352569Y-87149510D01*
X226301560Y-87401400D01*
X226301560Y-89128600D01*
X226345838Y-89363917D01*
X226484910Y-89580041D01*
X226697110Y-89725031D01*
X226738439Y-89733400D01*
X226720585Y-89745330D01*
X226395729Y-90231511D01*
X226281655Y-90805000D01*
X224842245Y-90805000D01*
X224685327Y-90647808D01*
X224341799Y-90505162D01*
X223969833Y-90504838D01*
X223626057Y-90646883D01*
X223362808Y-90909673D01*
X223220162Y-91253201D01*
X223219838Y-91625167D01*
X223361883Y-91968943D01*
X223395000Y-92002118D01*
X223395000Y-94300198D01*
X222745320Y-94949878D01*
X222699833Y-94949838D01*
X222356057Y-95091883D01*
X222092808Y-95354673D01*
X221950162Y-95698201D01*
X221949838Y-96070167D01*
X221088769Y-96070167D01*
X214615295Y-89596693D01*
X214713880Y-89449151D01*
X214823113Y-88900000D01*
X214713880Y-88350849D01*
X214402811Y-87885302D01*
X213937264Y-87574233D01*
X213388113Y-87465000D01*
X213331887Y-87465000D01*
X212782736Y-87574233D01*
X212317189Y-87885302D01*
X212006120Y-88350849D01*
X211896887Y-88900000D01*
X207203113Y-88900000D01*
X207093880Y-88350849D01*
X206782811Y-87885302D01*
X206317264Y-87574233D01*
X205768113Y-87465000D01*
X205711887Y-87465000D01*
X205162736Y-87574233D01*
X204697189Y-87885302D01*
X204386120Y-88350849D01*
X204365760Y-88453205D01*
X204250005Y-88173057D01*
X203888845Y-87811265D01*
X203416724Y-87615223D01*
X202905519Y-87614777D01*
X202433057Y-87809995D01*
X202071265Y-88171155D01*
X201957440Y-88445276D01*
X201957440Y-88250000D01*
X201913162Y-88014683D01*
X201774090Y-87798559D01*
X201561890Y-87653569D01*
X201310000Y-87602560D01*
X200010000Y-87602560D01*
X199774683Y-87646838D01*
X199558559Y-87785910D01*
X199413569Y-87998110D01*
X199362560Y-88250000D01*
X199362560Y-89550000D01*
X199406838Y-89785317D01*
X199545910Y-90001441D01*
X199758110Y-90146431D01*
X200010000Y-90197440D01*
X200787758Y-90197440D01*
X199670198Y-91315000D01*
X192716900Y-91315000D01*
X192818345Y-90805000D01*
X192704271Y-90231511D01*
X192379415Y-89745330D01*
X192365087Y-89735757D01*
X192386317Y-89731762D01*
X192602441Y-89592690D01*
X192747431Y-89380490D01*
X192798440Y-89128600D01*
X192798440Y-87401400D01*
X192754162Y-87166083D01*
X192615090Y-86949959D01*
X192402890Y-86804969D01*
X192151000Y-86753960D01*
X190119000Y-86753960D01*
X189883683Y-86798238D01*
X189667559Y-86937310D01*
X189522569Y-87149510D01*
X189471560Y-87401400D01*
X189471560Y-89128600D01*
X189515838Y-89363917D01*
X189654910Y-89580041D01*
X189867110Y-89725031D01*
X189908439Y-89733400D01*
X189890585Y-89745330D01*
X189565729Y-90231511D01*
X189451655Y-90805000D01*
X189565729Y-91378489D01*
X189788584Y-91712014D01*
X187887299Y-93613299D01*
X187722552Y-93859861D01*
X187664700Y-94150700D01*
X185851000Y-94150700D01*
X185851000Y-86144749D01*
X186181847Y-86476174D01*
X187333674Y-86954454D01*
X188580854Y-86955543D01*
X189733515Y-86479273D01*
X190164846Y-86048694D01*
X216170226Y-86048694D01*
X216418538Y-86649655D01*
X216877927Y-87109846D01*
X217478453Y-87359206D01*
X218128694Y-87359774D01*
X218729655Y-87111462D01*
X219189846Y-86652073D01*
X219439206Y-86051547D01*
X219439774Y-85401306D01*
X219191462Y-84800345D01*
X218732073Y-84340154D01*
X218131547Y-84090794D01*
X217481306Y-84090226D01*
X216880345Y-84338538D01*
X216420154Y-84797927D01*
X216170794Y-85398453D01*
X216170226Y-86048694D01*
X190164846Y-86048694D01*
X190616174Y-85598153D01*
X191094454Y-84446326D01*
X191095543Y-83199146D01*
X190619273Y-82046485D01*
X190284373Y-81711000D01*
X228815251Y-81711000D01*
X228483826Y-82041847D01*
M02*
