G04 #@! TF.FileFunction,Copper,L2,Bot,Signal*
%FSLAX46Y46*%
G04 Gerber Fmt 4.6, Leading zero omitted, Abs format (unit mm)*
G04 Created by KiCad (PCBNEW 4.0.1-3.201512221401+6198~38~ubuntu15.10.1-stable) date lun 04 ene 2016 21:29:07 ART*
%MOMM*%
G01*
G04 APERTURE LIST*
%ADD10C,0.100000*%
%ADD11R,1.300000X1.300000*%
%ADD12C,1.300000*%
%ADD13C,1.998980*%
%ADD14O,1.600000X1.600000*%
%ADD15R,2.032000X1.727200*%
%ADD16O,2.032000X1.727200*%
%ADD17R,1.727200X1.727200*%
%ADD18O,1.727200X1.727200*%
%ADD19R,2.032000X2.032000*%
%ADD20O,2.032000X2.032000*%
%ADD21C,5.000000*%
%ADD22C,0.600000*%
%ADD23C,0.250000*%
%ADD24C,0.254000*%
G04 APERTURE END LIST*
D10*
D11*
X217170000Y-109220000D03*
D12*
X217170000Y-106720000D03*
D11*
X202184000Y-88900000D03*
D12*
X202184000Y-91400000D03*
D11*
X217170000Y-101600000D03*
D12*
X217170000Y-99100000D03*
D13*
X198882000Y-106172000D03*
X198882000Y-96012000D03*
X221488000Y-96266000D03*
X221488000Y-86106000D03*
X221234000Y-122174000D03*
X221234000Y-112014000D03*
D11*
X226695000Y-127000000D03*
D12*
X229195000Y-127000000D03*
D14*
X205740000Y-88900000D03*
X205740000Y-91440000D03*
X205740000Y-93980000D03*
X205740000Y-96520000D03*
X205740000Y-99060000D03*
X205740000Y-101600000D03*
X205740000Y-104140000D03*
X205740000Y-106680000D03*
X205740000Y-109220000D03*
X205740000Y-111760000D03*
X205740000Y-114300000D03*
X205740000Y-116840000D03*
X205740000Y-119380000D03*
X205740000Y-121920000D03*
X213360000Y-121920000D03*
X213360000Y-119380000D03*
X213360000Y-116840000D03*
X213360000Y-114300000D03*
X213360000Y-111760000D03*
X213360000Y-109220000D03*
X213360000Y-106680000D03*
X213360000Y-104140000D03*
X213360000Y-101600000D03*
X213360000Y-99060000D03*
X213360000Y-96520000D03*
X213360000Y-93980000D03*
X213360000Y-91440000D03*
X213360000Y-88900000D03*
D15*
X189865000Y-112395000D03*
D16*
X189865000Y-114935000D03*
X189865000Y-117475000D03*
X189865000Y-120015000D03*
X189865000Y-122555000D03*
X189865000Y-125095000D03*
D15*
X191135000Y-88265000D03*
D16*
X191135000Y-90805000D03*
X191135000Y-93345000D03*
X191135000Y-95885000D03*
X191135000Y-98425000D03*
X191135000Y-100965000D03*
X191135000Y-103505000D03*
X191135000Y-106045000D03*
D15*
X227965000Y-88265000D03*
D16*
X227965000Y-90805000D03*
X227965000Y-93345000D03*
X227965000Y-95885000D03*
X227965000Y-98425000D03*
X227965000Y-100965000D03*
X227965000Y-103505000D03*
X227965000Y-106045000D03*
D17*
X226695000Y-121920000D03*
D18*
X229235000Y-121920000D03*
X226695000Y-119380000D03*
X229235000Y-119380000D03*
X226695000Y-116840000D03*
X229235000Y-116840000D03*
X226695000Y-114300000D03*
X229235000Y-114300000D03*
D19*
X196850000Y-127000000D03*
D20*
X199390000Y-127000000D03*
D21*
X187960000Y-83820000D03*
X231140000Y-83820000D03*
D11*
X199390000Y-123825000D03*
D12*
X196890000Y-123825000D03*
D22*
X215392000Y-105410000D03*
X194310000Y-123952000D03*
X193294000Y-120650000D03*
X202946000Y-104140000D03*
X225298000Y-92456000D03*
X224028000Y-96012000D03*
D23*
X215392000Y-105410000D02*
X214122000Y-104140000D01*
X214122000Y-104140000D02*
X213360000Y-104140000D01*
X189865000Y-112395000D02*
X192151000Y-112395000D01*
X194437000Y-123825000D02*
X196890000Y-123825000D01*
X194310000Y-123952000D02*
X194437000Y-123825000D01*
X193294000Y-113538000D02*
X193294000Y-120650000D01*
X192151000Y-112395000D02*
X193294000Y-113538000D01*
X202946000Y-104140000D02*
X205740000Y-104140000D01*
X225298000Y-94742000D02*
X225298000Y-92456000D01*
X224028000Y-96012000D02*
X225298000Y-94742000D01*
X202184000Y-88900000D02*
X202184000Y-89925300D01*
X205740000Y-88900000D02*
X204564700Y-88900000D01*
X204564700Y-88900000D02*
X202861700Y-90603000D01*
X203209300Y-90950600D02*
X202861700Y-90603000D01*
X203209300Y-91840600D02*
X203209300Y-90950600D01*
X199037900Y-96012000D02*
X203209300Y-91840600D01*
X198882000Y-96012000D02*
X199037900Y-96012000D01*
X202861700Y-90603000D02*
X202184000Y-89925300D01*
X201509000Y-92075000D02*
X202184000Y-91400000D01*
X190463300Y-92075000D02*
X201509000Y-92075000D01*
X188462900Y-94075400D02*
X190463300Y-92075000D01*
X188462900Y-123073400D02*
X188462900Y-94075400D01*
X189245600Y-123856100D02*
X188462900Y-123073400D01*
X189865000Y-123856100D02*
X189245600Y-123856100D01*
X189865000Y-125095000D02*
X189865000Y-123856100D01*
X212994700Y-102775300D02*
X213360000Y-102775300D01*
X212169800Y-103600200D02*
X212994700Y-102775300D01*
X212169800Y-112274500D02*
X212169800Y-103600200D01*
X212925300Y-113030000D02*
X212169800Y-112274500D01*
X213830600Y-113030000D02*
X212925300Y-113030000D01*
X221234000Y-120433400D02*
X213830600Y-113030000D01*
X221234000Y-122174000D02*
X221234000Y-120433400D01*
X213360000Y-101600000D02*
X213360000Y-102775300D01*
X218195300Y-89398700D02*
X221488000Y-86106000D01*
X218195300Y-99549400D02*
X218195300Y-89398700D01*
X217170000Y-100574700D02*
X218195300Y-99549400D01*
X217170000Y-101600000D02*
X217170000Y-100574700D01*
X206105300Y-95155300D02*
X205740000Y-95155300D01*
X206950000Y-96000000D02*
X206105300Y-95155300D01*
X206950000Y-122449900D02*
X206950000Y-96000000D01*
X206280100Y-123119800D02*
X206950000Y-122449900D01*
X205221200Y-123119800D02*
X206280100Y-123119800D01*
X204656400Y-122555000D02*
X205221200Y-123119800D01*
X189865000Y-122555000D02*
X204656400Y-122555000D01*
X205740000Y-93980000D02*
X205740000Y-95155300D01*
X205215200Y-108044700D02*
X205740000Y-108044700D01*
X191754400Y-94583900D02*
X205215200Y-108044700D01*
X191135000Y-94583900D02*
X191754400Y-94583900D01*
X191135000Y-93345000D02*
X191135000Y-94583900D01*
X205740000Y-109220000D02*
X205740000Y-108044700D01*
X205292700Y-110584700D02*
X205740000Y-110584700D01*
X191831900Y-97123900D02*
X205292700Y-110584700D01*
X191135000Y-97123900D02*
X191831900Y-97123900D01*
X191135000Y-95885000D02*
X191135000Y-97123900D01*
X205740000Y-111760000D02*
X205740000Y-110584700D01*
X194880600Y-104615900D02*
X204564700Y-114300000D01*
X194880600Y-102790100D02*
X194880600Y-104615900D01*
X191754400Y-99663900D02*
X194880600Y-102790100D01*
X191135000Y-99663900D02*
X191754400Y-99663900D01*
X191135000Y-98425000D02*
X191135000Y-99663900D01*
X205740000Y-114300000D02*
X204564700Y-114300000D01*
X205215200Y-115664700D02*
X205740000Y-115664700D01*
X191754400Y-102203900D02*
X205215200Y-115664700D01*
X191135000Y-102203900D02*
X191754400Y-102203900D01*
X191135000Y-100965000D02*
X191135000Y-102203900D01*
X205740000Y-116840000D02*
X205740000Y-115664700D01*
X205215200Y-118204700D02*
X205740000Y-118204700D01*
X191754400Y-104743900D02*
X205215200Y-118204700D01*
X191135000Y-104743900D02*
X191754400Y-104743900D01*
X191135000Y-103505000D02*
X191135000Y-104743900D01*
X205740000Y-119380000D02*
X205740000Y-118204700D01*
X204595800Y-120744700D02*
X205740000Y-120744700D01*
X191135000Y-107283900D02*
X204595800Y-120744700D01*
X205740000Y-121920000D02*
X205740000Y-120744700D01*
X191135000Y-106045000D02*
X191135000Y-107283900D01*
X219615300Y-116840000D02*
X214535300Y-111760000D01*
X226695000Y-116840000D02*
X219615300Y-116840000D01*
X213360000Y-111760000D02*
X214535300Y-111760000D01*
X213725300Y-90075300D02*
X213360000Y-90075300D01*
X214724600Y-91074600D02*
X213725300Y-90075300D01*
X214724600Y-101052700D02*
X214724600Y-91074600D01*
X219716900Y-106045000D02*
X214724600Y-101052700D01*
X227965000Y-106045000D02*
X219716900Y-106045000D01*
X213360000Y-88900000D02*
X213360000Y-90075300D01*
D24*
G36*
X228483826Y-82041847D02*
X228005546Y-83193674D01*
X228004457Y-84440854D01*
X228480727Y-85593515D01*
X229361847Y-86476174D01*
X230513674Y-86954454D01*
X231760854Y-86955543D01*
X232913515Y-86479273D01*
X233249000Y-86144373D01*
X233249000Y-129109000D01*
X185851000Y-129109000D01*
X185851000Y-127285750D01*
X195199000Y-127285750D01*
X195199000Y-128142309D01*
X195295673Y-128375698D01*
X195474301Y-128554327D01*
X195707690Y-128651000D01*
X196564250Y-128651000D01*
X196723000Y-128492250D01*
X196723000Y-127127000D01*
X195357750Y-127127000D01*
X195199000Y-127285750D01*
X185851000Y-127285750D01*
X185851000Y-94075400D01*
X187702900Y-94075400D01*
X187702900Y-123073400D01*
X187760752Y-123364239D01*
X187925499Y-123610801D01*
X188512215Y-124197517D01*
X188295729Y-124521511D01*
X188181655Y-125095000D01*
X188295729Y-125668489D01*
X188620585Y-126154670D01*
X189106766Y-126479526D01*
X189680255Y-126593600D01*
X190049745Y-126593600D01*
X190623234Y-126479526D01*
X191109415Y-126154670D01*
X191307850Y-125857691D01*
X195199000Y-125857691D01*
X195199000Y-126714250D01*
X195357750Y-126873000D01*
X196723000Y-126873000D01*
X196723000Y-125507750D01*
X196977000Y-125507750D01*
X196977000Y-126873000D01*
X196997000Y-126873000D01*
X196997000Y-127127000D01*
X196977000Y-127127000D01*
X196977000Y-128492250D01*
X197135750Y-128651000D01*
X197992310Y-128651000D01*
X198225699Y-128554327D01*
X198404327Y-128375698D01*
X198421999Y-128333034D01*
X198758190Y-128557670D01*
X199390000Y-128683345D01*
X200021810Y-128557670D01*
X200557433Y-128199778D01*
X200915325Y-127664155D01*
X201041000Y-127032345D01*
X201041000Y-126967655D01*
X200918141Y-126350000D01*
X225397560Y-126350000D01*
X225397560Y-127650000D01*
X225441838Y-127885317D01*
X225580910Y-128101441D01*
X225793110Y-128246431D01*
X226045000Y-128297440D01*
X227345000Y-128297440D01*
X227580317Y-128253162D01*
X227796441Y-128114090D01*
X227941431Y-127901890D01*
X227942012Y-127899016D01*
X228475590Y-127899016D01*
X228531271Y-128129611D01*
X229014078Y-128297622D01*
X229524428Y-128268083D01*
X229858729Y-128129611D01*
X229914410Y-127899016D01*
X229195000Y-127179605D01*
X228475590Y-127899016D01*
X227942012Y-127899016D01*
X227992440Y-127650000D01*
X227992440Y-127487615D01*
X228065389Y-127663729D01*
X228295984Y-127719410D01*
X229015395Y-127000000D01*
X229374605Y-127000000D01*
X230094016Y-127719410D01*
X230324611Y-127663729D01*
X230492622Y-127180922D01*
X230463083Y-126670572D01*
X230324611Y-126336271D01*
X230094016Y-126280590D01*
X229374605Y-127000000D01*
X229015395Y-127000000D01*
X228295984Y-126280590D01*
X228065389Y-126336271D01*
X227992440Y-126545902D01*
X227992440Y-126350000D01*
X227948162Y-126114683D01*
X227939347Y-126100984D01*
X228475590Y-126100984D01*
X229195000Y-126820395D01*
X229914410Y-126100984D01*
X229858729Y-125870389D01*
X229375922Y-125702378D01*
X228865572Y-125731917D01*
X228531271Y-125870389D01*
X228475590Y-126100984D01*
X227939347Y-126100984D01*
X227809090Y-125898559D01*
X227596890Y-125753569D01*
X227345000Y-125702560D01*
X226045000Y-125702560D01*
X225809683Y-125746838D01*
X225593559Y-125885910D01*
X225448569Y-126098110D01*
X225397560Y-126350000D01*
X200918141Y-126350000D01*
X200915325Y-126335845D01*
X200557433Y-125800222D01*
X200021810Y-125442330D01*
X199390000Y-125316655D01*
X198758190Y-125442330D01*
X198421999Y-125666966D01*
X198404327Y-125624302D01*
X198225699Y-125445673D01*
X197992310Y-125349000D01*
X197135750Y-125349000D01*
X196977000Y-125507750D01*
X196723000Y-125507750D01*
X196564250Y-125349000D01*
X195707690Y-125349000D01*
X195474301Y-125445673D01*
X195295673Y-125624302D01*
X195199000Y-125857691D01*
X191307850Y-125857691D01*
X191434271Y-125668489D01*
X191548345Y-125095000D01*
X191474552Y-124724016D01*
X196170590Y-124724016D01*
X196226271Y-124954611D01*
X196709078Y-125122622D01*
X197219428Y-125093083D01*
X197553729Y-124954611D01*
X197609410Y-124724016D01*
X196890000Y-124004605D01*
X196170590Y-124724016D01*
X191474552Y-124724016D01*
X191434271Y-124521511D01*
X191109415Y-124035330D01*
X190794634Y-123825000D01*
X191109415Y-123614670D01*
X191309648Y-123315000D01*
X195706893Y-123315000D01*
X195592378Y-123644078D01*
X195621917Y-124154428D01*
X195760389Y-124488729D01*
X195990984Y-124544410D01*
X196710395Y-123825000D01*
X196696252Y-123810858D01*
X196875858Y-123631253D01*
X196890000Y-123645395D01*
X196904143Y-123631253D01*
X197083748Y-123810858D01*
X197069605Y-123825000D01*
X197789016Y-124544410D01*
X198019611Y-124488729D01*
X198092560Y-124279098D01*
X198092560Y-124475000D01*
X198136838Y-124710317D01*
X198275910Y-124926441D01*
X198488110Y-125071431D01*
X198740000Y-125122440D01*
X200040000Y-125122440D01*
X200275317Y-125078162D01*
X200491441Y-124939090D01*
X200636431Y-124726890D01*
X200687440Y-124475000D01*
X200687440Y-123315000D01*
X204341598Y-123315000D01*
X204683799Y-123657201D01*
X204930361Y-123821948D01*
X205221200Y-123879800D01*
X206280100Y-123879800D01*
X206570939Y-123821948D01*
X206817501Y-123657201D01*
X207487401Y-122987301D01*
X207652148Y-122740739D01*
X207710000Y-122449900D01*
X207710000Y-103600200D01*
X211409800Y-103600200D01*
X211409800Y-112274500D01*
X211467652Y-112565339D01*
X211632399Y-112811901D01*
X212232518Y-113412020D01*
X212006120Y-113750849D01*
X211896887Y-114300000D01*
X212006120Y-114849151D01*
X212317189Y-115314698D01*
X212699275Y-115570000D01*
X212317189Y-115825302D01*
X212006120Y-116290849D01*
X211896887Y-116840000D01*
X212006120Y-117389151D01*
X212317189Y-117854698D01*
X212699275Y-118110000D01*
X212317189Y-118365302D01*
X212006120Y-118830849D01*
X211896887Y-119380000D01*
X212006120Y-119929151D01*
X212317189Y-120394698D01*
X212699275Y-120650000D01*
X212317189Y-120905302D01*
X212006120Y-121370849D01*
X211896887Y-121920000D01*
X212006120Y-122469151D01*
X212317189Y-122934698D01*
X212782736Y-123245767D01*
X213331887Y-123355000D01*
X213388113Y-123355000D01*
X213937264Y-123245767D01*
X214402811Y-122934698D01*
X214713880Y-122469151D01*
X214823113Y-121920000D01*
X214713880Y-121370849D01*
X214402811Y-120905302D01*
X214020725Y-120650000D01*
X214402811Y-120394698D01*
X214713880Y-119929151D01*
X214823113Y-119380000D01*
X214713880Y-118830849D01*
X214402811Y-118365302D01*
X214020725Y-118110000D01*
X214402811Y-117854698D01*
X214713880Y-117389151D01*
X214823113Y-116840000D01*
X214713880Y-116290849D01*
X214402811Y-115825302D01*
X214020725Y-115570000D01*
X214402811Y-115314698D01*
X214658232Y-114932434D01*
X220453693Y-120727895D01*
X220309345Y-120787538D01*
X219849154Y-121246927D01*
X219599794Y-121847453D01*
X219599226Y-122497694D01*
X219847538Y-123098655D01*
X220306927Y-123558846D01*
X220907453Y-123808206D01*
X221557694Y-123808774D01*
X222158655Y-123560462D01*
X222618846Y-123101073D01*
X222868206Y-122500547D01*
X222868463Y-122205750D01*
X225196400Y-122205750D01*
X225196400Y-122909909D01*
X225293073Y-123143298D01*
X225471701Y-123321927D01*
X225705090Y-123418600D01*
X226409250Y-123418600D01*
X226568000Y-123259850D01*
X226568000Y-122047000D01*
X225355150Y-122047000D01*
X225196400Y-122205750D01*
X222868463Y-122205750D01*
X222868774Y-121850306D01*
X222620462Y-121249345D01*
X222161073Y-120789154D01*
X221994000Y-120719779D01*
X221994000Y-120433400D01*
X221936148Y-120142561D01*
X221771401Y-119895999D01*
X219440665Y-117565263D01*
X219615300Y-117600000D01*
X225415480Y-117600000D01*
X225635330Y-117929029D01*
X225906172Y-118110000D01*
X225635330Y-118290971D01*
X225310474Y-118777152D01*
X225196400Y-119350641D01*
X225196400Y-119409359D01*
X225310474Y-119982848D01*
X225625526Y-120454356D01*
X225471701Y-120518073D01*
X225293073Y-120696702D01*
X225196400Y-120930091D01*
X225196400Y-121634250D01*
X225355150Y-121793000D01*
X226568000Y-121793000D01*
X226568000Y-121773000D01*
X226822000Y-121773000D01*
X226822000Y-121793000D01*
X226842000Y-121793000D01*
X226842000Y-122047000D01*
X226822000Y-122047000D01*
X226822000Y-123259850D01*
X226980750Y-123418600D01*
X227684910Y-123418600D01*
X227918299Y-123321927D01*
X228096927Y-123143298D01*
X228161263Y-122987977D01*
X228175330Y-123009029D01*
X228661511Y-123333885D01*
X229235000Y-123447959D01*
X229808489Y-123333885D01*
X230294670Y-123009029D01*
X230619526Y-122522848D01*
X230733600Y-121949359D01*
X230733600Y-121890641D01*
X230619526Y-121317152D01*
X230294670Y-120830971D01*
X230023828Y-120650000D01*
X230294670Y-120469029D01*
X230619526Y-119982848D01*
X230733600Y-119409359D01*
X230733600Y-119350641D01*
X230619526Y-118777152D01*
X230294670Y-118290971D01*
X230023828Y-118110000D01*
X230294670Y-117929029D01*
X230619526Y-117442848D01*
X230733600Y-116869359D01*
X230733600Y-116810641D01*
X230619526Y-116237152D01*
X230294670Y-115750971D01*
X230023828Y-115570000D01*
X230294670Y-115389029D01*
X230619526Y-114902848D01*
X230733600Y-114329359D01*
X230733600Y-114270641D01*
X230619526Y-113697152D01*
X230294670Y-113210971D01*
X229808489Y-112886115D01*
X229235000Y-112772041D01*
X228661511Y-112886115D01*
X228175330Y-113210971D01*
X227965000Y-113525752D01*
X227754670Y-113210971D01*
X227268489Y-112886115D01*
X226695000Y-112772041D01*
X226121511Y-112886115D01*
X225635330Y-113210971D01*
X225310474Y-113697152D01*
X225196400Y-114270641D01*
X225196400Y-114329359D01*
X225310474Y-114902848D01*
X225635330Y-115389029D01*
X225906172Y-115570000D01*
X225635330Y-115750971D01*
X225415480Y-116080000D01*
X219930102Y-116080000D01*
X217016265Y-113166163D01*
X220261443Y-113166163D01*
X220360042Y-113432965D01*
X220969582Y-113659401D01*
X221619377Y-113635341D01*
X222107958Y-113432965D01*
X222206557Y-113166163D01*
X221234000Y-112193605D01*
X220261443Y-113166163D01*
X217016265Y-113166163D01*
X215599684Y-111749582D01*
X219588599Y-111749582D01*
X219612659Y-112399377D01*
X219815035Y-112887958D01*
X220081837Y-112986557D01*
X221054395Y-112014000D01*
X221413605Y-112014000D01*
X222386163Y-112986557D01*
X222652965Y-112887958D01*
X222879401Y-112278418D01*
X222855341Y-111628623D01*
X222652965Y-111140042D01*
X222386163Y-111041443D01*
X221413605Y-112014000D01*
X221054395Y-112014000D01*
X220081837Y-111041443D01*
X219815035Y-111140042D01*
X219588599Y-111749582D01*
X215599684Y-111749582D01*
X215072701Y-111222599D01*
X214826139Y-111057852D01*
X214578773Y-111008647D01*
X214480678Y-110861837D01*
X220261443Y-110861837D01*
X221234000Y-111834395D01*
X222206557Y-110861837D01*
X222107958Y-110595035D01*
X221498418Y-110368599D01*
X220848623Y-110392659D01*
X220360042Y-110595035D01*
X220261443Y-110861837D01*
X214480678Y-110861837D01*
X214402811Y-110745302D01*
X214020725Y-110490000D01*
X214402811Y-110234698D01*
X214713880Y-109769151D01*
X214766273Y-109505750D01*
X215885000Y-109505750D01*
X215885000Y-109996309D01*
X215981673Y-110229698D01*
X216160301Y-110408327D01*
X216393690Y-110505000D01*
X216884250Y-110505000D01*
X217043000Y-110346250D01*
X217043000Y-109347000D01*
X217297000Y-109347000D01*
X217297000Y-110346250D01*
X217455750Y-110505000D01*
X217946310Y-110505000D01*
X218179699Y-110408327D01*
X218358327Y-110229698D01*
X218455000Y-109996309D01*
X218455000Y-109505750D01*
X218296250Y-109347000D01*
X217297000Y-109347000D01*
X217043000Y-109347000D01*
X216043750Y-109347000D01*
X215885000Y-109505750D01*
X214766273Y-109505750D01*
X214823113Y-109220000D01*
X214713880Y-108670849D01*
X214402811Y-108205302D01*
X214020725Y-107950000D01*
X214402811Y-107694698D01*
X214713880Y-107229151D01*
X214764537Y-106974481D01*
X215884777Y-106974481D01*
X216079995Y-107446943D01*
X216441155Y-107808735D01*
X216745235Y-107935000D01*
X216393690Y-107935000D01*
X216160301Y-108031673D01*
X215981673Y-108210302D01*
X215885000Y-108443691D01*
X215885000Y-108934250D01*
X216043750Y-109093000D01*
X217043000Y-109093000D01*
X217043000Y-109073000D01*
X217297000Y-109073000D01*
X217297000Y-109093000D01*
X218296250Y-109093000D01*
X218455000Y-108934250D01*
X218455000Y-108443691D01*
X218358327Y-108210302D01*
X218179699Y-108031673D01*
X217946310Y-107935000D01*
X217594433Y-107935000D01*
X217896943Y-107810005D01*
X218258735Y-107448845D01*
X218454777Y-106976724D01*
X218455223Y-106465519D01*
X218260005Y-105993057D01*
X217898845Y-105631265D01*
X217426724Y-105435223D01*
X216915519Y-105434777D01*
X216443057Y-105629995D01*
X216081265Y-105991155D01*
X215885223Y-106463276D01*
X215884777Y-106974481D01*
X214764537Y-106974481D01*
X214823113Y-106680000D01*
X214713880Y-106130849D01*
X214402811Y-105665302D01*
X213998297Y-105395014D01*
X214215134Y-105292389D01*
X214591041Y-104877423D01*
X214751904Y-104489039D01*
X214629915Y-104267000D01*
X213487000Y-104267000D01*
X213487000Y-104287000D01*
X213233000Y-104287000D01*
X213233000Y-104267000D01*
X213213000Y-104267000D01*
X213213000Y-104013000D01*
X213233000Y-104013000D01*
X213233000Y-103993000D01*
X213487000Y-103993000D01*
X213487000Y-104013000D01*
X214629915Y-104013000D01*
X214751904Y-103790961D01*
X214591041Y-103402577D01*
X214215134Y-102987611D01*
X214089588Y-102928192D01*
X214113493Y-102808015D01*
X214402811Y-102614698D01*
X214713880Y-102149151D01*
X214719250Y-102122152D01*
X219179499Y-106582401D01*
X219426060Y-106747148D01*
X219716900Y-106805000D01*
X226520352Y-106805000D01*
X226720585Y-107104670D01*
X227206766Y-107429526D01*
X227780255Y-107543600D01*
X228149745Y-107543600D01*
X228723234Y-107429526D01*
X229209415Y-107104670D01*
X229534271Y-106618489D01*
X229648345Y-106045000D01*
X229534271Y-105471511D01*
X229209415Y-104985330D01*
X228894634Y-104775000D01*
X229209415Y-104564670D01*
X229534271Y-104078489D01*
X229648345Y-103505000D01*
X229534271Y-102931511D01*
X229209415Y-102445330D01*
X228894634Y-102235000D01*
X229209415Y-102024670D01*
X229534271Y-101538489D01*
X229648345Y-100965000D01*
X229534271Y-100391511D01*
X229209415Y-99905330D01*
X228894634Y-99695000D01*
X229209415Y-99484670D01*
X229534271Y-98998489D01*
X229648345Y-98425000D01*
X229534271Y-97851511D01*
X229209415Y-97365330D01*
X228894634Y-97155000D01*
X229209415Y-96944670D01*
X229534271Y-96458489D01*
X229648345Y-95885000D01*
X229534271Y-95311511D01*
X229209415Y-94825330D01*
X228899931Y-94618539D01*
X229315732Y-94247036D01*
X229569709Y-93719791D01*
X229572358Y-93704026D01*
X229451217Y-93472000D01*
X228092000Y-93472000D01*
X228092000Y-93492000D01*
X227838000Y-93492000D01*
X227838000Y-93472000D01*
X226478783Y-93472000D01*
X226357642Y-93704026D01*
X226360291Y-93719791D01*
X226614268Y-94247036D01*
X227030069Y-94618539D01*
X226720585Y-94825330D01*
X226395729Y-95311511D01*
X226281655Y-95885000D01*
X226395729Y-96458489D01*
X226720585Y-96944670D01*
X227035366Y-97155000D01*
X226720585Y-97365330D01*
X226395729Y-97851511D01*
X226281655Y-98425000D01*
X226395729Y-98998489D01*
X226720585Y-99484670D01*
X227035366Y-99695000D01*
X226720585Y-99905330D01*
X226395729Y-100391511D01*
X226281655Y-100965000D01*
X226395729Y-101538489D01*
X226720585Y-102024670D01*
X227035366Y-102235000D01*
X226720585Y-102445330D01*
X226395729Y-102931511D01*
X226281655Y-103505000D01*
X226395729Y-104078489D01*
X226720585Y-104564670D01*
X227035366Y-104775000D01*
X226720585Y-104985330D01*
X226520352Y-105285000D01*
X220031702Y-105285000D01*
X217644142Y-102897440D01*
X217820000Y-102897440D01*
X218055317Y-102853162D01*
X218271441Y-102714090D01*
X218416431Y-102501890D01*
X218467440Y-102250000D01*
X218467440Y-100950000D01*
X218423162Y-100714683D01*
X218298519Y-100520983D01*
X218732701Y-100086801D01*
X218897448Y-99840240D01*
X218955300Y-99549400D01*
X218955300Y-96589694D01*
X219853226Y-96589694D01*
X220101538Y-97190655D01*
X220560927Y-97650846D01*
X221161453Y-97900206D01*
X221811694Y-97900774D01*
X222412655Y-97652462D01*
X222872846Y-97193073D01*
X223122206Y-96592547D01*
X223122489Y-96268927D01*
X223234883Y-96540943D01*
X223497673Y-96804192D01*
X223841201Y-96946838D01*
X224213167Y-96947162D01*
X224556943Y-96805117D01*
X224820192Y-96542327D01*
X224962838Y-96198799D01*
X224962879Y-96151923D01*
X225835401Y-95279401D01*
X226000148Y-95032840D01*
X226058000Y-94742000D01*
X226058000Y-93018463D01*
X226090192Y-92986327D01*
X226232838Y-92642799D01*
X226233162Y-92270833D01*
X226091117Y-91927057D01*
X225828327Y-91663808D01*
X225484799Y-91521162D01*
X225112833Y-91520838D01*
X224769057Y-91662883D01*
X224505808Y-91925673D01*
X224363162Y-92269201D01*
X224362838Y-92641167D01*
X224504883Y-92984943D01*
X224538000Y-93018118D01*
X224538000Y-94427198D01*
X223888320Y-95076878D01*
X223842833Y-95076838D01*
X223499057Y-95218883D01*
X223235808Y-95481673D01*
X223093162Y-95825201D01*
X223093123Y-95870544D01*
X222874462Y-95341345D01*
X222415073Y-94881154D01*
X221814547Y-94631794D01*
X221164306Y-94631226D01*
X220563345Y-94879538D01*
X220103154Y-95338927D01*
X219853794Y-95939453D01*
X219853226Y-96589694D01*
X218955300Y-96589694D01*
X218955300Y-90805000D01*
X226281655Y-90805000D01*
X226395729Y-91378489D01*
X226720585Y-91864670D01*
X227030069Y-92071461D01*
X226614268Y-92442964D01*
X226360291Y-92970209D01*
X226357642Y-92985974D01*
X226478783Y-93218000D01*
X227838000Y-93218000D01*
X227838000Y-93198000D01*
X228092000Y-93198000D01*
X228092000Y-93218000D01*
X229451217Y-93218000D01*
X229572358Y-92985974D01*
X229569709Y-92970209D01*
X229315732Y-92442964D01*
X228899931Y-92071461D01*
X229209415Y-91864670D01*
X229534271Y-91378489D01*
X229648345Y-90805000D01*
X229534271Y-90231511D01*
X229209415Y-89745330D01*
X229195087Y-89735757D01*
X229216317Y-89731762D01*
X229432441Y-89592690D01*
X229577431Y-89380490D01*
X229628440Y-89128600D01*
X229628440Y-87401400D01*
X229584162Y-87166083D01*
X229445090Y-86949959D01*
X229232890Y-86804969D01*
X228981000Y-86753960D01*
X226949000Y-86753960D01*
X226713683Y-86798238D01*
X226497559Y-86937310D01*
X226352569Y-87149510D01*
X226301560Y-87401400D01*
X226301560Y-89128600D01*
X226345838Y-89363917D01*
X226484910Y-89580041D01*
X226697110Y-89725031D01*
X226738439Y-89733400D01*
X226720585Y-89745330D01*
X226395729Y-90231511D01*
X226281655Y-90805000D01*
X218955300Y-90805000D01*
X218955300Y-89713502D01*
X220996917Y-87671885D01*
X221161453Y-87740206D01*
X221811694Y-87740774D01*
X222412655Y-87492462D01*
X222872846Y-87033073D01*
X223122206Y-86432547D01*
X223122774Y-85782306D01*
X222874462Y-85181345D01*
X222415073Y-84721154D01*
X221814547Y-84471794D01*
X221164306Y-84471226D01*
X220563345Y-84719538D01*
X220103154Y-85178927D01*
X219853794Y-85779453D01*
X219853226Y-86429694D01*
X219922309Y-86596889D01*
X217657899Y-88861299D01*
X217493152Y-89107861D01*
X217435300Y-89398700D01*
X217435300Y-97831741D01*
X217350922Y-97802378D01*
X216840572Y-97831917D01*
X216506271Y-97970389D01*
X216450590Y-98200984D01*
X217170000Y-98920395D01*
X217184143Y-98906253D01*
X217363748Y-99085858D01*
X217349605Y-99100000D01*
X217363748Y-99114143D01*
X217184142Y-99293748D01*
X217170000Y-99279605D01*
X216450590Y-99999016D01*
X216505695Y-100227225D01*
X216467852Y-100283861D01*
X216461960Y-100313481D01*
X216284683Y-100346838D01*
X216068559Y-100485910D01*
X215923569Y-100698110D01*
X215872560Y-100950000D01*
X215872560Y-101125858D01*
X215484600Y-100737898D01*
X215484600Y-98919078D01*
X215872378Y-98919078D01*
X215901917Y-99429428D01*
X216040389Y-99763729D01*
X216270984Y-99819410D01*
X216990395Y-99100000D01*
X216270984Y-98380590D01*
X216040389Y-98436271D01*
X215872378Y-98919078D01*
X215484600Y-98919078D01*
X215484600Y-91074600D01*
X215426748Y-90783761D01*
X215262001Y-90537199D01*
X214497615Y-89772813D01*
X214713880Y-89449151D01*
X214823113Y-88900000D01*
X214713880Y-88350849D01*
X214402811Y-87885302D01*
X213937264Y-87574233D01*
X213388113Y-87465000D01*
X213331887Y-87465000D01*
X212782736Y-87574233D01*
X212317189Y-87885302D01*
X212006120Y-88350849D01*
X211896887Y-88900000D01*
X212006120Y-89449151D01*
X212317189Y-89914698D01*
X212606507Y-90108015D01*
X212628274Y-90217441D01*
X212317189Y-90425302D01*
X212006120Y-90890849D01*
X211896887Y-91440000D01*
X212006120Y-91989151D01*
X212317189Y-92454698D01*
X212699275Y-92710000D01*
X212317189Y-92965302D01*
X212006120Y-93430849D01*
X211896887Y-93980000D01*
X212006120Y-94529151D01*
X212317189Y-94994698D01*
X212699275Y-95250000D01*
X212317189Y-95505302D01*
X212006120Y-95970849D01*
X211896887Y-96520000D01*
X212006120Y-97069151D01*
X212317189Y-97534698D01*
X212699275Y-97790000D01*
X212317189Y-98045302D01*
X212006120Y-98510849D01*
X211896887Y-99060000D01*
X212006120Y-99609151D01*
X212317189Y-100074698D01*
X212699275Y-100330000D01*
X212317189Y-100585302D01*
X212006120Y-101050849D01*
X211896887Y-101600000D01*
X212006120Y-102149151D01*
X212222385Y-102472813D01*
X211632399Y-103062799D01*
X211467652Y-103309361D01*
X211409800Y-103600200D01*
X207710000Y-103600200D01*
X207710000Y-96000000D01*
X207652148Y-95709161D01*
X207652148Y-95709160D01*
X207487401Y-95462599D01*
X206877615Y-94852813D01*
X207093880Y-94529151D01*
X207203113Y-93980000D01*
X207093880Y-93430849D01*
X206782811Y-92965302D01*
X206400725Y-92710000D01*
X206782811Y-92454698D01*
X207093880Y-91989151D01*
X207203113Y-91440000D01*
X207093880Y-90890849D01*
X206782811Y-90425302D01*
X206400725Y-90170000D01*
X206782811Y-89914698D01*
X207093880Y-89449151D01*
X207203113Y-88900000D01*
X207093880Y-88350849D01*
X206782811Y-87885302D01*
X206317264Y-87574233D01*
X205768113Y-87465000D01*
X205711887Y-87465000D01*
X205162736Y-87574233D01*
X204697189Y-87885302D01*
X204521227Y-88148647D01*
X204273861Y-88197852D01*
X204027299Y-88362599D01*
X203481440Y-88908458D01*
X203481440Y-88250000D01*
X203437162Y-88014683D01*
X203298090Y-87798559D01*
X203085890Y-87653569D01*
X202834000Y-87602560D01*
X201534000Y-87602560D01*
X201298683Y-87646838D01*
X201082559Y-87785910D01*
X200937569Y-87998110D01*
X200886560Y-88250000D01*
X200886560Y-89550000D01*
X200930838Y-89785317D01*
X201069910Y-90001441D01*
X201282110Y-90146431D01*
X201475788Y-90185652D01*
X201481852Y-90216139D01*
X201525632Y-90281660D01*
X201457057Y-90309995D01*
X201095265Y-90671155D01*
X200899223Y-91143276D01*
X200899073Y-91315000D01*
X192716900Y-91315000D01*
X192818345Y-90805000D01*
X192704271Y-90231511D01*
X192379415Y-89745330D01*
X192365087Y-89735757D01*
X192386317Y-89731762D01*
X192602441Y-89592690D01*
X192747431Y-89380490D01*
X192798440Y-89128600D01*
X192798440Y-87401400D01*
X192754162Y-87166083D01*
X192615090Y-86949959D01*
X192402890Y-86804969D01*
X192151000Y-86753960D01*
X190119000Y-86753960D01*
X189883683Y-86798238D01*
X189667559Y-86937310D01*
X189522569Y-87149510D01*
X189471560Y-87401400D01*
X189471560Y-89128600D01*
X189515838Y-89363917D01*
X189654910Y-89580041D01*
X189867110Y-89725031D01*
X189908439Y-89733400D01*
X189890585Y-89745330D01*
X189565729Y-90231511D01*
X189451655Y-90805000D01*
X189565729Y-91378489D01*
X189773723Y-91689775D01*
X187925499Y-93537999D01*
X187760752Y-93784561D01*
X187702900Y-94075400D01*
X185851000Y-94075400D01*
X185851000Y-86144749D01*
X186181847Y-86476174D01*
X187333674Y-86954454D01*
X188580854Y-86955543D01*
X189733515Y-86479273D01*
X190616174Y-85598153D01*
X191094454Y-84446326D01*
X191095543Y-83199146D01*
X190619273Y-82046485D01*
X190284373Y-81711000D01*
X228815251Y-81711000D01*
X228483826Y-82041847D01*
X228483826Y-82041847D01*
G37*
X228483826Y-82041847D02*
X228005546Y-83193674D01*
X228004457Y-84440854D01*
X228480727Y-85593515D01*
X229361847Y-86476174D01*
X230513674Y-86954454D01*
X231760854Y-86955543D01*
X232913515Y-86479273D01*
X233249000Y-86144373D01*
X233249000Y-129109000D01*
X185851000Y-129109000D01*
X185851000Y-127285750D01*
X195199000Y-127285750D01*
X195199000Y-128142309D01*
X195295673Y-128375698D01*
X195474301Y-128554327D01*
X195707690Y-128651000D01*
X196564250Y-128651000D01*
X196723000Y-128492250D01*
X196723000Y-127127000D01*
X195357750Y-127127000D01*
X195199000Y-127285750D01*
X185851000Y-127285750D01*
X185851000Y-94075400D01*
X187702900Y-94075400D01*
X187702900Y-123073400D01*
X187760752Y-123364239D01*
X187925499Y-123610801D01*
X188512215Y-124197517D01*
X188295729Y-124521511D01*
X188181655Y-125095000D01*
X188295729Y-125668489D01*
X188620585Y-126154670D01*
X189106766Y-126479526D01*
X189680255Y-126593600D01*
X190049745Y-126593600D01*
X190623234Y-126479526D01*
X191109415Y-126154670D01*
X191307850Y-125857691D01*
X195199000Y-125857691D01*
X195199000Y-126714250D01*
X195357750Y-126873000D01*
X196723000Y-126873000D01*
X196723000Y-125507750D01*
X196977000Y-125507750D01*
X196977000Y-126873000D01*
X196997000Y-126873000D01*
X196997000Y-127127000D01*
X196977000Y-127127000D01*
X196977000Y-128492250D01*
X197135750Y-128651000D01*
X197992310Y-128651000D01*
X198225699Y-128554327D01*
X198404327Y-128375698D01*
X198421999Y-128333034D01*
X198758190Y-128557670D01*
X199390000Y-128683345D01*
X200021810Y-128557670D01*
X200557433Y-128199778D01*
X200915325Y-127664155D01*
X201041000Y-127032345D01*
X201041000Y-126967655D01*
X200918141Y-126350000D01*
X225397560Y-126350000D01*
X225397560Y-127650000D01*
X225441838Y-127885317D01*
X225580910Y-128101441D01*
X225793110Y-128246431D01*
X226045000Y-128297440D01*
X227345000Y-128297440D01*
X227580317Y-128253162D01*
X227796441Y-128114090D01*
X227941431Y-127901890D01*
X227942012Y-127899016D01*
X228475590Y-127899016D01*
X228531271Y-128129611D01*
X229014078Y-128297622D01*
X229524428Y-128268083D01*
X229858729Y-128129611D01*
X229914410Y-127899016D01*
X229195000Y-127179605D01*
X228475590Y-127899016D01*
X227942012Y-127899016D01*
X227992440Y-127650000D01*
X227992440Y-127487615D01*
X228065389Y-127663729D01*
X228295984Y-127719410D01*
X229015395Y-127000000D01*
X229374605Y-127000000D01*
X230094016Y-127719410D01*
X230324611Y-127663729D01*
X230492622Y-127180922D01*
X230463083Y-126670572D01*
X230324611Y-126336271D01*
X230094016Y-126280590D01*
X229374605Y-127000000D01*
X229015395Y-127000000D01*
X228295984Y-126280590D01*
X228065389Y-126336271D01*
X227992440Y-126545902D01*
X227992440Y-126350000D01*
X227948162Y-126114683D01*
X227939347Y-126100984D01*
X228475590Y-126100984D01*
X229195000Y-126820395D01*
X229914410Y-126100984D01*
X229858729Y-125870389D01*
X229375922Y-125702378D01*
X228865572Y-125731917D01*
X228531271Y-125870389D01*
X228475590Y-126100984D01*
X227939347Y-126100984D01*
X227809090Y-125898559D01*
X227596890Y-125753569D01*
X227345000Y-125702560D01*
X226045000Y-125702560D01*
X225809683Y-125746838D01*
X225593559Y-125885910D01*
X225448569Y-126098110D01*
X225397560Y-126350000D01*
X200918141Y-126350000D01*
X200915325Y-126335845D01*
X200557433Y-125800222D01*
X200021810Y-125442330D01*
X199390000Y-125316655D01*
X198758190Y-125442330D01*
X198421999Y-125666966D01*
X198404327Y-125624302D01*
X198225699Y-125445673D01*
X197992310Y-125349000D01*
X197135750Y-125349000D01*
X196977000Y-125507750D01*
X196723000Y-125507750D01*
X196564250Y-125349000D01*
X195707690Y-125349000D01*
X195474301Y-125445673D01*
X195295673Y-125624302D01*
X195199000Y-125857691D01*
X191307850Y-125857691D01*
X191434271Y-125668489D01*
X191548345Y-125095000D01*
X191474552Y-124724016D01*
X196170590Y-124724016D01*
X196226271Y-124954611D01*
X196709078Y-125122622D01*
X197219428Y-125093083D01*
X197553729Y-124954611D01*
X197609410Y-124724016D01*
X196890000Y-124004605D01*
X196170590Y-124724016D01*
X191474552Y-124724016D01*
X191434271Y-124521511D01*
X191109415Y-124035330D01*
X190794634Y-123825000D01*
X191109415Y-123614670D01*
X191309648Y-123315000D01*
X195706893Y-123315000D01*
X195592378Y-123644078D01*
X195621917Y-124154428D01*
X195760389Y-124488729D01*
X195990984Y-124544410D01*
X196710395Y-123825000D01*
X196696252Y-123810858D01*
X196875858Y-123631253D01*
X196890000Y-123645395D01*
X196904143Y-123631253D01*
X197083748Y-123810858D01*
X197069605Y-123825000D01*
X197789016Y-124544410D01*
X198019611Y-124488729D01*
X198092560Y-124279098D01*
X198092560Y-124475000D01*
X198136838Y-124710317D01*
X198275910Y-124926441D01*
X198488110Y-125071431D01*
X198740000Y-125122440D01*
X200040000Y-125122440D01*
X200275317Y-125078162D01*
X200491441Y-124939090D01*
X200636431Y-124726890D01*
X200687440Y-124475000D01*
X200687440Y-123315000D01*
X204341598Y-123315000D01*
X204683799Y-123657201D01*
X204930361Y-123821948D01*
X205221200Y-123879800D01*
X206280100Y-123879800D01*
X206570939Y-123821948D01*
X206817501Y-123657201D01*
X207487401Y-122987301D01*
X207652148Y-122740739D01*
X207710000Y-122449900D01*
X207710000Y-103600200D01*
X211409800Y-103600200D01*
X211409800Y-112274500D01*
X211467652Y-112565339D01*
X211632399Y-112811901D01*
X212232518Y-113412020D01*
X212006120Y-113750849D01*
X211896887Y-114300000D01*
X212006120Y-114849151D01*
X212317189Y-115314698D01*
X212699275Y-115570000D01*
X212317189Y-115825302D01*
X212006120Y-116290849D01*
X211896887Y-116840000D01*
X212006120Y-117389151D01*
X212317189Y-117854698D01*
X212699275Y-118110000D01*
X212317189Y-118365302D01*
X212006120Y-118830849D01*
X211896887Y-119380000D01*
X212006120Y-119929151D01*
X212317189Y-120394698D01*
X212699275Y-120650000D01*
X212317189Y-120905302D01*
X212006120Y-121370849D01*
X211896887Y-121920000D01*
X212006120Y-122469151D01*
X212317189Y-122934698D01*
X212782736Y-123245767D01*
X213331887Y-123355000D01*
X213388113Y-123355000D01*
X213937264Y-123245767D01*
X214402811Y-122934698D01*
X214713880Y-122469151D01*
X214823113Y-121920000D01*
X214713880Y-121370849D01*
X214402811Y-120905302D01*
X214020725Y-120650000D01*
X214402811Y-120394698D01*
X214713880Y-119929151D01*
X214823113Y-119380000D01*
X214713880Y-118830849D01*
X214402811Y-118365302D01*
X214020725Y-118110000D01*
X214402811Y-117854698D01*
X214713880Y-117389151D01*
X214823113Y-116840000D01*
X214713880Y-116290849D01*
X214402811Y-115825302D01*
X214020725Y-115570000D01*
X214402811Y-115314698D01*
X214658232Y-114932434D01*
X220453693Y-120727895D01*
X220309345Y-120787538D01*
X219849154Y-121246927D01*
X219599794Y-121847453D01*
X219599226Y-122497694D01*
X219847538Y-123098655D01*
X220306927Y-123558846D01*
X220907453Y-123808206D01*
X221557694Y-123808774D01*
X222158655Y-123560462D01*
X222618846Y-123101073D01*
X222868206Y-122500547D01*
X222868463Y-122205750D01*
X225196400Y-122205750D01*
X225196400Y-122909909D01*
X225293073Y-123143298D01*
X225471701Y-123321927D01*
X225705090Y-123418600D01*
X226409250Y-123418600D01*
X226568000Y-123259850D01*
X226568000Y-122047000D01*
X225355150Y-122047000D01*
X225196400Y-122205750D01*
X222868463Y-122205750D01*
X222868774Y-121850306D01*
X222620462Y-121249345D01*
X222161073Y-120789154D01*
X221994000Y-120719779D01*
X221994000Y-120433400D01*
X221936148Y-120142561D01*
X221771401Y-119895999D01*
X219440665Y-117565263D01*
X219615300Y-117600000D01*
X225415480Y-117600000D01*
X225635330Y-117929029D01*
X225906172Y-118110000D01*
X225635330Y-118290971D01*
X225310474Y-118777152D01*
X225196400Y-119350641D01*
X225196400Y-119409359D01*
X225310474Y-119982848D01*
X225625526Y-120454356D01*
X225471701Y-120518073D01*
X225293073Y-120696702D01*
X225196400Y-120930091D01*
X225196400Y-121634250D01*
X225355150Y-121793000D01*
X226568000Y-121793000D01*
X226568000Y-121773000D01*
X226822000Y-121773000D01*
X226822000Y-121793000D01*
X226842000Y-121793000D01*
X226842000Y-122047000D01*
X226822000Y-122047000D01*
X226822000Y-123259850D01*
X226980750Y-123418600D01*
X227684910Y-123418600D01*
X227918299Y-123321927D01*
X228096927Y-123143298D01*
X228161263Y-122987977D01*
X228175330Y-123009029D01*
X228661511Y-123333885D01*
X229235000Y-123447959D01*
X229808489Y-123333885D01*
X230294670Y-123009029D01*
X230619526Y-122522848D01*
X230733600Y-121949359D01*
X230733600Y-121890641D01*
X230619526Y-121317152D01*
X230294670Y-120830971D01*
X230023828Y-120650000D01*
X230294670Y-120469029D01*
X230619526Y-119982848D01*
X230733600Y-119409359D01*
X230733600Y-119350641D01*
X230619526Y-118777152D01*
X230294670Y-118290971D01*
X230023828Y-118110000D01*
X230294670Y-117929029D01*
X230619526Y-117442848D01*
X230733600Y-116869359D01*
X230733600Y-116810641D01*
X230619526Y-116237152D01*
X230294670Y-115750971D01*
X230023828Y-115570000D01*
X230294670Y-115389029D01*
X230619526Y-114902848D01*
X230733600Y-114329359D01*
X230733600Y-114270641D01*
X230619526Y-113697152D01*
X230294670Y-113210971D01*
X229808489Y-112886115D01*
X229235000Y-112772041D01*
X228661511Y-112886115D01*
X228175330Y-113210971D01*
X227965000Y-113525752D01*
X227754670Y-113210971D01*
X227268489Y-112886115D01*
X226695000Y-112772041D01*
X226121511Y-112886115D01*
X225635330Y-113210971D01*
X225310474Y-113697152D01*
X225196400Y-114270641D01*
X225196400Y-114329359D01*
X225310474Y-114902848D01*
X225635330Y-115389029D01*
X225906172Y-115570000D01*
X225635330Y-115750971D01*
X225415480Y-116080000D01*
X219930102Y-116080000D01*
X217016265Y-113166163D01*
X220261443Y-113166163D01*
X220360042Y-113432965D01*
X220969582Y-113659401D01*
X221619377Y-113635341D01*
X222107958Y-113432965D01*
X222206557Y-113166163D01*
X221234000Y-112193605D01*
X220261443Y-113166163D01*
X217016265Y-113166163D01*
X215599684Y-111749582D01*
X219588599Y-111749582D01*
X219612659Y-112399377D01*
X219815035Y-112887958D01*
X220081837Y-112986557D01*
X221054395Y-112014000D01*
X221413605Y-112014000D01*
X222386163Y-112986557D01*
X222652965Y-112887958D01*
X222879401Y-112278418D01*
X222855341Y-111628623D01*
X222652965Y-111140042D01*
X222386163Y-111041443D01*
X221413605Y-112014000D01*
X221054395Y-112014000D01*
X220081837Y-111041443D01*
X219815035Y-111140042D01*
X219588599Y-111749582D01*
X215599684Y-111749582D01*
X215072701Y-111222599D01*
X214826139Y-111057852D01*
X214578773Y-111008647D01*
X214480678Y-110861837D01*
X220261443Y-110861837D01*
X221234000Y-111834395D01*
X222206557Y-110861837D01*
X222107958Y-110595035D01*
X221498418Y-110368599D01*
X220848623Y-110392659D01*
X220360042Y-110595035D01*
X220261443Y-110861837D01*
X214480678Y-110861837D01*
X214402811Y-110745302D01*
X214020725Y-110490000D01*
X214402811Y-110234698D01*
X214713880Y-109769151D01*
X214766273Y-109505750D01*
X215885000Y-109505750D01*
X215885000Y-109996309D01*
X215981673Y-110229698D01*
X216160301Y-110408327D01*
X216393690Y-110505000D01*
X216884250Y-110505000D01*
X217043000Y-110346250D01*
X217043000Y-109347000D01*
X217297000Y-109347000D01*
X217297000Y-110346250D01*
X217455750Y-110505000D01*
X217946310Y-110505000D01*
X218179699Y-110408327D01*
X218358327Y-110229698D01*
X218455000Y-109996309D01*
X218455000Y-109505750D01*
X218296250Y-109347000D01*
X217297000Y-109347000D01*
X217043000Y-109347000D01*
X216043750Y-109347000D01*
X215885000Y-109505750D01*
X214766273Y-109505750D01*
X214823113Y-109220000D01*
X214713880Y-108670849D01*
X214402811Y-108205302D01*
X214020725Y-107950000D01*
X214402811Y-107694698D01*
X214713880Y-107229151D01*
X214764537Y-106974481D01*
X215884777Y-106974481D01*
X216079995Y-107446943D01*
X216441155Y-107808735D01*
X216745235Y-107935000D01*
X216393690Y-107935000D01*
X216160301Y-108031673D01*
X215981673Y-108210302D01*
X215885000Y-108443691D01*
X215885000Y-108934250D01*
X216043750Y-109093000D01*
X217043000Y-109093000D01*
X217043000Y-109073000D01*
X217297000Y-109073000D01*
X217297000Y-109093000D01*
X218296250Y-109093000D01*
X218455000Y-108934250D01*
X218455000Y-108443691D01*
X218358327Y-108210302D01*
X218179699Y-108031673D01*
X217946310Y-107935000D01*
X217594433Y-107935000D01*
X217896943Y-107810005D01*
X218258735Y-107448845D01*
X218454777Y-106976724D01*
X218455223Y-106465519D01*
X218260005Y-105993057D01*
X217898845Y-105631265D01*
X217426724Y-105435223D01*
X216915519Y-105434777D01*
X216443057Y-105629995D01*
X216081265Y-105991155D01*
X215885223Y-106463276D01*
X215884777Y-106974481D01*
X214764537Y-106974481D01*
X214823113Y-106680000D01*
X214713880Y-106130849D01*
X214402811Y-105665302D01*
X213998297Y-105395014D01*
X214215134Y-105292389D01*
X214591041Y-104877423D01*
X214751904Y-104489039D01*
X214629915Y-104267000D01*
X213487000Y-104267000D01*
X213487000Y-104287000D01*
X213233000Y-104287000D01*
X213233000Y-104267000D01*
X213213000Y-104267000D01*
X213213000Y-104013000D01*
X213233000Y-104013000D01*
X213233000Y-103993000D01*
X213487000Y-103993000D01*
X213487000Y-104013000D01*
X214629915Y-104013000D01*
X214751904Y-103790961D01*
X214591041Y-103402577D01*
X214215134Y-102987611D01*
X214089588Y-102928192D01*
X214113493Y-102808015D01*
X214402811Y-102614698D01*
X214713880Y-102149151D01*
X214719250Y-102122152D01*
X219179499Y-106582401D01*
X219426060Y-106747148D01*
X219716900Y-106805000D01*
X226520352Y-106805000D01*
X226720585Y-107104670D01*
X227206766Y-107429526D01*
X227780255Y-107543600D01*
X228149745Y-107543600D01*
X228723234Y-107429526D01*
X229209415Y-107104670D01*
X229534271Y-106618489D01*
X229648345Y-106045000D01*
X229534271Y-105471511D01*
X229209415Y-104985330D01*
X228894634Y-104775000D01*
X229209415Y-104564670D01*
X229534271Y-104078489D01*
X229648345Y-103505000D01*
X229534271Y-102931511D01*
X229209415Y-102445330D01*
X228894634Y-102235000D01*
X229209415Y-102024670D01*
X229534271Y-101538489D01*
X229648345Y-100965000D01*
X229534271Y-100391511D01*
X229209415Y-99905330D01*
X228894634Y-99695000D01*
X229209415Y-99484670D01*
X229534271Y-98998489D01*
X229648345Y-98425000D01*
X229534271Y-97851511D01*
X229209415Y-97365330D01*
X228894634Y-97155000D01*
X229209415Y-96944670D01*
X229534271Y-96458489D01*
X229648345Y-95885000D01*
X229534271Y-95311511D01*
X229209415Y-94825330D01*
X228899931Y-94618539D01*
X229315732Y-94247036D01*
X229569709Y-93719791D01*
X229572358Y-93704026D01*
X229451217Y-93472000D01*
X228092000Y-93472000D01*
X228092000Y-93492000D01*
X227838000Y-93492000D01*
X227838000Y-93472000D01*
X226478783Y-93472000D01*
X226357642Y-93704026D01*
X226360291Y-93719791D01*
X226614268Y-94247036D01*
X227030069Y-94618539D01*
X226720585Y-94825330D01*
X226395729Y-95311511D01*
X226281655Y-95885000D01*
X226395729Y-96458489D01*
X226720585Y-96944670D01*
X227035366Y-97155000D01*
X226720585Y-97365330D01*
X226395729Y-97851511D01*
X226281655Y-98425000D01*
X226395729Y-98998489D01*
X226720585Y-99484670D01*
X227035366Y-99695000D01*
X226720585Y-99905330D01*
X226395729Y-100391511D01*
X226281655Y-100965000D01*
X226395729Y-101538489D01*
X226720585Y-102024670D01*
X227035366Y-102235000D01*
X226720585Y-102445330D01*
X226395729Y-102931511D01*
X226281655Y-103505000D01*
X226395729Y-104078489D01*
X226720585Y-104564670D01*
X227035366Y-104775000D01*
X226720585Y-104985330D01*
X226520352Y-105285000D01*
X220031702Y-105285000D01*
X217644142Y-102897440D01*
X217820000Y-102897440D01*
X218055317Y-102853162D01*
X218271441Y-102714090D01*
X218416431Y-102501890D01*
X218467440Y-102250000D01*
X218467440Y-100950000D01*
X218423162Y-100714683D01*
X218298519Y-100520983D01*
X218732701Y-100086801D01*
X218897448Y-99840240D01*
X218955300Y-99549400D01*
X218955300Y-96589694D01*
X219853226Y-96589694D01*
X220101538Y-97190655D01*
X220560927Y-97650846D01*
X221161453Y-97900206D01*
X221811694Y-97900774D01*
X222412655Y-97652462D01*
X222872846Y-97193073D01*
X223122206Y-96592547D01*
X223122489Y-96268927D01*
X223234883Y-96540943D01*
X223497673Y-96804192D01*
X223841201Y-96946838D01*
X224213167Y-96947162D01*
X224556943Y-96805117D01*
X224820192Y-96542327D01*
X224962838Y-96198799D01*
X224962879Y-96151923D01*
X225835401Y-95279401D01*
X226000148Y-95032840D01*
X226058000Y-94742000D01*
X226058000Y-93018463D01*
X226090192Y-92986327D01*
X226232838Y-92642799D01*
X226233162Y-92270833D01*
X226091117Y-91927057D01*
X225828327Y-91663808D01*
X225484799Y-91521162D01*
X225112833Y-91520838D01*
X224769057Y-91662883D01*
X224505808Y-91925673D01*
X224363162Y-92269201D01*
X224362838Y-92641167D01*
X224504883Y-92984943D01*
X224538000Y-93018118D01*
X224538000Y-94427198D01*
X223888320Y-95076878D01*
X223842833Y-95076838D01*
X223499057Y-95218883D01*
X223235808Y-95481673D01*
X223093162Y-95825201D01*
X223093123Y-95870544D01*
X222874462Y-95341345D01*
X222415073Y-94881154D01*
X221814547Y-94631794D01*
X221164306Y-94631226D01*
X220563345Y-94879538D01*
X220103154Y-95338927D01*
X219853794Y-95939453D01*
X219853226Y-96589694D01*
X218955300Y-96589694D01*
X218955300Y-90805000D01*
X226281655Y-90805000D01*
X226395729Y-91378489D01*
X226720585Y-91864670D01*
X227030069Y-92071461D01*
X226614268Y-92442964D01*
X226360291Y-92970209D01*
X226357642Y-92985974D01*
X226478783Y-93218000D01*
X227838000Y-93218000D01*
X227838000Y-93198000D01*
X228092000Y-93198000D01*
X228092000Y-93218000D01*
X229451217Y-93218000D01*
X229572358Y-92985974D01*
X229569709Y-92970209D01*
X229315732Y-92442964D01*
X228899931Y-92071461D01*
X229209415Y-91864670D01*
X229534271Y-91378489D01*
X229648345Y-90805000D01*
X229534271Y-90231511D01*
X229209415Y-89745330D01*
X229195087Y-89735757D01*
X229216317Y-89731762D01*
X229432441Y-89592690D01*
X229577431Y-89380490D01*
X229628440Y-89128600D01*
X229628440Y-87401400D01*
X229584162Y-87166083D01*
X229445090Y-86949959D01*
X229232890Y-86804969D01*
X228981000Y-86753960D01*
X226949000Y-86753960D01*
X226713683Y-86798238D01*
X226497559Y-86937310D01*
X226352569Y-87149510D01*
X226301560Y-87401400D01*
X226301560Y-89128600D01*
X226345838Y-89363917D01*
X226484910Y-89580041D01*
X226697110Y-89725031D01*
X226738439Y-89733400D01*
X226720585Y-89745330D01*
X226395729Y-90231511D01*
X226281655Y-90805000D01*
X218955300Y-90805000D01*
X218955300Y-89713502D01*
X220996917Y-87671885D01*
X221161453Y-87740206D01*
X221811694Y-87740774D01*
X222412655Y-87492462D01*
X222872846Y-87033073D01*
X223122206Y-86432547D01*
X223122774Y-85782306D01*
X222874462Y-85181345D01*
X222415073Y-84721154D01*
X221814547Y-84471794D01*
X221164306Y-84471226D01*
X220563345Y-84719538D01*
X220103154Y-85178927D01*
X219853794Y-85779453D01*
X219853226Y-86429694D01*
X219922309Y-86596889D01*
X217657899Y-88861299D01*
X217493152Y-89107861D01*
X217435300Y-89398700D01*
X217435300Y-97831741D01*
X217350922Y-97802378D01*
X216840572Y-97831917D01*
X216506271Y-97970389D01*
X216450590Y-98200984D01*
X217170000Y-98920395D01*
X217184143Y-98906253D01*
X217363748Y-99085858D01*
X217349605Y-99100000D01*
X217363748Y-99114143D01*
X217184142Y-99293748D01*
X217170000Y-99279605D01*
X216450590Y-99999016D01*
X216505695Y-100227225D01*
X216467852Y-100283861D01*
X216461960Y-100313481D01*
X216284683Y-100346838D01*
X216068559Y-100485910D01*
X215923569Y-100698110D01*
X215872560Y-100950000D01*
X215872560Y-101125858D01*
X215484600Y-100737898D01*
X215484600Y-98919078D01*
X215872378Y-98919078D01*
X215901917Y-99429428D01*
X216040389Y-99763729D01*
X216270984Y-99819410D01*
X216990395Y-99100000D01*
X216270984Y-98380590D01*
X216040389Y-98436271D01*
X215872378Y-98919078D01*
X215484600Y-98919078D01*
X215484600Y-91074600D01*
X215426748Y-90783761D01*
X215262001Y-90537199D01*
X214497615Y-89772813D01*
X214713880Y-89449151D01*
X214823113Y-88900000D01*
X214713880Y-88350849D01*
X214402811Y-87885302D01*
X213937264Y-87574233D01*
X213388113Y-87465000D01*
X213331887Y-87465000D01*
X212782736Y-87574233D01*
X212317189Y-87885302D01*
X212006120Y-88350849D01*
X211896887Y-88900000D01*
X212006120Y-89449151D01*
X212317189Y-89914698D01*
X212606507Y-90108015D01*
X212628274Y-90217441D01*
X212317189Y-90425302D01*
X212006120Y-90890849D01*
X211896887Y-91440000D01*
X212006120Y-91989151D01*
X212317189Y-92454698D01*
X212699275Y-92710000D01*
X212317189Y-92965302D01*
X212006120Y-93430849D01*
X211896887Y-93980000D01*
X212006120Y-94529151D01*
X212317189Y-94994698D01*
X212699275Y-95250000D01*
X212317189Y-95505302D01*
X212006120Y-95970849D01*
X211896887Y-96520000D01*
X212006120Y-97069151D01*
X212317189Y-97534698D01*
X212699275Y-97790000D01*
X212317189Y-98045302D01*
X212006120Y-98510849D01*
X211896887Y-99060000D01*
X212006120Y-99609151D01*
X212317189Y-100074698D01*
X212699275Y-100330000D01*
X212317189Y-100585302D01*
X212006120Y-101050849D01*
X211896887Y-101600000D01*
X212006120Y-102149151D01*
X212222385Y-102472813D01*
X211632399Y-103062799D01*
X211467652Y-103309361D01*
X211409800Y-103600200D01*
X207710000Y-103600200D01*
X207710000Y-96000000D01*
X207652148Y-95709161D01*
X207652148Y-95709160D01*
X207487401Y-95462599D01*
X206877615Y-94852813D01*
X207093880Y-94529151D01*
X207203113Y-93980000D01*
X207093880Y-93430849D01*
X206782811Y-92965302D01*
X206400725Y-92710000D01*
X206782811Y-92454698D01*
X207093880Y-91989151D01*
X207203113Y-91440000D01*
X207093880Y-90890849D01*
X206782811Y-90425302D01*
X206400725Y-90170000D01*
X206782811Y-89914698D01*
X207093880Y-89449151D01*
X207203113Y-88900000D01*
X207093880Y-88350849D01*
X206782811Y-87885302D01*
X206317264Y-87574233D01*
X205768113Y-87465000D01*
X205711887Y-87465000D01*
X205162736Y-87574233D01*
X204697189Y-87885302D01*
X204521227Y-88148647D01*
X204273861Y-88197852D01*
X204027299Y-88362599D01*
X203481440Y-88908458D01*
X203481440Y-88250000D01*
X203437162Y-88014683D01*
X203298090Y-87798559D01*
X203085890Y-87653569D01*
X202834000Y-87602560D01*
X201534000Y-87602560D01*
X201298683Y-87646838D01*
X201082559Y-87785910D01*
X200937569Y-87998110D01*
X200886560Y-88250000D01*
X200886560Y-89550000D01*
X200930838Y-89785317D01*
X201069910Y-90001441D01*
X201282110Y-90146431D01*
X201475788Y-90185652D01*
X201481852Y-90216139D01*
X201525632Y-90281660D01*
X201457057Y-90309995D01*
X201095265Y-90671155D01*
X200899223Y-91143276D01*
X200899073Y-91315000D01*
X192716900Y-91315000D01*
X192818345Y-90805000D01*
X192704271Y-90231511D01*
X192379415Y-89745330D01*
X192365087Y-89735757D01*
X192386317Y-89731762D01*
X192602441Y-89592690D01*
X192747431Y-89380490D01*
X192798440Y-89128600D01*
X192798440Y-87401400D01*
X192754162Y-87166083D01*
X192615090Y-86949959D01*
X192402890Y-86804969D01*
X192151000Y-86753960D01*
X190119000Y-86753960D01*
X189883683Y-86798238D01*
X189667559Y-86937310D01*
X189522569Y-87149510D01*
X189471560Y-87401400D01*
X189471560Y-89128600D01*
X189515838Y-89363917D01*
X189654910Y-89580041D01*
X189867110Y-89725031D01*
X189908439Y-89733400D01*
X189890585Y-89745330D01*
X189565729Y-90231511D01*
X189451655Y-90805000D01*
X189565729Y-91378489D01*
X189773723Y-91689775D01*
X187925499Y-93537999D01*
X187760752Y-93784561D01*
X187702900Y-94075400D01*
X185851000Y-94075400D01*
X185851000Y-86144749D01*
X186181847Y-86476174D01*
X187333674Y-86954454D01*
X188580854Y-86955543D01*
X189733515Y-86479273D01*
X190616174Y-85598153D01*
X191094454Y-84446326D01*
X191095543Y-83199146D01*
X190619273Y-82046485D01*
X190284373Y-81711000D01*
X228815251Y-81711000D01*
X228483826Y-82041847D01*
G36*
X189890585Y-94404670D02*
X190205366Y-94615000D01*
X189890585Y-94825330D01*
X189565729Y-95311511D01*
X189451655Y-95885000D01*
X189565729Y-96458489D01*
X189890585Y-96944670D01*
X190205366Y-97155000D01*
X189890585Y-97365330D01*
X189565729Y-97851511D01*
X189451655Y-98425000D01*
X189565729Y-98998489D01*
X189890585Y-99484670D01*
X190205366Y-99695000D01*
X189890585Y-99905330D01*
X189565729Y-100391511D01*
X189451655Y-100965000D01*
X189565729Y-101538489D01*
X189890585Y-102024670D01*
X190205366Y-102235000D01*
X189890585Y-102445330D01*
X189565729Y-102931511D01*
X189451655Y-103505000D01*
X189565729Y-104078489D01*
X189890585Y-104564670D01*
X190205366Y-104775000D01*
X189890585Y-104985330D01*
X189565729Y-105471511D01*
X189451655Y-106045000D01*
X189565729Y-106618489D01*
X189890585Y-107104670D01*
X190376766Y-107429526D01*
X190405088Y-107435160D01*
X190432852Y-107574739D01*
X190597599Y-107821301D01*
X204058399Y-121282101D01*
X204304961Y-121446848D01*
X204368489Y-121459485D01*
X204301751Y-121795000D01*
X191309648Y-121795000D01*
X191109415Y-121495330D01*
X190794634Y-121285000D01*
X191109415Y-121074670D01*
X191434271Y-120588489D01*
X191548345Y-120015000D01*
X191434271Y-119441511D01*
X191109415Y-118955330D01*
X190794634Y-118745000D01*
X191109415Y-118534670D01*
X191434271Y-118048489D01*
X191548345Y-117475000D01*
X191434271Y-116901511D01*
X191109415Y-116415330D01*
X190794634Y-116205000D01*
X191109415Y-115994670D01*
X191434271Y-115508489D01*
X191548345Y-114935000D01*
X191434271Y-114361511D01*
X191109415Y-113875330D01*
X191087220Y-113860500D01*
X191240698Y-113796927D01*
X191419327Y-113618299D01*
X191516000Y-113384910D01*
X191516000Y-112680750D01*
X191357250Y-112522000D01*
X189992000Y-112522000D01*
X189992000Y-112542000D01*
X189738000Y-112542000D01*
X189738000Y-112522000D01*
X189718000Y-112522000D01*
X189718000Y-112268000D01*
X189738000Y-112268000D01*
X189738000Y-111055150D01*
X189992000Y-111055150D01*
X189992000Y-112268000D01*
X191357250Y-112268000D01*
X191516000Y-112109250D01*
X191516000Y-111405090D01*
X191419327Y-111171701D01*
X191240698Y-110993073D01*
X191007309Y-110896400D01*
X190150750Y-110896400D01*
X189992000Y-111055150D01*
X189738000Y-111055150D01*
X189579250Y-110896400D01*
X189222900Y-110896400D01*
X189222900Y-94390202D01*
X189617353Y-93995749D01*
X189890585Y-94404670D01*
X189890585Y-94404670D01*
G37*
X189890585Y-94404670D02*
X190205366Y-94615000D01*
X189890585Y-94825330D01*
X189565729Y-95311511D01*
X189451655Y-95885000D01*
X189565729Y-96458489D01*
X189890585Y-96944670D01*
X190205366Y-97155000D01*
X189890585Y-97365330D01*
X189565729Y-97851511D01*
X189451655Y-98425000D01*
X189565729Y-98998489D01*
X189890585Y-99484670D01*
X190205366Y-99695000D01*
X189890585Y-99905330D01*
X189565729Y-100391511D01*
X189451655Y-100965000D01*
X189565729Y-101538489D01*
X189890585Y-102024670D01*
X190205366Y-102235000D01*
X189890585Y-102445330D01*
X189565729Y-102931511D01*
X189451655Y-103505000D01*
X189565729Y-104078489D01*
X189890585Y-104564670D01*
X190205366Y-104775000D01*
X189890585Y-104985330D01*
X189565729Y-105471511D01*
X189451655Y-106045000D01*
X189565729Y-106618489D01*
X189890585Y-107104670D01*
X190376766Y-107429526D01*
X190405088Y-107435160D01*
X190432852Y-107574739D01*
X190597599Y-107821301D01*
X204058399Y-121282101D01*
X204304961Y-121446848D01*
X204368489Y-121459485D01*
X204301751Y-121795000D01*
X191309648Y-121795000D01*
X191109415Y-121495330D01*
X190794634Y-121285000D01*
X191109415Y-121074670D01*
X191434271Y-120588489D01*
X191548345Y-120015000D01*
X191434271Y-119441511D01*
X191109415Y-118955330D01*
X190794634Y-118745000D01*
X191109415Y-118534670D01*
X191434271Y-118048489D01*
X191548345Y-117475000D01*
X191434271Y-116901511D01*
X191109415Y-116415330D01*
X190794634Y-116205000D01*
X191109415Y-115994670D01*
X191434271Y-115508489D01*
X191548345Y-114935000D01*
X191434271Y-114361511D01*
X191109415Y-113875330D01*
X191087220Y-113860500D01*
X191240698Y-113796927D01*
X191419327Y-113618299D01*
X191516000Y-113384910D01*
X191516000Y-112680750D01*
X191357250Y-112522000D01*
X189992000Y-112522000D01*
X189992000Y-112542000D01*
X189738000Y-112542000D01*
X189738000Y-112522000D01*
X189718000Y-112522000D01*
X189718000Y-112268000D01*
X189738000Y-112268000D01*
X189738000Y-111055150D01*
X189992000Y-111055150D01*
X189992000Y-112268000D01*
X191357250Y-112268000D01*
X191516000Y-112109250D01*
X191516000Y-111405090D01*
X191419327Y-111171701D01*
X191240698Y-110993073D01*
X191007309Y-110896400D01*
X190150750Y-110896400D01*
X189992000Y-111055150D01*
X189738000Y-111055150D01*
X189579250Y-110896400D01*
X189222900Y-110896400D01*
X189222900Y-94390202D01*
X189617353Y-93995749D01*
X189890585Y-94404670D01*
G36*
X205867000Y-106553000D02*
X205887000Y-106553000D01*
X205887000Y-106807000D01*
X205867000Y-106807000D01*
X205867000Y-106827000D01*
X205613000Y-106827000D01*
X205613000Y-106807000D01*
X205593000Y-106807000D01*
X205593000Y-106553000D01*
X205613000Y-106553000D01*
X205613000Y-106533000D01*
X205867000Y-106533000D01*
X205867000Y-106553000D01*
X205867000Y-106553000D01*
G37*
X205867000Y-106553000D02*
X205887000Y-106553000D01*
X205887000Y-106807000D01*
X205867000Y-106807000D01*
X205867000Y-106827000D01*
X205613000Y-106827000D01*
X205613000Y-106807000D01*
X205593000Y-106807000D01*
X205593000Y-106553000D01*
X205613000Y-106553000D01*
X205613000Y-106533000D01*
X205867000Y-106533000D01*
X205867000Y-106553000D01*
M02*
