G04 #@! TF.FileFunction,Soldermask,Top*
%FSLAX46Y46*%
G04 Gerber Fmt 4.6, Leading zero omitted, Abs format (unit mm)*
G04 Created by KiCad (PCBNEW 4.0.1-3.201512221401+6198~38~ubuntu15.10.1-stable) date lun 04 ene 2016 19:36:38 ART*
%MOMM*%
G01*
G04 APERTURE LIST*
%ADD10C,0.100000*%
%ADD11C,0.200000*%
%ADD12R,1.300000X1.300000*%
%ADD13C,1.300000*%
%ADD14C,1.998980*%
%ADD15O,1.600000X1.600000*%
%ADD16R,2.032000X1.727200*%
%ADD17O,2.032000X1.727200*%
%ADD18R,1.727200X1.727200*%
%ADD19O,1.727200X1.727200*%
%ADD20R,2.032000X2.032000*%
%ADD21O,2.032000X2.032000*%
%ADD22C,5.000000*%
G04 APERTURE END LIST*
D10*
D11*
X188015619Y-87653905D02*
X189015619Y-87653905D01*
X189015619Y-87892000D01*
X188968000Y-88034858D01*
X188872762Y-88130096D01*
X188777524Y-88177715D01*
X188587048Y-88225334D01*
X188444190Y-88225334D01*
X188253714Y-88177715D01*
X188158476Y-88130096D01*
X188063238Y-88034858D01*
X188015619Y-87892000D01*
X188015619Y-87653905D01*
X188920381Y-88606286D02*
X188968000Y-88653905D01*
X189015619Y-88749143D01*
X189015619Y-88987239D01*
X188968000Y-89082477D01*
X188920381Y-89130096D01*
X188825143Y-89177715D01*
X188729905Y-89177715D01*
X188587048Y-89130096D01*
X188015619Y-88558667D01*
X188015619Y-89177715D01*
X188015619Y-105433905D02*
X189015619Y-105433905D01*
X189015619Y-105672000D01*
X188968000Y-105814858D01*
X188872762Y-105910096D01*
X188777524Y-105957715D01*
X188587048Y-106005334D01*
X188444190Y-106005334D01*
X188253714Y-105957715D01*
X188158476Y-105910096D01*
X188063238Y-105814858D01*
X188015619Y-105672000D01*
X188015619Y-105433905D01*
X188587048Y-106576762D02*
X188634667Y-106481524D01*
X188682286Y-106433905D01*
X188777524Y-106386286D01*
X188825143Y-106386286D01*
X188920381Y-106433905D01*
X188968000Y-106481524D01*
X189015619Y-106576762D01*
X189015619Y-106767239D01*
X188968000Y-106862477D01*
X188920381Y-106910096D01*
X188825143Y-106957715D01*
X188777524Y-106957715D01*
X188682286Y-106910096D01*
X188634667Y-106862477D01*
X188587048Y-106767239D01*
X188587048Y-106576762D01*
X188539429Y-106481524D01*
X188491810Y-106433905D01*
X188396571Y-106386286D01*
X188206095Y-106386286D01*
X188110857Y-106433905D01*
X188063238Y-106481524D01*
X188015619Y-106576762D01*
X188015619Y-106767239D01*
X188063238Y-106862477D01*
X188110857Y-106910096D01*
X188206095Y-106957715D01*
X188396571Y-106957715D01*
X188491810Y-106910096D01*
X188539429Y-106862477D01*
X188587048Y-106767239D01*
X188015619Y-102893905D02*
X189015619Y-102893905D01*
X189015619Y-103132000D01*
X188968000Y-103274858D01*
X188872762Y-103370096D01*
X188777524Y-103417715D01*
X188587048Y-103465334D01*
X188444190Y-103465334D01*
X188253714Y-103417715D01*
X188158476Y-103370096D01*
X188063238Y-103274858D01*
X188015619Y-103132000D01*
X188015619Y-102893905D01*
X189015619Y-103798667D02*
X189015619Y-104465334D01*
X188015619Y-104036762D01*
X188015619Y-100353905D02*
X189015619Y-100353905D01*
X189015619Y-100592000D01*
X188968000Y-100734858D01*
X188872762Y-100830096D01*
X188777524Y-100877715D01*
X188587048Y-100925334D01*
X188444190Y-100925334D01*
X188253714Y-100877715D01*
X188158476Y-100830096D01*
X188063238Y-100734858D01*
X188015619Y-100592000D01*
X188015619Y-100353905D01*
X189015619Y-101782477D02*
X189015619Y-101592000D01*
X188968000Y-101496762D01*
X188920381Y-101449143D01*
X188777524Y-101353905D01*
X188587048Y-101306286D01*
X188206095Y-101306286D01*
X188110857Y-101353905D01*
X188063238Y-101401524D01*
X188015619Y-101496762D01*
X188015619Y-101687239D01*
X188063238Y-101782477D01*
X188110857Y-101830096D01*
X188206095Y-101877715D01*
X188444190Y-101877715D01*
X188539429Y-101830096D01*
X188587048Y-101782477D01*
X188634667Y-101687239D01*
X188634667Y-101496762D01*
X188587048Y-101401524D01*
X188539429Y-101353905D01*
X188444190Y-101306286D01*
X188015619Y-97813905D02*
X189015619Y-97813905D01*
X189015619Y-98052000D01*
X188968000Y-98194858D01*
X188872762Y-98290096D01*
X188777524Y-98337715D01*
X188587048Y-98385334D01*
X188444190Y-98385334D01*
X188253714Y-98337715D01*
X188158476Y-98290096D01*
X188063238Y-98194858D01*
X188015619Y-98052000D01*
X188015619Y-97813905D01*
X189015619Y-99290096D02*
X189015619Y-98813905D01*
X188539429Y-98766286D01*
X188587048Y-98813905D01*
X188634667Y-98909143D01*
X188634667Y-99147239D01*
X188587048Y-99242477D01*
X188539429Y-99290096D01*
X188444190Y-99337715D01*
X188206095Y-99337715D01*
X188110857Y-99290096D01*
X188063238Y-99242477D01*
X188015619Y-99147239D01*
X188015619Y-98909143D01*
X188063238Y-98813905D01*
X188110857Y-98766286D01*
X189015619Y-95202476D02*
X188015619Y-95869143D01*
X189015619Y-95869143D02*
X188015619Y-95202476D01*
X188920381Y-96202476D02*
X188968000Y-96250095D01*
X189015619Y-96345333D01*
X189015619Y-96583429D01*
X188968000Y-96678667D01*
X188920381Y-96726286D01*
X188825143Y-96773905D01*
X188729905Y-96773905D01*
X188587048Y-96726286D01*
X188015619Y-96154857D01*
X188015619Y-96773905D01*
X189015619Y-92662476D02*
X188015619Y-93329143D01*
X189015619Y-93329143D02*
X188015619Y-92662476D01*
X188015619Y-94233905D02*
X188015619Y-93662476D01*
X188015619Y-93948190D02*
X189015619Y-93948190D01*
X188872762Y-93852952D01*
X188777524Y-93757714D01*
X188729905Y-93662476D01*
X188015619Y-90193905D02*
X189015619Y-90193905D01*
X189015619Y-90432000D01*
X188968000Y-90574858D01*
X188872762Y-90670096D01*
X188777524Y-90717715D01*
X188587048Y-90765334D01*
X188444190Y-90765334D01*
X188253714Y-90717715D01*
X188158476Y-90670096D01*
X188063238Y-90574858D01*
X188015619Y-90432000D01*
X188015619Y-90193905D01*
X189015619Y-91098667D02*
X189015619Y-91717715D01*
X188634667Y-91384381D01*
X188634667Y-91527239D01*
X188587048Y-91622477D01*
X188539429Y-91670096D01*
X188444190Y-91717715D01*
X188206095Y-91717715D01*
X188110857Y-91670096D01*
X188063238Y-91622477D01*
X188015619Y-91527239D01*
X188015619Y-91241524D01*
X188063238Y-91146286D01*
X188110857Y-91098667D01*
X230084381Y-88931619D02*
X230084381Y-88312571D01*
X230465333Y-88645905D01*
X230465333Y-88503047D01*
X230512952Y-88407809D01*
X230560571Y-88360190D01*
X230655810Y-88312571D01*
X230893905Y-88312571D01*
X230989143Y-88360190D01*
X231036762Y-88407809D01*
X231084381Y-88503047D01*
X231084381Y-88788762D01*
X231036762Y-88884000D01*
X230989143Y-88931619D01*
X230989143Y-87884000D02*
X231036762Y-87836381D01*
X231084381Y-87884000D01*
X231036762Y-87931619D01*
X230989143Y-87884000D01*
X231084381Y-87884000D01*
X230084381Y-87503048D02*
X230084381Y-86884000D01*
X230465333Y-87217334D01*
X230465333Y-87074476D01*
X230512952Y-86979238D01*
X230560571Y-86931619D01*
X230655810Y-86884000D01*
X230893905Y-86884000D01*
X230989143Y-86931619D01*
X231036762Y-86979238D01*
X231084381Y-87074476D01*
X231084381Y-87360191D01*
X231036762Y-87455429D01*
X230989143Y-87503048D01*
X230084381Y-91979619D02*
X230084381Y-91360571D01*
X230465333Y-91693905D01*
X230465333Y-91551047D01*
X230512952Y-91455809D01*
X230560571Y-91408190D01*
X230655810Y-91360571D01*
X230893905Y-91360571D01*
X230989143Y-91408190D01*
X231036762Y-91455809D01*
X231084381Y-91551047D01*
X231084381Y-91836762D01*
X231036762Y-91932000D01*
X230989143Y-91979619D01*
X230989143Y-90932000D02*
X231036762Y-90884381D01*
X231084381Y-90932000D01*
X231036762Y-90979619D01*
X230989143Y-90932000D01*
X231084381Y-90932000D01*
X230084381Y-90551048D02*
X230084381Y-89932000D01*
X230465333Y-90265334D01*
X230465333Y-90122476D01*
X230512952Y-90027238D01*
X230560571Y-89979619D01*
X230655810Y-89932000D01*
X230893905Y-89932000D01*
X230989143Y-89979619D01*
X231036762Y-90027238D01*
X231084381Y-90122476D01*
X231084381Y-90408191D01*
X231036762Y-90503429D01*
X230989143Y-90551048D01*
X230084381Y-93948191D02*
X230084381Y-93852952D01*
X230132000Y-93757714D01*
X230179619Y-93710095D01*
X230274857Y-93662476D01*
X230465333Y-93614857D01*
X230703429Y-93614857D01*
X230893905Y-93662476D01*
X230989143Y-93710095D01*
X231036762Y-93757714D01*
X231084381Y-93852952D01*
X231084381Y-93948191D01*
X231036762Y-94043429D01*
X230989143Y-94091048D01*
X230893905Y-94138667D01*
X230703429Y-94186286D01*
X230465333Y-94186286D01*
X230274857Y-94138667D01*
X230179619Y-94091048D01*
X230132000Y-94043429D01*
X230084381Y-93948191D01*
X230084381Y-93329143D02*
X231084381Y-92995810D01*
X230084381Y-92662476D01*
X230798667Y-96726286D02*
X230798667Y-96250095D01*
X231084381Y-96821524D02*
X230084381Y-96488191D01*
X231084381Y-96154857D01*
X231084381Y-95297714D02*
X231084381Y-95869143D01*
X231084381Y-95583429D02*
X230084381Y-95583429D01*
X230227238Y-95678667D01*
X230322476Y-95773905D01*
X230370095Y-95869143D01*
X230798667Y-99266286D02*
X230798667Y-98790095D01*
X231084381Y-99361524D02*
X230084381Y-99028191D01*
X231084381Y-98694857D01*
X230179619Y-98409143D02*
X230132000Y-98361524D01*
X230084381Y-98266286D01*
X230084381Y-98028190D01*
X230132000Y-97932952D01*
X230179619Y-97885333D01*
X230274857Y-97837714D01*
X230370095Y-97837714D01*
X230512952Y-97885333D01*
X231084381Y-98456762D01*
X231084381Y-97837714D01*
X230798667Y-101806286D02*
X230798667Y-101330095D01*
X231084381Y-101901524D02*
X230084381Y-101568191D01*
X231084381Y-101234857D01*
X230084381Y-100996762D02*
X230084381Y-100377714D01*
X230465333Y-100711048D01*
X230465333Y-100568190D01*
X230512952Y-100472952D01*
X230560571Y-100425333D01*
X230655810Y-100377714D01*
X230893905Y-100377714D01*
X230989143Y-100425333D01*
X231036762Y-100472952D01*
X231084381Y-100568190D01*
X231084381Y-100853905D01*
X231036762Y-100949143D01*
X230989143Y-100996762D01*
X230798667Y-104346286D02*
X230798667Y-103870095D01*
X231084381Y-104441524D02*
X230084381Y-104108191D01*
X231084381Y-103774857D01*
X230417714Y-103012952D02*
X231084381Y-103012952D01*
X230036762Y-103251048D02*
X230751048Y-103489143D01*
X230751048Y-102870095D01*
X230798667Y-106886286D02*
X230798667Y-106410095D01*
X231084381Y-106981524D02*
X230084381Y-106648191D01*
X231084381Y-106314857D01*
X230084381Y-105505333D02*
X230084381Y-105981524D01*
X230560571Y-106029143D01*
X230512952Y-105981524D01*
X230465333Y-105886286D01*
X230465333Y-105648190D01*
X230512952Y-105552952D01*
X230560571Y-105505333D01*
X230655810Y-105457714D01*
X230893905Y-105457714D01*
X230989143Y-105505333D01*
X231036762Y-105552952D01*
X231084381Y-105648190D01*
X231084381Y-105886286D01*
X231036762Y-105981524D01*
X230989143Y-106029143D01*
X207931429Y-126037857D02*
X208217143Y-127237857D01*
X208445714Y-126380714D01*
X208674286Y-127237857D01*
X208960000Y-126037857D01*
X209417143Y-127237857D02*
X209417143Y-126437857D01*
X209417143Y-126037857D02*
X209360000Y-126095000D01*
X209417143Y-126152143D01*
X209474286Y-126095000D01*
X209417143Y-126037857D01*
X209417143Y-126152143D01*
X209874287Y-126037857D02*
X210674287Y-126037857D01*
X209874287Y-127237857D01*
X210674287Y-127237857D01*
X211645715Y-127237857D02*
X211645715Y-126609286D01*
X211588572Y-126495000D01*
X211474286Y-126437857D01*
X211245715Y-126437857D01*
X211131429Y-126495000D01*
X211645715Y-127180714D02*
X211531429Y-127237857D01*
X211245715Y-127237857D01*
X211131429Y-127180714D01*
X211074286Y-127066429D01*
X211074286Y-126952143D01*
X211131429Y-126837857D01*
X211245715Y-126780714D01*
X211531429Y-126780714D01*
X211645715Y-126723571D01*
X212217143Y-127237857D02*
X212217143Y-126037857D01*
X212902858Y-127237857D01*
X212902858Y-126037857D01*
X213645715Y-127237857D02*
X213531429Y-127180714D01*
X213474286Y-127123571D01*
X213417143Y-127009286D01*
X213417143Y-126666429D01*
X213474286Y-126552143D01*
X213531429Y-126495000D01*
X213645715Y-126437857D01*
X213817143Y-126437857D01*
X213931429Y-126495000D01*
X213988572Y-126552143D01*
X214045715Y-126666429D01*
X214045715Y-127009286D01*
X213988572Y-127123571D01*
X213931429Y-127180714D01*
X213817143Y-127237857D01*
X213645715Y-127237857D01*
X215360001Y-126437857D02*
X215645715Y-127237857D01*
X215931429Y-126437857D01*
X217017144Y-127237857D02*
X216331429Y-127237857D01*
X216674287Y-127237857D02*
X216674287Y-126037857D01*
X216560001Y-126209286D01*
X216445715Y-126323571D01*
X216331429Y-126380714D01*
X217531429Y-127123571D02*
X217588572Y-127180714D01*
X217531429Y-127237857D01*
X217474286Y-127180714D01*
X217531429Y-127123571D01*
X217531429Y-127237857D01*
X218331430Y-126037857D02*
X218445715Y-126037857D01*
X218560001Y-126095000D01*
X218617144Y-126152143D01*
X218674287Y-126266429D01*
X218731430Y-126495000D01*
X218731430Y-126780714D01*
X218674287Y-127009286D01*
X218617144Y-127123571D01*
X218560001Y-127180714D01*
X218445715Y-127237857D01*
X218331430Y-127237857D01*
X218217144Y-127180714D01*
X218160001Y-127123571D01*
X218102858Y-127009286D01*
X218045715Y-126780714D01*
X218045715Y-126495000D01*
X218102858Y-126266429D01*
X218160001Y-126152143D01*
X218217144Y-126095000D01*
X218331430Y-126037857D01*
X210160001Y-127917857D02*
X210274286Y-127917857D01*
X210388572Y-127975000D01*
X210445715Y-128032143D01*
X210502858Y-128146429D01*
X210560001Y-128375000D01*
X210560001Y-128660714D01*
X210502858Y-128889286D01*
X210445715Y-129003571D01*
X210388572Y-129060714D01*
X210274286Y-129117857D01*
X210160001Y-129117857D01*
X210045715Y-129060714D01*
X209988572Y-129003571D01*
X209931429Y-128889286D01*
X209874286Y-128660714D01*
X209874286Y-128375000D01*
X209931429Y-128146429D01*
X209988572Y-128032143D01*
X210045715Y-127975000D01*
X210160001Y-127917857D01*
X211702858Y-129117857D02*
X211017143Y-129117857D01*
X211360001Y-129117857D02*
X211360001Y-127917857D01*
X211245715Y-128089286D01*
X211131429Y-128203571D01*
X211017143Y-128260714D01*
X212217143Y-129003571D02*
X212274286Y-129060714D01*
X212217143Y-129117857D01*
X212160000Y-129060714D01*
X212217143Y-129003571D01*
X212217143Y-129117857D01*
X212731429Y-128032143D02*
X212788572Y-127975000D01*
X212902858Y-127917857D01*
X213188572Y-127917857D01*
X213302858Y-127975000D01*
X213360001Y-128032143D01*
X213417144Y-128146429D01*
X213417144Y-128260714D01*
X213360001Y-128432143D01*
X212674287Y-129117857D01*
X213417144Y-129117857D01*
X214160001Y-127917857D02*
X214274286Y-127917857D01*
X214388572Y-127975000D01*
X214445715Y-128032143D01*
X214502858Y-128146429D01*
X214560001Y-128375000D01*
X214560001Y-128660714D01*
X214502858Y-128889286D01*
X214445715Y-129003571D01*
X214388572Y-129060714D01*
X214274286Y-129117857D01*
X214160001Y-129117857D01*
X214045715Y-129060714D01*
X213988572Y-129003571D01*
X213931429Y-128889286D01*
X213874286Y-128660714D01*
X213874286Y-128375000D01*
X213931429Y-128146429D01*
X213988572Y-128032143D01*
X214045715Y-127975000D01*
X214160001Y-127917857D01*
X215702858Y-129117857D02*
X215017143Y-129117857D01*
X215360001Y-129117857D02*
X215360001Y-127917857D01*
X215245715Y-128089286D01*
X215131429Y-128203571D01*
X215017143Y-128260714D01*
X216731429Y-127917857D02*
X216502858Y-127917857D01*
X216388572Y-127975000D01*
X216331429Y-128032143D01*
X216217143Y-128203571D01*
X216160000Y-128432143D01*
X216160000Y-128889286D01*
X216217143Y-129003571D01*
X216274286Y-129060714D01*
X216388572Y-129117857D01*
X216617143Y-129117857D01*
X216731429Y-129060714D01*
X216788572Y-129003571D01*
X216845715Y-128889286D01*
X216845715Y-128603571D01*
X216788572Y-128489286D01*
X216731429Y-128432143D01*
X216617143Y-128375000D01*
X216388572Y-128375000D01*
X216274286Y-128432143D01*
X216217143Y-128489286D01*
X216160000Y-128603571D01*
D12*
X215900000Y-109220000D03*
D13*
X218400000Y-109220000D03*
D12*
X200660000Y-88900000D03*
D13*
X203160000Y-88900000D03*
D12*
X215900000Y-101600000D03*
D13*
X218400000Y-101600000D03*
D14*
X201930000Y-103505000D03*
X201930000Y-93345000D03*
X217805000Y-95885000D03*
X217805000Y-85725000D03*
X222250000Y-111125000D03*
X222250000Y-100965000D03*
D12*
X226695000Y-127000000D03*
D13*
X229195000Y-127000000D03*
D15*
X205740000Y-88900000D03*
X205740000Y-91440000D03*
X205740000Y-93980000D03*
X205740000Y-96520000D03*
X205740000Y-99060000D03*
X205740000Y-101600000D03*
X205740000Y-104140000D03*
X205740000Y-106680000D03*
X205740000Y-109220000D03*
X205740000Y-111760000D03*
X205740000Y-114300000D03*
X205740000Y-116840000D03*
X205740000Y-119380000D03*
X205740000Y-121920000D03*
X213360000Y-121920000D03*
X213360000Y-119380000D03*
X213360000Y-116840000D03*
X213360000Y-114300000D03*
X213360000Y-111760000D03*
X213360000Y-109220000D03*
X213360000Y-106680000D03*
X213360000Y-104140000D03*
X213360000Y-101600000D03*
X213360000Y-99060000D03*
X213360000Y-96520000D03*
X213360000Y-93980000D03*
X213360000Y-91440000D03*
X213360000Y-88900000D03*
D16*
X189865000Y-112395000D03*
D17*
X189865000Y-114935000D03*
X189865000Y-117475000D03*
X189865000Y-120015000D03*
X189865000Y-122555000D03*
X189865000Y-125095000D03*
D16*
X191135000Y-88265000D03*
D17*
X191135000Y-90805000D03*
X191135000Y-93345000D03*
X191135000Y-95885000D03*
X191135000Y-98425000D03*
X191135000Y-100965000D03*
X191135000Y-103505000D03*
X191135000Y-106045000D03*
D16*
X227965000Y-88265000D03*
D17*
X227965000Y-90805000D03*
X227965000Y-93345000D03*
X227965000Y-95885000D03*
X227965000Y-98425000D03*
X227965000Y-100965000D03*
X227965000Y-103505000D03*
X227965000Y-106045000D03*
D18*
X226695000Y-121920000D03*
D19*
X229235000Y-121920000D03*
X226695000Y-119380000D03*
X229235000Y-119380000D03*
X226695000Y-116840000D03*
X229235000Y-116840000D03*
X226695000Y-114300000D03*
X229235000Y-114300000D03*
D20*
X196850000Y-127000000D03*
D21*
X199390000Y-127000000D03*
D22*
X187960000Y-83820000D03*
X231140000Y-83820000D03*
D12*
X199390000Y-123825000D03*
D13*
X196890000Y-123825000D03*
M02*
