G04 #@! TF.FileFunction,Soldermask,Bot*
%FSLAX46Y46*%
G04 Gerber Fmt 4.6, Leading zero omitted, Abs format (unit mm)*
G04 Created by KiCad (PCBNEW 4.0.1-3.201512221401+6198~38~ubuntu15.10.1-stable) date lun 04 ene 2016 19:36:38 ART*
%MOMM*%
G01*
G04 APERTURE LIST*
%ADD10C,0.100000*%
%ADD11C,0.200000*%
%ADD12R,1.300000X1.300000*%
%ADD13C,1.300000*%
%ADD14C,1.998980*%
%ADD15O,1.600000X1.600000*%
%ADD16R,2.032000X1.727200*%
%ADD17O,2.032000X1.727200*%
%ADD18R,1.727200X1.727200*%
%ADD19O,1.727200X1.727200*%
%ADD20R,2.032000X2.032000*%
%ADD21O,2.032000X2.032000*%
%ADD22C,5.000000*%
G04 APERTURE END LIST*
D10*
D11*
X202764285Y-82787857D02*
X202764285Y-81587857D01*
X202764285Y-82045000D02*
X202649999Y-81987857D01*
X202421428Y-81987857D01*
X202307142Y-82045000D01*
X202249999Y-82102143D01*
X202192856Y-82216429D01*
X202192856Y-82559286D01*
X202249999Y-82673571D01*
X202307142Y-82730714D01*
X202421428Y-82787857D01*
X202649999Y-82787857D01*
X202764285Y-82730714D01*
X201792856Y-81987857D02*
X201507142Y-82787857D01*
X201221428Y-81987857D02*
X201507142Y-82787857D01*
X201621428Y-83073571D01*
X201678571Y-83130714D01*
X201792856Y-83187857D01*
X199907142Y-82730714D02*
X199792856Y-82787857D01*
X199564284Y-82787857D01*
X199449999Y-82730714D01*
X199392856Y-82616429D01*
X199392856Y-82559286D01*
X199449999Y-82445000D01*
X199564284Y-82387857D01*
X199735713Y-82387857D01*
X199849999Y-82330714D01*
X199907142Y-82216429D01*
X199907142Y-82159286D01*
X199849999Y-82045000D01*
X199735713Y-81987857D01*
X199564284Y-81987857D01*
X199449999Y-82045000D01*
X198992855Y-81987857D02*
X198364284Y-81987857D01*
X198992855Y-82787857D01*
X198364284Y-82787857D01*
X197392855Y-82787857D02*
X197392855Y-82159286D01*
X197449998Y-82045000D01*
X197564284Y-81987857D01*
X197792855Y-81987857D01*
X197907141Y-82045000D01*
X197392855Y-82730714D02*
X197507141Y-82787857D01*
X197792855Y-82787857D01*
X197907141Y-82730714D01*
X197964284Y-82616429D01*
X197964284Y-82502143D01*
X197907141Y-82387857D01*
X197792855Y-82330714D01*
X197507141Y-82330714D01*
X197392855Y-82273571D01*
X196992855Y-81987857D02*
X196535712Y-81987857D01*
X196821427Y-82787857D02*
X196821427Y-81759286D01*
X196764284Y-81645000D01*
X196649998Y-81587857D01*
X196535712Y-81587857D01*
X196307141Y-81987857D02*
X195849998Y-81987857D01*
X196135713Y-82787857D02*
X196135713Y-81759286D01*
X196078570Y-81645000D01*
X195964284Y-81587857D01*
X195849998Y-81587857D01*
X194935713Y-82787857D02*
X194935713Y-82159286D01*
X194992856Y-82045000D01*
X195107142Y-81987857D01*
X195335713Y-81987857D01*
X195449999Y-82045000D01*
X194935713Y-82730714D02*
X195049999Y-82787857D01*
X195335713Y-82787857D01*
X195449999Y-82730714D01*
X195507142Y-82616429D01*
X195507142Y-82502143D01*
X195449999Y-82387857D01*
X195335713Y-82330714D01*
X195049999Y-82330714D01*
X194935713Y-82273571D01*
X194364285Y-82787857D02*
X194364285Y-81987857D01*
X194364285Y-82216429D02*
X194307142Y-82102143D01*
X194249999Y-82045000D01*
X194135713Y-81987857D01*
X194021428Y-81987857D01*
X193107142Y-82787857D02*
X193107142Y-82159286D01*
X193164285Y-82045000D01*
X193278571Y-81987857D01*
X193507142Y-81987857D01*
X193621428Y-82045000D01*
X193107142Y-82730714D02*
X193221428Y-82787857D01*
X193507142Y-82787857D01*
X193621428Y-82730714D01*
X193678571Y-82616429D01*
X193678571Y-82502143D01*
X193621428Y-82387857D01*
X193507142Y-82330714D01*
X193221428Y-82330714D01*
X193107142Y-82273571D01*
X192535714Y-81987857D02*
X192535714Y-82787857D01*
X192535714Y-82102143D02*
X192478571Y-82045000D01*
X192364285Y-81987857D01*
X192192857Y-81987857D01*
X192078571Y-82045000D01*
X192021428Y-82159286D01*
X192021428Y-82787857D01*
X191278571Y-82787857D02*
X191392857Y-82730714D01*
X191450000Y-82673571D01*
X191507143Y-82559286D01*
X191507143Y-82216429D01*
X191450000Y-82102143D01*
X191392857Y-82045000D01*
X191278571Y-81987857D01*
X191107143Y-81987857D01*
X190992857Y-82045000D01*
X190935714Y-82102143D01*
X190878571Y-82216429D01*
X190878571Y-82559286D01*
X190935714Y-82673571D01*
X190992857Y-82730714D01*
X191107143Y-82787857D01*
X191278571Y-82787857D01*
X200049999Y-83467857D02*
X199935714Y-83467857D01*
X199821428Y-83525000D01*
X199764285Y-83582143D01*
X199707142Y-83696429D01*
X199649999Y-83925000D01*
X199649999Y-84210714D01*
X199707142Y-84439286D01*
X199764285Y-84553571D01*
X199821428Y-84610714D01*
X199935714Y-84667857D01*
X200049999Y-84667857D01*
X200164285Y-84610714D01*
X200221428Y-84553571D01*
X200278571Y-84439286D01*
X200335714Y-84210714D01*
X200335714Y-83925000D01*
X200278571Y-83696429D01*
X200221428Y-83582143D01*
X200164285Y-83525000D01*
X200049999Y-83467857D01*
X198507142Y-84667857D02*
X199192857Y-84667857D01*
X198849999Y-84667857D02*
X198849999Y-83467857D01*
X198964285Y-83639286D01*
X199078571Y-83753571D01*
X199192857Y-83810714D01*
X197992857Y-84553571D02*
X197935714Y-84610714D01*
X197992857Y-84667857D01*
X198050000Y-84610714D01*
X197992857Y-84553571D01*
X197992857Y-84667857D01*
X197478571Y-83582143D02*
X197421428Y-83525000D01*
X197307142Y-83467857D01*
X197021428Y-83467857D01*
X196907142Y-83525000D01*
X196849999Y-83582143D01*
X196792856Y-83696429D01*
X196792856Y-83810714D01*
X196849999Y-83982143D01*
X197535713Y-84667857D01*
X196792856Y-84667857D01*
X196049999Y-83467857D02*
X195935714Y-83467857D01*
X195821428Y-83525000D01*
X195764285Y-83582143D01*
X195707142Y-83696429D01*
X195649999Y-83925000D01*
X195649999Y-84210714D01*
X195707142Y-84439286D01*
X195764285Y-84553571D01*
X195821428Y-84610714D01*
X195935714Y-84667857D01*
X196049999Y-84667857D01*
X196164285Y-84610714D01*
X196221428Y-84553571D01*
X196278571Y-84439286D01*
X196335714Y-84210714D01*
X196335714Y-83925000D01*
X196278571Y-83696429D01*
X196221428Y-83582143D01*
X196164285Y-83525000D01*
X196049999Y-83467857D01*
X194507142Y-84667857D02*
X195192857Y-84667857D01*
X194849999Y-84667857D02*
X194849999Y-83467857D01*
X194964285Y-83639286D01*
X195078571Y-83753571D01*
X195192857Y-83810714D01*
X193478571Y-83467857D02*
X193707142Y-83467857D01*
X193821428Y-83525000D01*
X193878571Y-83582143D01*
X193992857Y-83753571D01*
X194050000Y-83982143D01*
X194050000Y-84439286D01*
X193992857Y-84553571D01*
X193935714Y-84610714D01*
X193821428Y-84667857D01*
X193592857Y-84667857D01*
X193478571Y-84610714D01*
X193421428Y-84553571D01*
X193364285Y-84439286D01*
X193364285Y-84153571D01*
X193421428Y-84039286D01*
X193478571Y-83982143D01*
X193592857Y-83925000D01*
X193821428Y-83925000D01*
X193935714Y-83982143D01*
X193992857Y-84039286D01*
X194050000Y-84153571D01*
D12*
X215900000Y-109220000D03*
D13*
X218400000Y-109220000D03*
D12*
X200660000Y-88900000D03*
D13*
X203160000Y-88900000D03*
D12*
X215900000Y-101600000D03*
D13*
X218400000Y-101600000D03*
D14*
X201930000Y-103505000D03*
X201930000Y-93345000D03*
X217805000Y-95885000D03*
X217805000Y-85725000D03*
X222250000Y-111125000D03*
X222250000Y-100965000D03*
D12*
X226695000Y-127000000D03*
D13*
X229195000Y-127000000D03*
D15*
X205740000Y-88900000D03*
X205740000Y-91440000D03*
X205740000Y-93980000D03*
X205740000Y-96520000D03*
X205740000Y-99060000D03*
X205740000Y-101600000D03*
X205740000Y-104140000D03*
X205740000Y-106680000D03*
X205740000Y-109220000D03*
X205740000Y-111760000D03*
X205740000Y-114300000D03*
X205740000Y-116840000D03*
X205740000Y-119380000D03*
X205740000Y-121920000D03*
X213360000Y-121920000D03*
X213360000Y-119380000D03*
X213360000Y-116840000D03*
X213360000Y-114300000D03*
X213360000Y-111760000D03*
X213360000Y-109220000D03*
X213360000Y-106680000D03*
X213360000Y-104140000D03*
X213360000Y-101600000D03*
X213360000Y-99060000D03*
X213360000Y-96520000D03*
X213360000Y-93980000D03*
X213360000Y-91440000D03*
X213360000Y-88900000D03*
D16*
X189865000Y-112395000D03*
D17*
X189865000Y-114935000D03*
X189865000Y-117475000D03*
X189865000Y-120015000D03*
X189865000Y-122555000D03*
X189865000Y-125095000D03*
D16*
X191135000Y-88265000D03*
D17*
X191135000Y-90805000D03*
X191135000Y-93345000D03*
X191135000Y-95885000D03*
X191135000Y-98425000D03*
X191135000Y-100965000D03*
X191135000Y-103505000D03*
X191135000Y-106045000D03*
D16*
X227965000Y-88265000D03*
D17*
X227965000Y-90805000D03*
X227965000Y-93345000D03*
X227965000Y-95885000D03*
X227965000Y-98425000D03*
X227965000Y-100965000D03*
X227965000Y-103505000D03*
X227965000Y-106045000D03*
D18*
X226695000Y-121920000D03*
D19*
X229235000Y-121920000D03*
X226695000Y-119380000D03*
X229235000Y-119380000D03*
X226695000Y-116840000D03*
X229235000Y-116840000D03*
X226695000Y-114300000D03*
X229235000Y-114300000D03*
D20*
X196850000Y-127000000D03*
D21*
X199390000Y-127000000D03*
D22*
X187960000Y-83820000D03*
X231140000Y-83820000D03*
D12*
X199390000Y-123825000D03*
D13*
X196890000Y-123825000D03*
M02*
