M48
;DRILL file {KiCad 4.0.1-3.201512221401+6198~38~ubuntu15.10.1-stable} date lun 04 ene 2016 21:29:11 ART
;FORMAT={-:-/ absolute / inch / decimal}
FMAT,2
INCH,TZ
T1C0.016
T2C0.031
T3C0.032
T4C0.039
T5C0.040
T6C0.126
%
G90
G05
M72
T1
X7.61Y-4.75
X7.65Y-4.88
X7.99Y-4.1
X8.48Y-4.15
X8.82Y-3.78
X8.87Y-3.64
T2
X7.85Y-4.875
X7.96Y-3.5
X8.1Y-3.5
X8.1Y-3.6
X8.1Y-3.7
X8.1Y-3.8
X8.1Y-3.9
X8.1Y-4.
X8.1Y-4.1
X8.1Y-4.2
X8.1Y-4.3
X8.1Y-4.4
X8.1Y-4.5
X8.1Y-4.6
X8.1Y-4.7
X8.1Y-4.8
X8.4Y-3.5
X8.4Y-3.6
X8.4Y-3.7
X8.4Y-3.8
X8.4Y-3.9
X8.4Y-4.
X8.4Y-4.1
X8.4Y-4.2
X8.4Y-4.3
X8.4Y-4.4
X8.4Y-4.5
X8.4Y-4.6
X8.4Y-4.7
X8.4Y-4.8
X8.55Y-4.
X8.55Y-4.3
X8.925Y-5.
X9.0234Y-5.
T3
X7.7516Y-4.875
X7.96Y-3.5984
X8.55Y-3.9016
X8.55Y-4.2016
T4
X7.83Y-3.78
X7.83Y-4.18
X8.71Y-4.41
X8.71Y-4.81
X8.72Y-3.39
X8.72Y-3.79
T5
X7.475Y-4.425
X7.475Y-4.525
X7.475Y-4.625
X7.475Y-4.725
X7.475Y-4.825
X7.475Y-4.925
X7.525Y-3.475
X7.525Y-3.575
X7.525Y-3.675
X7.525Y-3.775
X7.525Y-3.875
X7.525Y-3.975
X7.525Y-4.075
X7.525Y-4.175
X7.75Y-5.
X7.85Y-5.
X8.925Y-4.5
X8.925Y-4.6
X8.925Y-4.7
X8.925Y-4.8
X8.975Y-3.475
X8.975Y-3.575
X8.975Y-3.675
X8.975Y-3.775
X8.975Y-3.875
X8.975Y-3.975
X8.975Y-4.075
X8.975Y-4.175
X9.025Y-4.5
X9.025Y-4.6
X9.025Y-4.7
X9.025Y-4.8
T6
X7.4Y-3.3
X9.1Y-3.3
T0
M30
