G04 #@! TF.FileFunction,Legend,Top*
%FSLAX46Y46*%
G04 Gerber Fmt 4.6, Leading zero omitted, Abs format (unit mm)*
G04 Created by KiCad (PCBNEW 4.0.1-3.201512221401+6198~38~ubuntu15.10.1-stable) date lun 04 ene 2016 19:36:38 ART*
%MOMM*%
G01*
G04 APERTURE LIST*
%ADD10C,0.100000*%
%ADD11C,0.150000*%
G04 APERTURE END LIST*
D10*
D11*
X215650000Y-107970000D02*
X218650000Y-107970000D01*
X218650000Y-110470000D02*
X215650000Y-110470000D01*
X200410000Y-87650000D02*
X203410000Y-87650000D01*
X203410000Y-90150000D02*
X200410000Y-90150000D01*
X215650000Y-100350000D02*
X218650000Y-100350000D01*
X218650000Y-102850000D02*
X215650000Y-102850000D01*
X200660000Y-100965000D02*
X200660000Y-95885000D01*
X200660000Y-95885000D02*
X203200000Y-95885000D01*
X203200000Y-95885000D02*
X203200000Y-100965000D01*
X203200000Y-100965000D02*
X200660000Y-100965000D01*
X201930000Y-100965000D02*
X201930000Y-102235000D01*
X201930000Y-95885000D02*
X201930000Y-94615000D01*
X216535000Y-93345000D02*
X216535000Y-88265000D01*
X216535000Y-88265000D02*
X219075000Y-88265000D01*
X219075000Y-88265000D02*
X219075000Y-93345000D01*
X219075000Y-93345000D02*
X216535000Y-93345000D01*
X217805000Y-93345000D02*
X217805000Y-94615000D01*
X217805000Y-88265000D02*
X217805000Y-86995000D01*
X220980000Y-108585000D02*
X220980000Y-103505000D01*
X220980000Y-103505000D02*
X223520000Y-103505000D01*
X223520000Y-103505000D02*
X223520000Y-108585000D01*
X223520000Y-108585000D02*
X220980000Y-108585000D01*
X222250000Y-108585000D02*
X222250000Y-109855000D01*
X222250000Y-103505000D02*
X222250000Y-102235000D01*
X228020000Y-124501000D02*
X228020000Y-129499000D01*
X228160000Y-124509000D02*
X228160000Y-129491000D01*
X228300000Y-124525000D02*
X228300000Y-126905000D01*
X228300000Y-127095000D02*
X228300000Y-129475000D01*
X228440000Y-124549000D02*
X228440000Y-126510000D01*
X228440000Y-127490000D02*
X228440000Y-129451000D01*
X228580000Y-124582000D02*
X228580000Y-126343000D01*
X228580000Y-127657000D02*
X228580000Y-129418000D01*
X228720000Y-124623000D02*
X228720000Y-126236000D01*
X228720000Y-127764000D02*
X228720000Y-129377000D01*
X228860000Y-124673000D02*
X228860000Y-126165000D01*
X228860000Y-127835000D02*
X228860000Y-129327000D01*
X229000000Y-124734000D02*
X229000000Y-126121000D01*
X229000000Y-127879000D02*
X229000000Y-129266000D01*
X229140000Y-124804000D02*
X229140000Y-126102000D01*
X229140000Y-127898000D02*
X229140000Y-129196000D01*
X229280000Y-124886000D02*
X229280000Y-126104000D01*
X229280000Y-127896000D02*
X229280000Y-129114000D01*
X229420000Y-124981000D02*
X229420000Y-126129000D01*
X229420000Y-127871000D02*
X229420000Y-129019000D01*
X229560000Y-125092000D02*
X229560000Y-126177000D01*
X229560000Y-127823000D02*
X229560000Y-128908000D01*
X229700000Y-125220000D02*
X229700000Y-126255000D01*
X229700000Y-127745000D02*
X229700000Y-128780000D01*
X229840000Y-125369000D02*
X229840000Y-126372000D01*
X229840000Y-127628000D02*
X229840000Y-128631000D01*
X229980000Y-125548000D02*
X229980000Y-126560000D01*
X229980000Y-127440000D02*
X229980000Y-128452000D01*
X230120000Y-125767000D02*
X230120000Y-128233000D01*
X230260000Y-126056000D02*
X230260000Y-127944000D01*
X230400000Y-126528000D02*
X230400000Y-127472000D01*
X230095000Y-127000000D02*
G75*
G03X230095000Y-127000000I-900000J0D01*
G01*
X230482500Y-127000000D02*
G75*
G03X230482500Y-127000000I-2537500J0D01*
G01*
X205875000Y-86605000D02*
X205875000Y-87875000D01*
X213225000Y-86605000D02*
X213225000Y-87875000D01*
X213225000Y-124215000D02*
X213225000Y-122945000D01*
X205875000Y-124215000D02*
X205875000Y-122945000D01*
X205875000Y-86605000D02*
X213225000Y-86605000D01*
X205875000Y-124215000D02*
X213225000Y-124215000D01*
X205875000Y-87875000D02*
X204940000Y-87875000D01*
X191135000Y-113665000D02*
X191135000Y-126365000D01*
X191135000Y-126365000D02*
X188595000Y-126365000D01*
X188595000Y-126365000D02*
X188595000Y-113665000D01*
X191415000Y-110845000D02*
X191415000Y-112395000D01*
X191135000Y-113665000D02*
X188595000Y-113665000D01*
X188315000Y-112395000D02*
X188315000Y-110845000D01*
X188315000Y-110845000D02*
X191415000Y-110845000D01*
X192405000Y-89535000D02*
X192405000Y-107315000D01*
X192405000Y-107315000D02*
X189865000Y-107315000D01*
X189865000Y-107315000D02*
X189865000Y-89535000D01*
X192685000Y-86715000D02*
X192685000Y-88265000D01*
X192405000Y-89535000D02*
X189865000Y-89535000D01*
X189585000Y-88265000D02*
X189585000Y-86715000D01*
X189585000Y-86715000D02*
X192685000Y-86715000D01*
X229235000Y-89535000D02*
X229235000Y-107315000D01*
X229235000Y-107315000D02*
X226695000Y-107315000D01*
X226695000Y-107315000D02*
X226695000Y-89535000D01*
X229515000Y-86715000D02*
X229515000Y-88265000D01*
X229235000Y-89535000D02*
X226695000Y-89535000D01*
X226415000Y-88265000D02*
X226415000Y-86715000D01*
X226415000Y-86715000D02*
X229515000Y-86715000D01*
X225425000Y-120650000D02*
X225425000Y-113030000D01*
X225425000Y-113030000D02*
X230505000Y-113030000D01*
X230505000Y-113030000D02*
X230505000Y-123190000D01*
X230505000Y-123190000D02*
X227965000Y-123190000D01*
X225145000Y-121920000D02*
X225145000Y-123470000D01*
X227965000Y-123190000D02*
X227965000Y-120650000D01*
X227965000Y-120650000D02*
X225425000Y-120650000D01*
X225145000Y-123470000D02*
X226695000Y-123470000D01*
X198120000Y-125730000D02*
X200660000Y-125730000D01*
X195300000Y-125450000D02*
X196850000Y-125450000D01*
X198120000Y-125730000D02*
X198120000Y-128270000D01*
X196850000Y-128550000D02*
X195300000Y-128550000D01*
X195300000Y-128550000D02*
X195300000Y-125450000D01*
X198120000Y-128270000D02*
X200660000Y-128270000D01*
X200660000Y-128270000D02*
X200660000Y-125730000D01*
X190246000Y-83820000D02*
G75*
G03X190246000Y-83820000I-2286000J0D01*
G01*
X233426000Y-83820000D02*
G75*
G03X233426000Y-83820000I-2286000J0D01*
G01*
X199640000Y-125075000D02*
X196640000Y-125075000D01*
X196640000Y-122575000D02*
X199640000Y-122575000D01*
X216983334Y-107077143D02*
X216935715Y-107124762D01*
X216792858Y-107172381D01*
X216697620Y-107172381D01*
X216554762Y-107124762D01*
X216459524Y-107029524D01*
X216411905Y-106934286D01*
X216364286Y-106743810D01*
X216364286Y-106600952D01*
X216411905Y-106410476D01*
X216459524Y-106315238D01*
X216554762Y-106220000D01*
X216697620Y-106172381D01*
X216792858Y-106172381D01*
X216935715Y-106220000D01*
X216983334Y-106267619D01*
X217935715Y-107172381D02*
X217364286Y-107172381D01*
X217650000Y-107172381D02*
X217650000Y-106172381D01*
X217554762Y-106315238D01*
X217459524Y-106410476D01*
X217364286Y-106458095D01*
X201743334Y-86757143D02*
X201695715Y-86804762D01*
X201552858Y-86852381D01*
X201457620Y-86852381D01*
X201314762Y-86804762D01*
X201219524Y-86709524D01*
X201171905Y-86614286D01*
X201124286Y-86423810D01*
X201124286Y-86280952D01*
X201171905Y-86090476D01*
X201219524Y-85995238D01*
X201314762Y-85900000D01*
X201457620Y-85852381D01*
X201552858Y-85852381D01*
X201695715Y-85900000D01*
X201743334Y-85947619D01*
X202076667Y-85852381D02*
X202695715Y-85852381D01*
X202362381Y-86233333D01*
X202505239Y-86233333D01*
X202600477Y-86280952D01*
X202648096Y-86328571D01*
X202695715Y-86423810D01*
X202695715Y-86661905D01*
X202648096Y-86757143D01*
X202600477Y-86804762D01*
X202505239Y-86852381D01*
X202219524Y-86852381D01*
X202124286Y-86804762D01*
X202076667Y-86757143D01*
X216983334Y-99457143D02*
X216935715Y-99504762D01*
X216792858Y-99552381D01*
X216697620Y-99552381D01*
X216554762Y-99504762D01*
X216459524Y-99409524D01*
X216411905Y-99314286D01*
X216364286Y-99123810D01*
X216364286Y-98980952D01*
X216411905Y-98790476D01*
X216459524Y-98695238D01*
X216554762Y-98600000D01*
X216697620Y-98552381D01*
X216792858Y-98552381D01*
X216935715Y-98600000D01*
X216983334Y-98647619D01*
X217840477Y-98885714D02*
X217840477Y-99552381D01*
X217602381Y-98504762D02*
X217364286Y-99219048D01*
X217983334Y-99219048D01*
X199842381Y-98591666D02*
X199366190Y-98925000D01*
X199842381Y-99163095D02*
X198842381Y-99163095D01*
X198842381Y-98782142D01*
X198890000Y-98686904D01*
X198937619Y-98639285D01*
X199032857Y-98591666D01*
X199175714Y-98591666D01*
X199270952Y-98639285D01*
X199318571Y-98686904D01*
X199366190Y-98782142D01*
X199366190Y-99163095D01*
X199842381Y-97639285D02*
X199842381Y-98210714D01*
X199842381Y-97925000D02*
X198842381Y-97925000D01*
X198985238Y-98020238D01*
X199080476Y-98115476D01*
X199128095Y-98210714D01*
X220797381Y-90971666D02*
X220321190Y-91305000D01*
X220797381Y-91543095D02*
X219797381Y-91543095D01*
X219797381Y-91162142D01*
X219845000Y-91066904D01*
X219892619Y-91019285D01*
X219987857Y-90971666D01*
X220130714Y-90971666D01*
X220225952Y-91019285D01*
X220273571Y-91066904D01*
X220321190Y-91162142D01*
X220321190Y-91543095D01*
X219892619Y-90590714D02*
X219845000Y-90543095D01*
X219797381Y-90447857D01*
X219797381Y-90209761D01*
X219845000Y-90114523D01*
X219892619Y-90066904D01*
X219987857Y-90019285D01*
X220083095Y-90019285D01*
X220225952Y-90066904D01*
X220797381Y-90638333D01*
X220797381Y-90019285D01*
X225242381Y-106211666D02*
X224766190Y-106545000D01*
X225242381Y-106783095D02*
X224242381Y-106783095D01*
X224242381Y-106402142D01*
X224290000Y-106306904D01*
X224337619Y-106259285D01*
X224432857Y-106211666D01*
X224575714Y-106211666D01*
X224670952Y-106259285D01*
X224718571Y-106306904D01*
X224766190Y-106402142D01*
X224766190Y-106783095D01*
X224242381Y-105878333D02*
X224242381Y-105259285D01*
X224623333Y-105592619D01*
X224623333Y-105449761D01*
X224670952Y-105354523D01*
X224718571Y-105306904D01*
X224813810Y-105259285D01*
X225051905Y-105259285D01*
X225147143Y-105306904D01*
X225194762Y-105354523D01*
X225242381Y-105449761D01*
X225242381Y-105735476D01*
X225194762Y-105830714D01*
X225147143Y-105878333D01*
X223988334Y-128627143D02*
X223940715Y-128674762D01*
X223797858Y-128722381D01*
X223702620Y-128722381D01*
X223559762Y-128674762D01*
X223464524Y-128579524D01*
X223416905Y-128484286D01*
X223369286Y-128293810D01*
X223369286Y-128150952D01*
X223416905Y-127960476D01*
X223464524Y-127865238D01*
X223559762Y-127770000D01*
X223702620Y-127722381D01*
X223797858Y-127722381D01*
X223940715Y-127770000D01*
X223988334Y-127817619D01*
X224369286Y-127817619D02*
X224416905Y-127770000D01*
X224512143Y-127722381D01*
X224750239Y-127722381D01*
X224845477Y-127770000D01*
X224893096Y-127817619D01*
X224940715Y-127912857D01*
X224940715Y-128008095D01*
X224893096Y-128150952D01*
X224321667Y-128722381D01*
X224940715Y-128722381D01*
X208573810Y-85542381D02*
X208573810Y-84542381D01*
X209621429Y-85447143D02*
X209573810Y-85494762D01*
X209430953Y-85542381D01*
X209335715Y-85542381D01*
X209192857Y-85494762D01*
X209097619Y-85399524D01*
X209050000Y-85304286D01*
X209002381Y-85113810D01*
X209002381Y-84970952D01*
X209050000Y-84780476D01*
X209097619Y-84685238D01*
X209192857Y-84590000D01*
X209335715Y-84542381D01*
X209430953Y-84542381D01*
X209573810Y-84590000D01*
X209621429Y-84637619D01*
X210573810Y-85542381D02*
X210002381Y-85542381D01*
X210288095Y-85542381D02*
X210288095Y-84542381D01*
X210192857Y-84685238D01*
X210097619Y-84780476D01*
X210002381Y-84828095D01*
X189126905Y-128087381D02*
X189126905Y-127087381D01*
X189507858Y-127087381D01*
X189603096Y-127135000D01*
X189650715Y-127182619D01*
X189698334Y-127277857D01*
X189698334Y-127420714D01*
X189650715Y-127515952D01*
X189603096Y-127563571D01*
X189507858Y-127611190D01*
X189126905Y-127611190D01*
X190079286Y-127182619D02*
X190126905Y-127135000D01*
X190222143Y-127087381D01*
X190460239Y-127087381D01*
X190555477Y-127135000D01*
X190603096Y-127182619D01*
X190650715Y-127277857D01*
X190650715Y-127373095D01*
X190603096Y-127515952D01*
X190031667Y-128087381D01*
X190650715Y-128087381D01*
X194127381Y-107418095D02*
X193127381Y-107418095D01*
X193127381Y-107037142D01*
X193175000Y-106941904D01*
X193222619Y-106894285D01*
X193317857Y-106846666D01*
X193460714Y-106846666D01*
X193555952Y-106894285D01*
X193603571Y-106941904D01*
X193651190Y-107037142D01*
X193651190Y-107418095D01*
X193460714Y-105989523D02*
X194127381Y-105989523D01*
X193079762Y-106227619D02*
X193794048Y-106465714D01*
X193794048Y-105846666D01*
X227353905Y-109164381D02*
X227353905Y-108164381D01*
X227734858Y-108164381D01*
X227830096Y-108212000D01*
X227877715Y-108259619D01*
X227925334Y-108354857D01*
X227925334Y-108497714D01*
X227877715Y-108592952D01*
X227830096Y-108640571D01*
X227734858Y-108688190D01*
X227353905Y-108688190D01*
X228830096Y-108164381D02*
X228353905Y-108164381D01*
X228306286Y-108640571D01*
X228353905Y-108592952D01*
X228449143Y-108545333D01*
X228687239Y-108545333D01*
X228782477Y-108592952D01*
X228830096Y-108640571D01*
X228877715Y-108735810D01*
X228877715Y-108973905D01*
X228830096Y-109069143D01*
X228782477Y-109116762D01*
X228687239Y-109164381D01*
X228449143Y-109164381D01*
X228353905Y-109116762D01*
X228306286Y-109069143D01*
X232227381Y-123928095D02*
X231227381Y-123928095D01*
X231227381Y-123547142D01*
X231275000Y-123451904D01*
X231322619Y-123404285D01*
X231417857Y-123356666D01*
X231560714Y-123356666D01*
X231655952Y-123404285D01*
X231703571Y-123451904D01*
X231751190Y-123547142D01*
X231751190Y-123928095D01*
X232227381Y-122404285D02*
X232227381Y-122975714D01*
X232227381Y-122690000D02*
X231227381Y-122690000D01*
X231370238Y-122785238D01*
X231465476Y-122880476D01*
X231513095Y-122975714D01*
X202382381Y-127738095D02*
X201382381Y-127738095D01*
X201382381Y-127357142D01*
X201430000Y-127261904D01*
X201477619Y-127214285D01*
X201572857Y-127166666D01*
X201715714Y-127166666D01*
X201810952Y-127214285D01*
X201858571Y-127261904D01*
X201906190Y-127357142D01*
X201906190Y-127738095D01*
X201382381Y-126833333D02*
X201382381Y-126214285D01*
X201763333Y-126547619D01*
X201763333Y-126404761D01*
X201810952Y-126309523D01*
X201858571Y-126261904D01*
X201953810Y-126214285D01*
X202191905Y-126214285D01*
X202287143Y-126261904D01*
X202334762Y-126309523D01*
X202382381Y-126404761D01*
X202382381Y-126690476D01*
X202334762Y-126785714D01*
X202287143Y-126833333D01*
X202033143Y-124118666D02*
X202080762Y-124166285D01*
X202128381Y-124309142D01*
X202128381Y-124404380D01*
X202080762Y-124547238D01*
X201985524Y-124642476D01*
X201890286Y-124690095D01*
X201699810Y-124737714D01*
X201556952Y-124737714D01*
X201366476Y-124690095D01*
X201271238Y-124642476D01*
X201176000Y-124547238D01*
X201128381Y-124404380D01*
X201128381Y-124309142D01*
X201176000Y-124166285D01*
X201223619Y-124118666D01*
X201128381Y-123213904D02*
X201128381Y-123690095D01*
X201604571Y-123737714D01*
X201556952Y-123690095D01*
X201509333Y-123594857D01*
X201509333Y-123356761D01*
X201556952Y-123261523D01*
X201604571Y-123213904D01*
X201699810Y-123166285D01*
X201937905Y-123166285D01*
X202033143Y-123213904D01*
X202080762Y-123261523D01*
X202128381Y-123356761D01*
X202128381Y-123594857D01*
X202080762Y-123690095D01*
X202033143Y-123737714D01*
M02*
