M48
;DRILL file {KiCad 4.0.1-3.201512221401+6198~38~ubuntu15.10.1-stable} date dom 03 ene 2016 23:47:12 ART
;FORMAT={-:-/ absolute / inch / decimal}
FMAT,2
INCH,TZ
T1C0.016
T2C0.031
T3C0.032
T4C0.039
T5C0.040
T6C0.126
%
G90
G05
M72
T1
X6.6039Y-5.5244
T2
X6.1417Y-3.9764
X6.2598Y-5.6693
X6.2598Y-5.7677
X6.3386Y-4.0945
X6.3386Y-4.1945
X6.3386Y-4.2945
X6.3386Y-4.3945
X6.3386Y-4.4945
X6.3386Y-4.5945
X6.3386Y-4.6945
X6.3386Y-4.7945
X6.3386Y-4.8945
X6.3386Y-4.9945
X6.3386Y-5.0945
X6.3386Y-5.1945
X6.3386Y-5.2945
X6.3386Y-5.3945
X6.6386Y-4.0945
X6.6386Y-4.1945
X6.6386Y-4.2945
X6.6386Y-4.3945
X6.6386Y-4.4945
X6.6386Y-4.5945
X6.6386Y-4.6945
X6.6386Y-4.7945
X6.6386Y-4.8945
X6.6386Y-4.9945
X6.6386Y-5.0945
X6.6386Y-5.1945
X6.6386Y-5.2945
X6.6386Y-5.3945
X6.7913Y-4.5965
X6.9193Y-4.7933
T3
X6.1417Y-3.878
X6.8209Y-4.7933
X6.8898Y-4.5965
T4
X6.1319Y-4.1307
X6.1319Y-4.5307
X6.8406Y-5.0067
X6.8406Y-5.4067
X6.8504Y-3.9437
X6.8504Y-4.3437
T5
X5.9154Y-5.
X5.9154Y-5.1
X5.9154Y-5.2
X5.9154Y-5.3
X5.9154Y-5.4
X5.9154Y-5.5
X5.9154Y-5.6
X5.9154Y-5.7
X6.1205Y-3.5827
X6.2205Y-3.5827
X6.4961Y-5.648
X6.4961Y-5.748
X6.5961Y-5.648
X6.5961Y-5.748
X6.626Y-3.5827
X6.6961Y-5.648
X6.6961Y-5.748
X6.726Y-3.5827
X6.7961Y-5.648
X6.7961Y-5.748
X6.826Y-3.5827
X6.926Y-3.5827
X7.026Y-3.5827
X7.126Y-3.5827
X7.2343Y-5.2988
X7.2343Y-5.3988
X7.2343Y-5.4988
X7.2343Y-5.5988
X7.2343Y-5.6988
T6
X5.7874Y-3.4646
X7.3622Y-3.4646
T0
M30
