G04 #@! TF.FileFunction,Legend,Top*
%FSLAX46Y46*%
G04 Gerber Fmt 4.6, Leading zero omitted, Abs format (unit mm)*
G04 Created by KiCad (PCBNEW 4.0.1-3.201512221401+6198~38~ubuntu15.10.1-stable) date dom 03 ene 2016 23:47:09 ART*
%MOMM*%
G01*
G04 APERTURE LIST*
%ADD10C,0.100000*%
%ADD11C,0.150000*%
G04 APERTURE END LIST*
D10*
D11*
X176000000Y-123000000D02*
X173000000Y-123000000D01*
X173000000Y-120500000D02*
X176000000Y-120500000D01*
X161499000Y-145325000D02*
X156501000Y-145325000D01*
X161491000Y-145465000D02*
X156509000Y-145465000D01*
X161475000Y-145605000D02*
X159095000Y-145605000D01*
X158905000Y-145605000D02*
X156525000Y-145605000D01*
X161451000Y-145745000D02*
X159490000Y-145745000D01*
X158510000Y-145745000D02*
X156549000Y-145745000D01*
X161418000Y-145885000D02*
X159657000Y-145885000D01*
X158343000Y-145885000D02*
X156582000Y-145885000D01*
X161377000Y-146025000D02*
X159764000Y-146025000D01*
X158236000Y-146025000D02*
X156623000Y-146025000D01*
X161327000Y-146165000D02*
X159835000Y-146165000D01*
X158165000Y-146165000D02*
X156673000Y-146165000D01*
X161266000Y-146305000D02*
X159879000Y-146305000D01*
X158121000Y-146305000D02*
X156734000Y-146305000D01*
X161196000Y-146445000D02*
X159898000Y-146445000D01*
X158102000Y-146445000D02*
X156804000Y-146445000D01*
X161114000Y-146585000D02*
X159896000Y-146585000D01*
X158104000Y-146585000D02*
X156886000Y-146585000D01*
X161019000Y-146725000D02*
X159871000Y-146725000D01*
X158129000Y-146725000D02*
X156981000Y-146725000D01*
X160908000Y-146865000D02*
X159823000Y-146865000D01*
X158177000Y-146865000D02*
X157092000Y-146865000D01*
X160780000Y-147005000D02*
X159745000Y-147005000D01*
X158255000Y-147005000D02*
X157220000Y-147005000D01*
X160631000Y-147145000D02*
X159628000Y-147145000D01*
X158372000Y-147145000D02*
X157369000Y-147145000D01*
X160452000Y-147285000D02*
X159440000Y-147285000D01*
X158560000Y-147285000D02*
X157548000Y-147285000D01*
X160233000Y-147425000D02*
X157767000Y-147425000D01*
X159944000Y-147565000D02*
X158056000Y-147565000D01*
X159472000Y-147705000D02*
X158528000Y-147705000D01*
X159900000Y-146500000D02*
G75*
G03X159900000Y-146500000I-900000J0D01*
G01*
X161537500Y-145250000D02*
G75*
G03X161537500Y-145250000I-2537500J0D01*
G01*
X154750000Y-101250000D02*
X154750000Y-98250000D01*
X157250000Y-98250000D02*
X157250000Y-101250000D01*
X172250000Y-115500000D02*
X175250000Y-115500000D01*
X175250000Y-118000000D02*
X172250000Y-118000000D01*
X161135000Y-101705000D02*
X161135000Y-102975000D01*
X168485000Y-101705000D02*
X168485000Y-102975000D01*
X168485000Y-139315000D02*
X168485000Y-138045000D01*
X161135000Y-139315000D02*
X161135000Y-138045000D01*
X161135000Y-101705000D02*
X168485000Y-101705000D01*
X161135000Y-139315000D02*
X168485000Y-139315000D01*
X161135000Y-102975000D02*
X160200000Y-102975000D01*
X166270000Y-147270000D02*
X173890000Y-147270000D01*
X173890000Y-147270000D02*
X173890000Y-142190000D01*
X173890000Y-142190000D02*
X163730000Y-142190000D01*
X163730000Y-142190000D02*
X163730000Y-144730000D01*
X163450000Y-146000000D02*
X163450000Y-147550000D01*
X163730000Y-144730000D02*
X166270000Y-144730000D01*
X166270000Y-144730000D02*
X166270000Y-147270000D01*
X163450000Y-147550000D02*
X165000000Y-147550000D01*
X179730000Y-92270000D02*
X167030000Y-92270000D01*
X167030000Y-92270000D02*
X167030000Y-89730000D01*
X167030000Y-89730000D02*
X179730000Y-89730000D01*
X182550000Y-92550000D02*
X181000000Y-92550000D01*
X179730000Y-92270000D02*
X179730000Y-89730000D01*
X181000000Y-89450000D02*
X182550000Y-89450000D01*
X182550000Y-89450000D02*
X182550000Y-92550000D01*
X156730000Y-92270000D02*
X154190000Y-92270000D01*
X159550000Y-92550000D02*
X158000000Y-92550000D01*
X156730000Y-92270000D02*
X156730000Y-89730000D01*
X158000000Y-89450000D02*
X159550000Y-89450000D01*
X159550000Y-89450000D02*
X159550000Y-92550000D01*
X156730000Y-89730000D02*
X154190000Y-89730000D01*
X154190000Y-89730000D02*
X154190000Y-92270000D01*
X151520000Y-128270000D02*
X151520000Y-146050000D01*
X151520000Y-146050000D02*
X148980000Y-146050000D01*
X148980000Y-146050000D02*
X148980000Y-128270000D01*
X151800000Y-125450000D02*
X151800000Y-127000000D01*
X151520000Y-128270000D02*
X148980000Y-128270000D01*
X148700000Y-127000000D02*
X148700000Y-125450000D01*
X148700000Y-125450000D02*
X151800000Y-125450000D01*
X185300000Y-144750000D02*
X185300000Y-146300000D01*
X185300000Y-146300000D02*
X182200000Y-146300000D01*
X182200000Y-146300000D02*
X182200000Y-144750000D01*
X182480000Y-143480000D02*
X182480000Y-133320000D01*
X182480000Y-133320000D02*
X185020000Y-133320000D01*
X185020000Y-133320000D02*
X185020000Y-143480000D01*
X182480000Y-143480000D02*
X185020000Y-143480000D01*
X154480000Y-112540000D02*
X154480000Y-107460000D01*
X154480000Y-107460000D02*
X157020000Y-107460000D01*
X157020000Y-107460000D02*
X157020000Y-112540000D01*
X157020000Y-112540000D02*
X154480000Y-112540000D01*
X155750000Y-112540000D02*
X155750000Y-113810000D01*
X155750000Y-107460000D02*
X155750000Y-106190000D01*
X172480000Y-134790000D02*
X172480000Y-129710000D01*
X172480000Y-129710000D02*
X175020000Y-129710000D01*
X175020000Y-129710000D02*
X175020000Y-134790000D01*
X175020000Y-134790000D02*
X172480000Y-134790000D01*
X173750000Y-134790000D02*
X173750000Y-136060000D01*
X173750000Y-129710000D02*
X173750000Y-128440000D01*
X172730000Y-107790000D02*
X172730000Y-102710000D01*
X172730000Y-102710000D02*
X175270000Y-102710000D01*
X175270000Y-102710000D02*
X175270000Y-107790000D01*
X175270000Y-107790000D02*
X172730000Y-107790000D01*
X174000000Y-107790000D02*
X174000000Y-109060000D01*
X174000000Y-102710000D02*
X174000000Y-101440000D01*
X189286000Y-88000000D02*
G75*
G03X189286000Y-88000000I-2286000J0D01*
G01*
X149286000Y-88000000D02*
G75*
G03X149286000Y-88000000I-2286000J0D01*
G01*
X186168780Y-102189860D02*
X186529460Y-103660520D01*
X186529460Y-103660520D02*
X186808860Y-102598800D01*
X186808860Y-102598800D02*
X187118740Y-103670680D01*
X187118740Y-103670680D02*
X187459100Y-102220340D01*
X184748920Y-102880740D02*
X185538860Y-102870580D01*
X185538860Y-102870580D02*
X185549020Y-102880740D01*
X185549020Y-102880740D02*
X185549020Y-102870580D01*
X185589660Y-102159380D02*
X185589660Y-103701160D01*
X184700660Y-102149220D02*
X184700660Y-103718940D01*
X184700660Y-103718940D02*
X184710820Y-103708780D01*
X184149480Y-102250820D02*
X183798960Y-102169540D01*
X183798960Y-102169540D02*
X183478920Y-102159380D01*
X183478920Y-102159380D02*
X183240160Y-102360040D01*
X183240160Y-102360040D02*
X183209680Y-102629280D01*
X183209680Y-102629280D02*
X183450980Y-102870580D01*
X183450980Y-102870580D02*
X183839600Y-103000120D01*
X183839600Y-103000120D02*
X184019940Y-103160140D01*
X184019940Y-103160140D02*
X184060580Y-103459860D01*
X184060580Y-103459860D02*
X183829440Y-103680840D01*
X183829440Y-103680840D02*
X183509400Y-103708780D01*
X183509400Y-103708780D02*
X183158880Y-103599560D01*
X182120020Y-102149220D02*
X181871100Y-102169540D01*
X181871100Y-102169540D02*
X181629800Y-102410840D01*
X181629800Y-102410840D02*
X181540900Y-102901060D01*
X181540900Y-102901060D02*
X181568840Y-103249040D01*
X181568840Y-103249040D02*
X181769500Y-103569080D01*
X181769500Y-103569080D02*
X182020960Y-103691000D01*
X182020960Y-103691000D02*
X182330840Y-103619880D01*
X182330840Y-103619880D02*
X182549280Y-103439540D01*
X182549280Y-103439540D02*
X182620400Y-102979800D01*
X182620400Y-102979800D02*
X182569600Y-102570860D01*
X182569600Y-102570860D02*
X182460380Y-102288920D01*
X182460380Y-102288920D02*
X182099700Y-102159380D01*
X182719460Y-100429640D02*
X182460380Y-100990980D01*
X182460380Y-100990980D02*
X182998860Y-101509140D01*
X182998860Y-101509140D02*
X183519560Y-101239900D01*
X183519560Y-101239900D02*
X183798960Y-101399920D01*
X185239140Y-101379600D02*
X185569340Y-101189100D01*
X185569340Y-101189100D02*
X186008760Y-101519300D01*
X186008760Y-101519300D02*
X186481200Y-101029080D01*
X186481200Y-101029080D02*
X186199260Y-100549020D01*
X186199260Y-100549020D02*
X186389760Y-100079120D01*
X186389760Y-100079120D02*
X186999360Y-99891160D01*
X186999360Y-99891160D02*
X186999360Y-99210440D01*
X186999360Y-99210440D02*
X186440560Y-99070740D01*
X186440560Y-99070740D02*
X186239900Y-98499240D01*
X186239900Y-98499240D02*
X186509140Y-98029340D01*
X186509140Y-98029340D02*
X186039240Y-97518800D01*
X186039240Y-97518800D02*
X185521080Y-97780420D01*
X185521080Y-97780420D02*
X185051180Y-97579760D01*
X185051180Y-97579760D02*
X184881000Y-97038740D01*
X184881000Y-97038740D02*
X184190120Y-97020960D01*
X184190120Y-97020960D02*
X183979300Y-97569600D01*
X183979300Y-97569600D02*
X183560200Y-97739780D01*
X183560200Y-97739780D02*
X183009020Y-97470540D01*
X183009020Y-97470540D02*
X182490860Y-97998860D01*
X182490860Y-97998860D02*
X182739780Y-98539880D01*
X182739780Y-98539880D02*
X182569600Y-99019940D01*
X182569600Y-99019940D02*
X182020960Y-99119000D01*
X182020960Y-99119000D02*
X182010800Y-99820040D01*
X182010800Y-99820040D02*
X182569600Y-100020700D01*
X182569600Y-100020700D02*
X182709300Y-100419480D01*
X184850520Y-100399160D02*
X185150240Y-100249300D01*
X185150240Y-100249300D02*
X185350900Y-100051180D01*
X185350900Y-100051180D02*
X185500760Y-99649860D01*
X185500760Y-99649860D02*
X185500760Y-99251080D01*
X185500760Y-99251080D02*
X185350900Y-98900560D01*
X185350900Y-98900560D02*
X184898780Y-98550040D01*
X184898780Y-98550040D02*
X184449200Y-98499240D01*
X184449200Y-98499240D02*
X184050420Y-98600840D01*
X184050420Y-98600840D02*
X183649100Y-98948820D01*
X183649100Y-98948820D02*
X183499240Y-99400940D01*
X183499240Y-99400940D02*
X183550040Y-99898780D01*
X183550040Y-99898780D02*
X183798960Y-100201040D01*
X183798960Y-100201040D02*
X184149480Y-100399160D01*
X184149480Y-100399160D02*
X183798960Y-101399920D01*
X184850520Y-100399160D02*
X185249300Y-101399920D01*
X177583334Y-122357143D02*
X177535715Y-122404762D01*
X177392858Y-122452381D01*
X177297620Y-122452381D01*
X177154762Y-122404762D01*
X177059524Y-122309524D01*
X177011905Y-122214286D01*
X176964286Y-122023810D01*
X176964286Y-121880952D01*
X177011905Y-121690476D01*
X177059524Y-121595238D01*
X177154762Y-121500000D01*
X177297620Y-121452381D01*
X177392858Y-121452381D01*
X177535715Y-121500000D01*
X177583334Y-121547619D01*
X178535715Y-122452381D02*
X177964286Y-122452381D01*
X178250000Y-122452381D02*
X178250000Y-121452381D01*
X178154762Y-121595238D01*
X178059524Y-121690476D01*
X177964286Y-121738095D01*
X155607143Y-145416666D02*
X155654762Y-145464285D01*
X155702381Y-145607142D01*
X155702381Y-145702380D01*
X155654762Y-145845238D01*
X155559524Y-145940476D01*
X155464286Y-145988095D01*
X155273810Y-146035714D01*
X155130952Y-146035714D01*
X154940476Y-145988095D01*
X154845238Y-145940476D01*
X154750000Y-145845238D01*
X154702381Y-145702380D01*
X154702381Y-145607142D01*
X154750000Y-145464285D01*
X154797619Y-145416666D01*
X154797619Y-145035714D02*
X154750000Y-144988095D01*
X154702381Y-144892857D01*
X154702381Y-144654761D01*
X154750000Y-144559523D01*
X154797619Y-144511904D01*
X154892857Y-144464285D01*
X154988095Y-144464285D01*
X155130952Y-144511904D01*
X155702381Y-145083333D01*
X155702381Y-144464285D01*
X153857143Y-99916666D02*
X153904762Y-99964285D01*
X153952381Y-100107142D01*
X153952381Y-100202380D01*
X153904762Y-100345238D01*
X153809524Y-100440476D01*
X153714286Y-100488095D01*
X153523810Y-100535714D01*
X153380952Y-100535714D01*
X153190476Y-100488095D01*
X153095238Y-100440476D01*
X153000000Y-100345238D01*
X152952381Y-100202380D01*
X152952381Y-100107142D01*
X153000000Y-99964285D01*
X153047619Y-99916666D01*
X152952381Y-99583333D02*
X152952381Y-98964285D01*
X153333333Y-99297619D01*
X153333333Y-99154761D01*
X153380952Y-99059523D01*
X153428571Y-99011904D01*
X153523810Y-98964285D01*
X153761905Y-98964285D01*
X153857143Y-99011904D01*
X153904762Y-99059523D01*
X153952381Y-99154761D01*
X153952381Y-99440476D01*
X153904762Y-99535714D01*
X153857143Y-99583333D01*
X176833334Y-117107143D02*
X176785715Y-117154762D01*
X176642858Y-117202381D01*
X176547620Y-117202381D01*
X176404762Y-117154762D01*
X176309524Y-117059524D01*
X176261905Y-116964286D01*
X176214286Y-116773810D01*
X176214286Y-116630952D01*
X176261905Y-116440476D01*
X176309524Y-116345238D01*
X176404762Y-116250000D01*
X176547620Y-116202381D01*
X176642858Y-116202381D01*
X176785715Y-116250000D01*
X176833334Y-116297619D01*
X177690477Y-116535714D02*
X177690477Y-117202381D01*
X177452381Y-116154762D02*
X177214286Y-116869048D01*
X177833334Y-116869048D01*
X164023810Y-100952381D02*
X164023810Y-99952381D01*
X165071429Y-100857143D02*
X165023810Y-100904762D01*
X164880953Y-100952381D01*
X164785715Y-100952381D01*
X164642857Y-100904762D01*
X164547619Y-100809524D01*
X164500000Y-100714286D01*
X164452381Y-100523810D01*
X164452381Y-100380952D01*
X164500000Y-100190476D01*
X164547619Y-100095238D01*
X164642857Y-100000000D01*
X164785715Y-99952381D01*
X164880953Y-99952381D01*
X165023810Y-100000000D01*
X165071429Y-100047619D01*
X166023810Y-100952381D02*
X165452381Y-100952381D01*
X165738095Y-100952381D02*
X165738095Y-99952381D01*
X165642857Y-100095238D01*
X165547619Y-100190476D01*
X165452381Y-100238095D01*
X175952381Y-147988095D02*
X174952381Y-147988095D01*
X174952381Y-147607142D01*
X175000000Y-147511904D01*
X175047619Y-147464285D01*
X175142857Y-147416666D01*
X175285714Y-147416666D01*
X175380952Y-147464285D01*
X175428571Y-147511904D01*
X175476190Y-147607142D01*
X175476190Y-147988095D01*
X175952381Y-146464285D02*
X175952381Y-147035714D01*
X175952381Y-146750000D02*
X174952381Y-146750000D01*
X175095238Y-146845238D01*
X175190476Y-146940476D01*
X175238095Y-147035714D01*
X175261905Y-94452381D02*
X175261905Y-93452381D01*
X175642858Y-93452381D01*
X175738096Y-93500000D01*
X175785715Y-93547619D01*
X175833334Y-93642857D01*
X175833334Y-93785714D01*
X175785715Y-93880952D01*
X175738096Y-93928571D01*
X175642858Y-93976190D01*
X175261905Y-93976190D01*
X176214286Y-93547619D02*
X176261905Y-93500000D01*
X176357143Y-93452381D01*
X176595239Y-93452381D01*
X176690477Y-93500000D01*
X176738096Y-93547619D01*
X176785715Y-93642857D01*
X176785715Y-93738095D01*
X176738096Y-93880952D01*
X176166667Y-94452381D01*
X176785715Y-94452381D01*
X156261905Y-94452381D02*
X156261905Y-93452381D01*
X156642858Y-93452381D01*
X156738096Y-93500000D01*
X156785715Y-93547619D01*
X156833334Y-93642857D01*
X156833334Y-93785714D01*
X156785715Y-93880952D01*
X156738096Y-93928571D01*
X156642858Y-93976190D01*
X156261905Y-93976190D01*
X157166667Y-93452381D02*
X157785715Y-93452381D01*
X157452381Y-93833333D01*
X157595239Y-93833333D01*
X157690477Y-93880952D01*
X157738096Y-93928571D01*
X157785715Y-94023810D01*
X157785715Y-94261905D01*
X157738096Y-94357143D01*
X157690477Y-94404762D01*
X157595239Y-94452381D01*
X157309524Y-94452381D01*
X157214286Y-94404762D01*
X157166667Y-94357143D01*
X149511905Y-148202381D02*
X149511905Y-147202381D01*
X149892858Y-147202381D01*
X149988096Y-147250000D01*
X150035715Y-147297619D01*
X150083334Y-147392857D01*
X150083334Y-147535714D01*
X150035715Y-147630952D01*
X149988096Y-147678571D01*
X149892858Y-147726190D01*
X149511905Y-147726190D01*
X150940477Y-147535714D02*
X150940477Y-148202381D01*
X150702381Y-147154762D02*
X150464286Y-147869048D01*
X151083334Y-147869048D01*
X183011905Y-148202381D02*
X183011905Y-147202381D01*
X183392858Y-147202381D01*
X183488096Y-147250000D01*
X183535715Y-147297619D01*
X183583334Y-147392857D01*
X183583334Y-147535714D01*
X183535715Y-147630952D01*
X183488096Y-147678571D01*
X183392858Y-147726190D01*
X183011905Y-147726190D01*
X184488096Y-147202381D02*
X184011905Y-147202381D01*
X183964286Y-147678571D01*
X184011905Y-147630952D01*
X184107143Y-147583333D01*
X184345239Y-147583333D01*
X184440477Y-147630952D01*
X184488096Y-147678571D01*
X184535715Y-147773810D01*
X184535715Y-148011905D01*
X184488096Y-148107143D01*
X184440477Y-148154762D01*
X184345239Y-148202381D01*
X184107143Y-148202381D01*
X184011905Y-148154762D01*
X183964286Y-148107143D01*
X152702261Y-109917746D02*
X152226070Y-110251080D01*
X152702261Y-110489175D02*
X151702261Y-110489175D01*
X151702261Y-110108222D01*
X151749880Y-110012984D01*
X151797499Y-109965365D01*
X151892737Y-109917746D01*
X152035594Y-109917746D01*
X152130832Y-109965365D01*
X152178451Y-110012984D01*
X152226070Y-110108222D01*
X152226070Y-110489175D01*
X152702261Y-108965365D02*
X152702261Y-109536794D01*
X152702261Y-109251080D02*
X151702261Y-109251080D01*
X151845118Y-109346318D01*
X151940356Y-109441556D01*
X151987975Y-109536794D01*
X176452381Y-132666666D02*
X175976190Y-133000000D01*
X176452381Y-133238095D02*
X175452381Y-133238095D01*
X175452381Y-132857142D01*
X175500000Y-132761904D01*
X175547619Y-132714285D01*
X175642857Y-132666666D01*
X175785714Y-132666666D01*
X175880952Y-132714285D01*
X175928571Y-132761904D01*
X175976190Y-132857142D01*
X175976190Y-133238095D01*
X175547619Y-132285714D02*
X175500000Y-132238095D01*
X175452381Y-132142857D01*
X175452381Y-131904761D01*
X175500000Y-131809523D01*
X175547619Y-131761904D01*
X175642857Y-131714285D01*
X175738095Y-131714285D01*
X175880952Y-131761904D01*
X176452381Y-132333333D01*
X176452381Y-131714285D01*
X176952381Y-105416666D02*
X176476190Y-105750000D01*
X176952381Y-105988095D02*
X175952381Y-105988095D01*
X175952381Y-105607142D01*
X176000000Y-105511904D01*
X176047619Y-105464285D01*
X176142857Y-105416666D01*
X176285714Y-105416666D01*
X176380952Y-105464285D01*
X176428571Y-105511904D01*
X176476190Y-105607142D01*
X176476190Y-105988095D01*
X175952381Y-105083333D02*
X175952381Y-104464285D01*
X176333333Y-104797619D01*
X176333333Y-104654761D01*
X176380952Y-104559523D01*
X176428571Y-104511904D01*
X176523810Y-104464285D01*
X176761905Y-104464285D01*
X176857143Y-104511904D01*
X176904762Y-104559523D01*
X176952381Y-104654761D01*
X176952381Y-104940476D01*
X176904762Y-105035714D01*
X176857143Y-105083333D01*
M02*
