G04 #@! TF.FileFunction,Soldermask,Top*
%FSLAX46Y46*%
G04 Gerber Fmt 4.6, Leading zero omitted, Abs format (unit mm)*
G04 Created by KiCad (PCBNEW 4.0.1-3.201512221401+6198~38~ubuntu15.10.1-stable) date dom 03 ene 2016 23:47:09 ART*
%MOMM*%
G01*
G04 APERTURE LIST*
%ADD10C,0.100000*%
%ADD11R,1.300000X1.300000*%
%ADD12C,1.300000*%
%ADD13O,1.600000X1.600000*%
%ADD14R,1.727200X1.727200*%
%ADD15O,1.727200X1.727200*%
%ADD16R,1.727200X2.032000*%
%ADD17O,1.727200X2.032000*%
%ADD18R,2.032000X2.032000*%
%ADD19O,2.032000X2.032000*%
%ADD20R,2.032000X1.727200*%
%ADD21O,2.032000X1.727200*%
%ADD22C,1.998980*%
%ADD23C,5.000000*%
G04 APERTURE END LIST*
D10*
D11*
X175750000Y-121750000D03*
D12*
X173250000Y-121750000D03*
D11*
X159000000Y-144000000D03*
D12*
X159000000Y-146500000D03*
D11*
X156000000Y-101000000D03*
D12*
X156000000Y-98500000D03*
D11*
X172500000Y-116750000D03*
D12*
X175000000Y-116750000D03*
D13*
X161000000Y-104000000D03*
X161000000Y-106540000D03*
X161000000Y-109080000D03*
X161000000Y-111620000D03*
X161000000Y-114160000D03*
X161000000Y-116700000D03*
X161000000Y-119240000D03*
X161000000Y-121780000D03*
X161000000Y-124320000D03*
X161000000Y-126860000D03*
X161000000Y-129400000D03*
X161000000Y-131940000D03*
X161000000Y-134480000D03*
X161000000Y-137020000D03*
X168620000Y-137020000D03*
X168620000Y-134480000D03*
X168620000Y-131940000D03*
X168620000Y-129400000D03*
X168620000Y-126860000D03*
X168620000Y-124320000D03*
X168620000Y-121780000D03*
X168620000Y-119240000D03*
X168620000Y-116700000D03*
X168620000Y-114160000D03*
X168620000Y-111620000D03*
X168620000Y-109080000D03*
X168620000Y-106540000D03*
X168620000Y-104000000D03*
D14*
X165000000Y-146000000D03*
D15*
X165000000Y-143460000D03*
X167540000Y-146000000D03*
X167540000Y-143460000D03*
X170080000Y-146000000D03*
X170080000Y-143460000D03*
X172620000Y-146000000D03*
X172620000Y-143460000D03*
D16*
X181000000Y-91000000D03*
D17*
X178460000Y-91000000D03*
X175920000Y-91000000D03*
X173380000Y-91000000D03*
X170840000Y-91000000D03*
X168300000Y-91000000D03*
D18*
X158000000Y-91000000D03*
D19*
X155460000Y-91000000D03*
D20*
X150250000Y-127000000D03*
D21*
X150250000Y-129540000D03*
X150250000Y-132080000D03*
X150250000Y-134620000D03*
X150250000Y-137160000D03*
X150250000Y-139700000D03*
X150250000Y-142240000D03*
X150250000Y-144780000D03*
D20*
X183750000Y-144750000D03*
D21*
X183750000Y-142210000D03*
X183750000Y-139670000D03*
X183750000Y-137130000D03*
X183750000Y-134590000D03*
D22*
X155750000Y-115080000D03*
X155750000Y-104920000D03*
X173750000Y-137330000D03*
X173750000Y-127170000D03*
X174000000Y-110330000D03*
X174000000Y-100170000D03*
D23*
X187000000Y-88000000D03*
X147000000Y-88000000D03*
M02*
