G04 #@! TF.FileFunction,Copper,L1,Top,Signal*
%FSLAX46Y46*%
G04 Gerber Fmt 4.6, Leading zero omitted, Abs format (unit mm)*
G04 Created by KiCad (PCBNEW 4.0.1-3.201512221401+6198~38~ubuntu15.10.1-stable) date dom 03 ene 2016 17:04:19 ART*
%MOMM*%
G01*
G04 APERTURE LIST*
%ADD10C,0.100000*%
%ADD11O,1.600000X1.600000*%
%ADD12R,1.300000X1.300000*%
%ADD13C,1.300000*%
%ADD14R,1.727200X1.727200*%
%ADD15O,1.727200X1.727200*%
%ADD16R,1.727200X2.032000*%
%ADD17O,1.727200X2.032000*%
%ADD18R,2.032000X2.032000*%
%ADD19O,2.032000X2.032000*%
%ADD20C,1.998980*%
%ADD21C,0.600000*%
G04 APERTURE END LIST*
D10*
D11*
X160883600Y-105333800D03*
X160883600Y-107873800D03*
X160883600Y-110413800D03*
X160883600Y-112953800D03*
X160883600Y-115493800D03*
X160883600Y-118033800D03*
X160883600Y-120573800D03*
X160883600Y-123113800D03*
X160883600Y-125653800D03*
X160883600Y-128193800D03*
X160883600Y-130733800D03*
X160883600Y-133273800D03*
X160883600Y-135813800D03*
X160883600Y-138353800D03*
X168503600Y-138353800D03*
X168503600Y-135813800D03*
X168503600Y-133273800D03*
X168503600Y-130733800D03*
X168503600Y-128193800D03*
X168503600Y-125653800D03*
X168503600Y-123113800D03*
X168503600Y-120573800D03*
X168503600Y-118033800D03*
X168503600Y-115493800D03*
X168503600Y-112953800D03*
X168503600Y-110413800D03*
X168503600Y-107873800D03*
X168503600Y-105333800D03*
D12*
X174345600Y-126009400D03*
D13*
X171845600Y-126009400D03*
D12*
X174345600Y-122097800D03*
D13*
X171845600Y-122097800D03*
D12*
X155676600Y-147624800D03*
D13*
X155676600Y-150124800D03*
D12*
X157505400Y-105537000D03*
D13*
X157505400Y-103037000D03*
D12*
X172491400Y-114935000D03*
D13*
X172491400Y-117435000D03*
D14*
X161264600Y-150139400D03*
D15*
X161264600Y-147599400D03*
X163804600Y-150139400D03*
X163804600Y-147599400D03*
X166344600Y-150139400D03*
X166344600Y-147599400D03*
X168884600Y-150139400D03*
X168884600Y-147599400D03*
D16*
X171678600Y-95631000D03*
D17*
X169138600Y-95631000D03*
X166598600Y-95631000D03*
X164058600Y-95631000D03*
X161518600Y-95631000D03*
X158978600Y-95631000D03*
D18*
X177215800Y-134010400D03*
D19*
X177215800Y-136550400D03*
D20*
X153746200Y-95021400D03*
X153746200Y-105181400D03*
X172110400Y-100812600D03*
X172110400Y-110972600D03*
X176403000Y-110871000D03*
X176403000Y-100711000D03*
D13*
X164388800Y-119303800D03*
X165455600Y-125552200D03*
X176555400Y-142392400D03*
X161696400Y-142316200D03*
X164007800Y-107391200D03*
X162560000Y-103911400D03*
X155498800Y-115112800D03*
X150342600Y-120192800D03*
X178358800Y-152222200D03*
X170662600Y-144475200D03*
X157073600Y-139471400D03*
X149987000Y-141427200D03*
X165100000Y-129006600D03*
X177190400Y-129260600D03*
D21*
X164388800Y-124485400D02*
X164388800Y-119303800D01*
X165455600Y-125552200D02*
X164388800Y-124485400D01*
X161772600Y-142392400D02*
X176555400Y-142392400D01*
X161696400Y-142316200D02*
X161772600Y-142392400D01*
X164007800Y-107391200D02*
X162560000Y-105943400D01*
X162560000Y-105943400D02*
X162560000Y-103911400D01*
X155422600Y-115112800D02*
X155498800Y-115112800D01*
X150342600Y-120192800D02*
X155422600Y-115112800D01*
X178358800Y-152171400D02*
X178358800Y-152222200D01*
X170662600Y-144475200D02*
X178358800Y-152171400D01*
X157073600Y-139471400D02*
X157022800Y-139420600D01*
X157022800Y-139420600D02*
X151993600Y-139420600D01*
X151993600Y-139420600D02*
X149987000Y-141427200D01*
X176936400Y-129006600D02*
X165100000Y-129006600D01*
X177190400Y-129260600D02*
X176936400Y-129006600D01*
M02*
