M48
;DRILL file {KiCad 4.0.1-3.201512221401+6198~38~ubuntu15.10.1-stable} date dom 03 ene 2016 17:04:27 ART
;FORMAT={-:-/ absolute / inch / decimal}
FMAT,2
INCH,TZ
T1C0.031
T2C0.032
T3C0.035
T4C0.039
T5C0.040
%
G90
G05
M72
T1
X6.129Y-5.812
X6.129Y-5.9104
X6.201Y-4.155
X6.334Y-4.147
X6.334Y-4.247
X6.334Y-4.347
X6.334Y-4.447
X6.334Y-4.547
X6.334Y-4.647
X6.334Y-4.747
X6.334Y-4.847
X6.334Y-4.947
X6.334Y-5.047
X6.334Y-5.147
X6.334Y-5.247
X6.334Y-5.347
X6.334Y-5.447
X6.634Y-4.147
X6.634Y-4.247
X6.634Y-4.347
X6.634Y-4.447
X6.634Y-4.547
X6.634Y-4.647
X6.634Y-4.747
X6.634Y-4.847
X6.634Y-4.947
X6.634Y-5.047
X6.634Y-5.147
X6.634Y-5.247
X6.634Y-5.347
X6.634Y-5.447
X6.791Y-4.525
X6.864Y-4.807
X6.864Y-4.961
T2
X6.201Y-4.0566
X6.7656Y-4.807
X6.7656Y-4.961
X6.791Y-4.6234
T3
X5.905Y-5.568
X5.919Y-4.732
X6.122Y-4.532
X6.184Y-5.491
X6.366Y-5.603
X6.4Y-4.091
X6.457Y-4.228
X6.472Y-4.697
X6.5Y-5.079
X6.514Y-4.943
X6.719Y-5.688
X6.951Y-5.606
X6.976Y-5.089
X7.022Y-5.993
T4
X6.053Y-3.741
X6.053Y-4.141
X6.776Y-3.969
X6.776Y-4.369
X6.945Y-3.965
X6.945Y-4.365
T5
X6.259Y-3.765
X6.349Y-5.811
X6.349Y-5.911
X6.359Y-3.765
X6.449Y-5.811
X6.449Y-5.911
X6.459Y-3.765
X6.549Y-5.811
X6.549Y-5.911
X6.559Y-3.765
X6.649Y-5.811
X6.649Y-5.911
X6.659Y-3.765
X6.759Y-3.765
X6.977Y-5.276
X6.977Y-5.376
T0
M30
